<?xml version="1.0" encoding="utf-8"?><svg preserveAspectRatio="xMinYMid" xmlns="http://www.w3.org/2000/svg" xmlns:xlink="http://www.w3.org/1999/xlink"><symbol viewBox="0 0 8 13" id="arrow_scroller"><path d="M8 1.5l-4.9 5 4.9 5L6.5 13 0 6.5 6.5 0 8 1.5z"/></symbol><symbol viewBox="0 0 18 18" id="check"><path fill-rule="evenodd" clip-rule="evenodd" d="M7.255 15.75L.462 8.721l2.591-2.68 4.202 4.348 7.868-8.139 2.59 2.68z"/></symbol><symbol viewBox="0 0 16 16" id="close-button"><path fill-rule="evenodd" d="M15.595 13.636a1.385 1.385 0 11-1.96 1.958L8 9.958l-5.636 5.636a1.383 1.383 0 01-1.959 0 1.385 1.385 0 010-1.958L6.042 8 .405 2.363A1.385 1.385 0 112.365.405L8 6.042 13.636.405a1.386 1.386 0 011.959 1.958L9.958 8l5.637 5.636z"/></symbol><symbol viewBox="0 0 32 32" id="comment-dislike"><path d="M16 18.8c-3.3 0-6 2-7.2 4.9h2.3c1-1.7 2.8-2.8 4.8-2.8s3.9 1.1 4.8 2.8H23c-1-2.9-3.7-4.9-7-4.9zm0 8.4c-6.2 0-11.2-5-11.2-11.2 0-6.2 5-11.2 11.2-11.2 6.2 0 11.2 5 11.2 11.2 0 6.2-5 11.2-11.2 11.2zM16 2C8.3 2 2 8.3 2 16s6.3 14 14 14 14-6.3 14-14S23.7 2 16 2z"/><path d="M10.5 16l1.5-1.5 1.5 1.5 1.5-1.5-1.4-1.5 1.5-1.5-1.5-1.5-1.6 1.5-1.5-1.5L9 11.5l1.5 1.5L9 14.5l1.5 1.5zm12-6L21 11.5 19.4 10l-1.5 1.5 1.5 1.5-1.5 1.5 1.5 1.5 1.5-1.5 1.5 1.5 1.5-1.5-1.4-1.5 1.5-1.5-1.5-1.5z"/></symbol><symbol viewBox="0 0 32 32" id="comment-like"><path d="M16 21.6c-2.1 0-3.9-1.1-4.8-2.8H8.8c1.1 2.9 3.9 4.9 7.2 4.9 3.3 0 6-2 7.2-4.9h-2.3c-1 1.7-2.8 2.8-4.9 2.8zm0 5.6c-6.2 0-11.2-5-11.2-11.2 0-6.2 5-11.2 11.2-11.2 6.2 0 11.2 5 11.2 11.2 0 6.2-5 11.2-11.2 11.2zM16 2C8.3 2 2 8.3 2 16s6.3 14 14 14 14-6.3 14-14S23.7 2 16 2zm-4.9 12.6c1.2 0 2.1-.9 2.1-2.1 0-1.2-.9-2.1-2.1-2.1-1.2 0-2.1.9-2.1 2.1 0 1.2.9 2.1 2.1 2.1zm9.8 0c1.2 0 2.1-.9 2.1-2.1 0-1.2-.9-2.1-2.1-2.1-1.2 0-2.1.9-2.1 2.1 0 1.2.9 2.1 2.1 2.1z"/></symbol><symbol viewBox="0 0 25 25" id="comment-report"><path d="M12.5 2L.5 23h24l-12-21zm1 17h-2v-2h2v2zm-2-4v-4h2v4h-2z"/></symbol><symbol viewBox="0 0 32 32" id="comment-useful"><circle fill="#FFF" cx="16.1" cy="16.4" r="10"/><defs><path id="aga" d="M2 2h28v28H2z"/></defs><clipPath id="agb"><use xlink:href="#aga" overflow="visible"/></clipPath><g clip-path="url(#agb)"><path d="M16 30c7.732 0 14-6.268 14-14S23.732 2 16 2 2 8.268 2 16s6.268 14 14 14z"/><path fill="#FFF" d="M10.373 15.763l.036.025.033.025h.001l2.47 1.738-.95 2.83c-.002 0-.002.004-.002.005l-.009.014-.007.023c-.518 1.554.16 2.044 1.52 1.088l.033-.025 2.5-1.758 2.47 1.737.033.025.035.025c1.358.952 2.042.457 1.52-1.09l-.01-.022-.004-.016-.001-.002-.952-2.833 2.465-1.736s.003 0 .004-.002l.065-.045c1.364-.957 1.108-1.738-.567-1.738h-3.153l-.957-2.85-.007-.015c-.523-1.555-1.38-1.555-1.905 0l-.009.015-.957 2.85h-3.151c-1.644-.003-1.9.777-.544 1.732z"/></g></symbol><symbol viewBox="0 0 36 36" id="content-bonus"><path fill="currentColor" fill-opacity=".4" d="M18 0v36C8.1 36 0 27.9 0 18S8.1 0 18 0z"/><path d="M12.1 14.8h5c.3 0 .7-.3.7-.7 0-.3-.3-.7-.7-.7h-5c-.3 0-.7.3-.7.7 0 .4.3.7.7.7zm1.8 5.1H12c-.3 0-.7.3-.7.7 0 .3.3.7.7.7h1.9c.3 0 .7-.3.7-.7 0-.5-.4-.7-.7-.7z"/><path d="M21.5 14.4H21v-2.6c0-1.4-1.2-2.6-2.6-2.6h-7.5c-1.5 0-2.6 1.1-2.6 2.6v11.1c0 1.4 1.1 2.6 2.6 2.6h6.9c1.1.8 2.4 1.3 3.8 1.3 3.5 0 6.2-2.7 6.2-6.2s-2.9-6.2-6.3-6.2zM9.7 22.8V11.7c0-.7.6-1.1 1.2-1.1h7.5c.7 0 1.2.5 1.2 1.2v2.9c-1.1.4-2.1 1.1-2.9 2H12c-.3 0-.7.3-.7.7 0 .3.3.7.7.7h3.9c-.4.8-.6 1.7-.6 2.6 0 1.3.4 2.4 1 3.4h-5.5c-.6-.1-1.1-.6-1.1-1.3zm11.8 2.7c-2.7 0-4.9-2.2-4.9-4.9s2.2-4.9 4.9-4.9 4.9 2.2 4.9 4.9c.1 2.7-2.1 4.9-4.9 4.9z"/><path d="M24.5 20h-1.9v-2c0-.4-.3-.9-.9-.9-.6 0-.9.3-.9.9v2h-2c-.4 0-.9.3-.9.9s.3.9.9.9h2v2c0 .4.3.9.9.9.6 0 .9-.3.9-.9v-2h2c.4 0 .9-.3.9-.9s-.5-.9-1-.9z"/></symbol><symbol viewBox="0 0 36 36" id="content-finished"><path d="M24 11l-8 7.8-4.3-4.2L9 17.2l6.9 6.7 10.7-10.4L24 11z"/></symbol><symbol viewBox="0 0 36 36" id="content-test"><path fill="currentColor" fill-opacity=".4" d="M18 0v36C8.1 36 0 27.9 0 18S8.1 0 18 0z"/><path d="M25.8 13.1c.3-.3.3-.8 0-1.1L24 10.2c-.3-.3-.8-.3-1.1 0l-1.5 1.5 2.9 2.9 1.5-1.5zm-3.2 3.8l-3.4-3.4-9.2 9.1V26h3.4l9.2-9.1z"/></symbol><symbol viewBox="0 0 36 36" id="content-video"><path fill="currentColor" fill-opacity=".4" d="M18 0v36C8.1 36 0 27.9 0 18S8.1 0 18 0z"/><path d="M25 18c0 .6-.3 1-.7 1.3l-10.2 6.5c-.2.1-.5.2-.7.2-.8 0-1.4-.7-1.4-1.5v-13c0-.8.6-1.5 1.4-1.5.3 0 .5.1.7.2l10.2 6.5c.4.3.7.7.7 1.3z"/></symbol><symbol viewBox="0 0 40 40" id="delete-icon"><path d="M13.8 16.3v12.5h12.5V16.3H13.8zm-2.5 12.5v-15h17.5v15c0 1.4-1.1 2.5-2.5 2.5H13.8c-1.4 0-2.5-1.2-2.5-2.5zM23.8 10V7.5h-7.5V10H8.8v2.5h22.5V10h-7.5zm-7.5 16.3h2.5v-7.5h-2.5v7.5zm5 0h2.5v-7.5h-2.5v7.5z"/></symbol><symbol viewBox="0 0 32 32" id="ellipsis"><path d="M7 16c0-1.1.9-2 2-2s2 .9 2 2-.9 2-2 2-2-.9-2-2zm7 0c0-1.1.9-2 2-2s2 .9 2 2-.9 2-2 2-2-.9-2-2zm7 0c0-1.1.9-2 2-2s2 .9 2 2-.9 2-2 2-2-.9-2-2z"/></symbol><symbol viewBox="0 0 48 48" id="emaill-share"><path d="M24 0a24 24 0 1024 24A24 24 0 0024 0zM11.87 13.88h24.26a2 2 0 011.4.55L24 26 10.47 14.43a2.06 2.06 0 011.4-.55zm-2 1.78l9.79 8.5-9.83 8.31zm26.3 18.46h-24.3a2 2 0 01-1.4-.55L20.5 25l3.5 3.05L27.5 25l10 8.59a2 2 0 01-1.37.53zm2-1.65l-9.79-8.31 9.79-8.51z"/></symbol><symbol viewBox="0 0 48 48" id="extra-materials"><path d="M16.9 19.7v-13c0-.6.5-1.1 1.1-1.1h12c.6 0 1.1.5 1.1 1.1v13h5.1c.9 0 1.4 1 .9 1.7L24.9 37.2c-.4.6-1.3.6-1.7 0L10.9 21.5c-.6-.7 0-1.7.9-1.7h5.1v-.1zm21.5 22.7H9.6c-.6 0-1.1-.5-1.1-1.1 0-.6.5-1.1 1.1-1.1h28.8c.6 0 1.1.5 1.1 1.1 0 .6-.5 1.1-1.1 1.1z"/></symbol><symbol viewBox="0 0 24 24" id="fb-login"><path d="M24 12c0-6.627-5.373-12-12-12S0 5.373 0 12c0 5.99 4.388 10.954 10.125 11.854V15.47H7.078V12h3.047V9.356c0-3.007 1.791-4.668 4.533-4.668 1.313 0 2.686.234 2.686.234v2.953H15.83c-1.491 0-1.956.925-1.956 1.874V12h3.328l-.532 3.469h-2.796v8.385C19.612 22.954 24 17.99 24 12z"/><path d="M16.671 15.469L17.203 12h-3.328V9.749c0-.949.465-1.874 1.956-1.874h1.513V4.922s-1.374-.234-2.686-.234c-2.742 0-4.533 1.66-4.533 4.668V12H7.078v3.469h3.047v8.385a12.096 12.096 0 003.75 0V15.47h2.796z" fill="transparent"/></symbol><symbol viewBox="0 0 32 32" id="fb-share"><path d="M13.3 27h4.1v-9.6h4.1v-4.1h-4.1v-2.8c0-.8.6-1.4 1.4-1.4h2.8V5h-3.4c-2.7 0-4.8 2.1-4.8 4.8v3.4h-2.8v4.1h2.8V27z"/></symbol><symbol fill="none" viewBox="0 0 32 32" id="fb-share-test"><path d="M26 16c0-5.523-4.477-10-10-10S6 10.477 6 16c0 4.991 3.657 9.128 8.438 9.878v-6.987h-2.54V16h2.54v-2.203c0-2.506 1.492-3.89 3.777-3.89 1.094 0 2.238.195 2.238.195v2.46h-1.26c-1.243 0-1.63.771-1.63 1.562V16h2.773l-.443 2.89h-2.33v6.988C22.343 25.128 26 20.991 26 16z" fill="#1778F2"/><path d="M19.893 18.89l.443-2.89h-2.773v-1.876c0-.79.387-1.562 1.63-1.562h1.26v-2.46s-1.144-.196-2.238-.196c-2.285 0-3.777 1.385-3.777 3.89V16h-2.54v2.89h2.54v6.988a10.072 10.072 0 003.124 0v-6.987h2.33z" fill="#fff"/></symbol><symbol viewBox="0 0 32 24" id="hamburger-menu"><path d="M0 1.5C0 .7.7 0 1.5 0h29c.8 0 1.5.7 1.5 1.5S31.3 3 30.5 3h-29C.7 3 0 2.3 0 1.5zm0 10c0-.8.7-1.5 1.5-1.5h29c.8 0 1.5.7 1.5 1.5s-.7 1.5-1.5 1.5h-29C.7 13 0 12.3 0 11.5zm0 10c0-.8.7-1.5 1.5-1.5h29c.8 0 1.5.7 1.5 1.5s-.7 1.5-1.5 1.5h-29C.7 23 0 22.3 0 21.5z"/></symbol><symbol viewBox="0 0 32 32" id="header-streak-empty"><path opacity=".5" fill="#FFF" d="M22.343 8.627c.743 4.858-2.743 6.344-2.743 6.344C21.486 5.2 11.943 2 11.943 2c.742 6.685-7.315 8.685-7.315 16.628C4.628 24.908 9.72 30 16 30s11.372-4.857 11.372-11.258c0-7.771-5.029-10.115-5.029-10.115z"/></symbol><symbol viewBox="0 0 32 32" id="header-streak-full"><path fill="#FFF" d="M22.343 8.627c.743 4.858-2.743 6.344-2.743 6.344C21.486 5.2 11.943 2 11.943 2c.742 6.685-7.315 8.685-7.315 16.628C4.628 24.908 9.72 30 16 30s11.372-4.857 11.372-11.258c0-7.771-5.029-10.115-5.029-10.115z"/></symbol><symbol viewBox="0 0 32 32" id="header-streak-half"><g fill="#FFF"><path opacity=".5" d="M22.343 8.627c.743 4.858-2.743 6.344-2.743 6.344C21.486 5.2 11.943 2 11.943 2c.742 6.685-7.315 8.685-7.315 16.628C4.628 24.908 9.72 30 16 30s11.372-4.857 11.372-11.258c0-7.771-5.029-10.115-5.029-10.115z"/><path d="M27.36 19.06C27.2 25.3 22.18 30 16 30 9.86 30 4.86 25.14 4.64 19.06h22.72z"/></g></symbol><symbol viewBox="0 0 40 40" id="image-upload-icon"><path fill="#fff" d="M20 17.1c1.8 0 3.2 1.5 3.2 3.3 0 1.8-1.4 3.3-3.2 3.3-1.8 0-3.2-1.5-3.2-3.3 0-1.8 1.4-3.3 3.2-3.3z"/><path fill="#fff" d="M20 25.6c-2.8 0-5-2.3-5-5.2 0-2.9 2.2-5.2 5-5.2s5 2.3 5 5.2c0 2.9-2.2 5.2-5 5.2zM17 10l-1.8 2.1H12c-1.1 0-2 .9-2 2.1v12.5c0 1.2.9 2.1 2 2.1h16c1.1 0 2-.9 2-2.1V14.2c0-1.2-.9-2.1-2-2.1h-3.2L23 10h-6z"/></symbol><symbol viewBox="0 0 146 100" id="info-streak-empty"><path fill="#F8C194" d="M83.395 87.658s-7.952-7.03-1.076-16.4c3.872-5.276 14.832-6.598 12.4-13.067 8.901 4.035 9.773 24.97-11.324 29.467M39.41 54.11a1.11 1.11 0 01-1.02-1.2c.14-1.74.47-3.46.98-5.14.08-.25.35-1.08.44-1.33.38-1.06.84-2.13 1.38-3.19a1.11 1.11 0 111.98 1.01c-.49.97-.92 1.96-1.26 2.93a22.563 22.563 0 00-1.3 5.9c-.05.58-.54 1.02-1.11 1.02h-.09m6.31-14.89c-.23 0-.46-.07-.66-.21-.49-.37-.6-1.07-.23-1.56.27-.37.54-.73.82-1.08.221-.286.552-.435.884-.435.237 0 .476.076.676.235.49.37.58 1.07.2 1.56-.27.34-.53.69-.79 1.04-.22.3-.56.45-.9.45M72.22 92s-20.592-6.102-21.676-24.407C49.46 49.288 68.968 43.186 68.968 32c0 0 13.006 14.238 3.252 30.509-9.755 16.27 0 29.49 0 29.49M48.63 35.57c-.25 0-.51-.09-.72-.26-.47-.4-.53-1.1-.13-1.57.84-1.01 1.7-2 2.55-2.98.61-.7 1.21-1.39 1.8-2.09.16-.19.7-.82.86-1.01.78-.95 1.46-1.79 2.05-2.57a1.12 1.12 0 011.56-.21c.49.37.59 1.07.21 1.56-.61.81-1.3 1.67-2.11 2.64-.16.2-.71.84-.87 1.03-.6.7-1.21 1.4-1.82 2.11-.84.97-1.69 1.95-2.53 2.95-.22.26-.53.4-.85.4m10.88-14.31c-.17 0-.35-.04-.51-.12-.55-.28-.76-.96-.48-1.5.2-.4.39-.79.56-1.16a1.11 1.11 0 011.48-.54c.56.26.8.92.54 1.48-.18.4-.38.81-.6 1.23-.2.39-.59.61-.99.61m1.834-4.294a1.112 1.112 0 01-1.053-1.475c.942-2.749 1.098-4.56 1.099-4.579a1.12 1.12 0 011.197-1.021c.612.049 1.07.582 1.023 1.194-.006.084-.17 2.086-1.214 5.128-.158.462-.59.753-1.052.753M58.512 0c.117 1.05.172 2.066.173 3.054.004 21.49-26.298 29.21-26.298 56.334C32.387 81.816 50.57 100 73 100c22.431 0 40.613-17.346 40.613-40.207 0-27.754-17.959-36.123-17.959-36.123.257 1.677.372 3.242.37 4.7-.008 13.624-10.167 17.953-10.167 17.953C92.593 11.428 58.512 0 58.512 0"/><path fill="#FFD495" d="M68.968 32c0 11.187-19.508 17.288-18.425 35.593C51.627 85.898 72.22 92 72.22 92s-9.755-13.22 0-29.491C81.974 46.237 68.968 32 68.968 32m25.75 26.191c2.433 6.47-8.528 7.792-12.399 13.067-6.877 9.37 1.076 16.4 1.076 16.4 21.097-4.498 20.225-25.432 11.323-29.467"/><path fill="#F9EBDB" d="M62.502 9.887a1.12 1.12 0 00-1.112 1.025c-.001.019-.156 1.83-1.099 4.578a1.112 1.112 0 001.053 1.476c.463 0 .894-.291 1.052-.753 1.045-3.042 1.208-5.044 1.215-5.128a1.114 1.114 0 00-1.11-1.198m-2.413 7.948c-.42 0-.819.238-1.008.645-.17.37-.36.76-.56 1.16-.28.54-.07 1.22.48 1.5a1.112 1.112 0 001.5-.49c.22-.42.42-.83.6-1.23.26-.56.02-1.22-.54-1.48a1.114 1.114 0 00-.472-.105m-13.554 18.1c-.332 0-.662.15-.884.435-.28.35-.55.71-.82 1.08-.37.49-.26 1.19.23 1.56.2.14.43.21.66.21.34 0 .68-.15.9-.45a41 41 0 01.79-1.04c.38-.49.29-1.19-.2-1.56a1.086 1.086 0 00-.676-.235m9.389-11.283c-.335 0-.666.15-.883.438-.59.78-1.27 1.62-2.05 2.57-.16.19-.7.82-.86 1.01-.59.7-1.19 1.39-1.8 2.09-.85.98-1.71 1.97-2.55 2.98-.4.47-.34 1.17.13 1.57a1.112 1.112 0 001.57-.14c.84-1 1.69-1.98 2.53-2.95.61-.71 1.22-1.41 1.82-2.11.16-.19.71-.83.87-1.03a67.4 67.4 0 002.11-2.64c.38-.49.28-1.19-.21-1.56a1.12 1.12 0 00-.677-.227M42.182 42.64c-.408 0-.8.227-.992.61-.54 1.06-1 2.13-1.38 3.19-.09.25-.36 1.08-.44 1.33-.51 1.68-.84 3.4-.98 5.14-.05.61.4 1.15 1.02 1.2h.09c.57 0 1.06-.44 1.11-1.02a22.57 22.57 0 011.3-5.9c.34-.97.77-1.96 1.26-2.93a1.115 1.115 0 00-.988-1.62"/><path fill="#FB565F" d="M124.84 19.232a4.272 4.272 0 01-3.004-1.271c-.848-.854-1.26-1.842-1.26-3.02.14-1.17.535-2.113 1.21-2.965l.05-.056c.848-.856 1.832-1.272 3.004-1.272 1.107 0 2.202.464 3.004 1.272.847.854 1.26 1.843 1.26 3.02a4.333 4.333 0 01-1.26 3.02c-.849.856-1.832 1.272-3.004 1.272zm-2.036-6.403a4.28 4.28 0 00-.905 2.193c.005.74.283 1.403.878 2.003.547.551 1.318.88 2.063.88.811 0 1.467-.28 2.062-.88a3.033 3.033 0 00.873-2.085c0-.82-.277-1.483-.874-2.085-.546-.55-1.316-.879-2.061-.879-.8 0-1.447.272-2.036.853z"/><path fill="#FADE4D" d="M30.389 93.019c-.762 0-1.308-.248-1.667-.758-.33-.358-.665-1.016-.665-1.588 0-.269.054-1.169.749-1.674.362-.34 1.005-.673 1.583-.673.762 0 1.308.248 1.668.758.33.357.665 1.016.665 1.589 0 .764-.245 1.311-.75 1.674-.363.34-1.005.672-1.583.672zm0-3.494c-.206 0-.597.182-.774.36l-.091.076c-.184.123-.268.455-.268.712 0 .214.178.603.36.786l.075.092c.088.136.216.268.698.268.21 0 .594-.178.774-.36l.09-.075c.13-.087.27-.22.27-.711 0-.215-.178-.605-.36-.787l-.075-.092c-.089-.136-.217-.269-.7-.269z"/><path fill="#C699F2" d="M119.701 39.915c.533-.537 1.2-.806 1.999-.806.8 0 1.467.269 2 .806.533.538.8 1.21.8 2.016s-.267 1.478-.8 2.015c-.533.538-1.2.807-2 .807-.799 0-1.466-.269-1.999-.807-.534-.537-.8-1.209-.8-2.015 0-.672.266-1.478.8-2.016z"/><path fill="#17DDBA" d="M7.258 74.158c1.067-1.075 2.133-2.553 2.8-3.897.267-.537 0-1.074-.533-1.209a17.472 17.472 0 00-5.2-.806c-.533 0-.933.537-.8 1.075.267 1.478.934 3.09 1.734 4.434.4 1.344 1.066 1.344 2 .403z"/><path fill="#FADE4D" d="M124.973 75.17c.133-.94.933-1.746 1.999-1.746l2.133.134.133-2.284c.134-.94.934-1.747 2-1.747a2.03 2.03 0 011.733 2.016l-.133 2.284 2.133.134a2.03 2.03 0 011.733 2.016c-.134.94-.933 1.747-2 1.747l-2.133-.135-.133 2.285c-.133.94-.933 1.746-2 1.746a2.03 2.03 0 01-1.733-2.015l.134-2.284-2.133-.135c-1.067-.134-1.867-.94-1.733-2.015z"/><path fill="#00A2FF" d="M38.32 16.04c.4.941-.133 2.016-1.066 2.285l-2 .672.8 2.15c.4.94-.133 2.015-1.066 2.284-.933.403-2-.134-2.267-1.075l-.8-2.15-2 .672c-.932.403-1.999-.134-2.265-1.075-.4-.94.133-2.016 1.066-2.284l2-.672-.8-2.15c-.4-.94.133-2.016 1.066-2.284a1.68 1.68 0 012.267 1.075l.8 2.15 2-.672c.932-.403 1.865.134 2.265 1.075z"/><path fill="none" d="M0 0h146v100H0z"/></symbol><symbol viewBox="0 0 146 100" id="info-streak-full"><path fill="#F2842A" d="M95.654 23.67c2.653 17.349-9.797 22.654-9.797 22.654C92.593 11.428 58.512 0 58.512 0c2.65 23.875-26.125 31.017-26.125 59.387C32.387 81.816 50.57 100 73 100c22.431 0 40.613-17.346 40.613-40.206 0-27.755-17.959-36.124-17.959-36.124z"/><path fill="#FFA92C" d="M72.22 92s-20.593-6.102-21.677-24.407C49.46 49.288 68.968 43.186 68.968 32c0 0 13.006 14.237 3.252 30.509s0 29.491 0 29.491zm22.498-33.809c8.902 4.036 9.774 24.97-11.323 29.467 0 0-7.952-7.03-1.076-16.4 3.872-5.276 14.832-6.598 12.4-13.067z"/><path fill="#F4D8B8" d="M61.344 16.966a1.112 1.112 0 01-1.053-1.476c.943-2.748 1.098-4.56 1.099-4.578a1.113 1.113 0 112.22.173c-.006.084-.17 2.086-1.214 5.128-.158.462-.59.753-1.052.753zm-.784.974c-.56-.26-1.22-.02-1.48.54-.17.37-.36.76-.56 1.16-.28.54-.07 1.22.48 1.5a1.113 1.113 0 001.5-.49c.22-.42.42-.83.6-1.23.26-.56.02-1.22-.54-1.48zM47.21 36.17c-.48-.38-1.18-.29-1.56.2-.28.35-.55.71-.82 1.08-.37.49-.26 1.19.23 1.56.2.14.43.21.66.21.34 0 .68-.15.9-.45.26-.35.52-.7.79-1.04.38-.49.29-1.19-.2-1.56zm9.6-9.73c-.61.81-1.3 1.67-2.11 2.64-.16.2-.71.84-.87 1.03-.6.7-1.21 1.4-1.82 2.11-.84.97-1.69 1.95-2.53 2.95a1.11 1.11 0 11-1.7-1.43c.84-1.01 1.7-2 2.55-2.98.61-.7 1.21-1.39 1.8-2.09.16-.19.7-.82.86-1.01.78-.95 1.46-1.79 2.05-2.57a1.114 1.114 0 011.77 1.35zM43.17 44.26c-.49.97-.92 1.96-1.26 2.93a22.525 22.525 0 00-1.3 5.9c-.05.58-.54 1.02-1.11 1.02h-.09a1.11 1.11 0 01-1.02-1.2c.14-1.74.47-3.46.98-5.14.08-.25.35-1.08.44-1.33.38-1.06.84-2.13 1.38-3.19.27-.54.94-.77 1.49-.49s.77.95.49 1.5z"/><path fill="#FB565F" d="M124.84 19.232a4.272 4.272 0 01-3.004-1.271c-.848-.854-1.26-1.842-1.26-3.02.14-1.17.535-2.113 1.21-2.965l.05-.056c.848-.856 1.832-1.272 3.004-1.272 1.107 0 2.202.464 3.004 1.272.847.854 1.26 1.843 1.26 3.02a4.333 4.333 0 01-1.26 3.02c-.849.856-1.832 1.272-3.004 1.272zm-2.036-6.403a4.28 4.28 0 00-.905 2.193c.005.74.283 1.403.878 2.003.547.551 1.318.88 2.063.88.811 0 1.467-.28 2.062-.88a3.033 3.033 0 00.873-2.085c0-.82-.277-1.483-.874-2.085-.546-.55-1.316-.879-2.061-.879-.8 0-1.447.272-2.036.853z"/><path fill="#FADE4D" d="M30.389 93.019c-.762 0-1.308-.248-1.667-.758-.33-.358-.665-1.016-.665-1.588 0-.269.054-1.169.749-1.674.362-.34 1.005-.673 1.583-.673.762 0 1.308.248 1.668.758.33.357.665 1.016.665 1.589 0 .764-.245 1.311-.75 1.674-.363.34-1.005.672-1.583.672zm0-3.494c-.206 0-.597.182-.774.36l-.091.076c-.184.123-.268.455-.268.712 0 .214.178.603.36.786l.075.092c.088.136.216.268.698.268.21 0 .594-.178.774-.36l.09-.075c.13-.087.27-.22.27-.711 0-.215-.178-.605-.36-.787l-.075-.092c-.089-.136-.217-.269-.7-.269z"/><path fill="#C699F2" d="M119.701 39.915c.533-.537 1.2-.806 1.999-.806.8 0 1.467.269 2 .806.533.538.8 1.21.8 2.016s-.267 1.478-.8 2.015c-.533.538-1.2.807-2 .807-.799 0-1.466-.269-1.999-.807-.534-.537-.8-1.209-.8-2.015 0-.672.266-1.478.8-2.016z"/><path fill="#17DDBA" d="M7.258 74.158c1.067-1.075 2.133-2.553 2.8-3.897.267-.537 0-1.074-.533-1.209a17.472 17.472 0 00-5.2-.806c-.533 0-.933.537-.8 1.075.267 1.478.934 3.09 1.734 4.434.4 1.344 1.066 1.344 2 .403z"/><path fill="#FADE4D" d="M124.973 75.17c.133-.94.933-1.746 1.999-1.746l2.133.134.133-2.284c.134-.94.934-1.747 2-1.747a2.03 2.03 0 011.733 2.016l-.133 2.284 2.133.134a2.03 2.03 0 011.733 2.016c-.134.94-.933 1.747-2 1.747l-2.133-.135-.133 2.285c-.133.94-.933 1.746-2 1.746a2.03 2.03 0 01-1.733-2.015l.134-2.284-2.133-.135c-1.067-.134-1.867-.94-1.733-2.015z"/><path fill="#00A2FF" d="M38.32 16.04c.4.941-.133 2.016-1.066 2.285l-2 .672.8 2.15c.4.94-.133 2.015-1.066 2.284-.933.403-2-.134-2.267-1.075l-.8-2.15-2 .672c-.932.403-1.999-.134-2.265-1.075-.4-.94.133-2.016 1.066-2.284l2-.672-.8-2.15c-.4-.94.133-2.016 1.066-2.284a1.68 1.68 0 012.267 1.075l.8 2.15 2-.672c.932-.403 1.865.134 2.265 1.075z"/><path fill="none" d="M0 0h146v100H0z"/></symbol><symbol viewBox="0 0 146 100" id="info-streak-half"><path fill="#F8C194" d="M83.395 87.658s-7.953-7.03-1.076-16.4c3.871-5.276 14.832-6.598 12.4-13.067 8.901 4.035 9.773 24.97-11.324 29.467M39.41 54.11a1.11 1.11 0 01-1.02-1.2c.14-1.74.47-3.46.98-5.14.08-.25.35-1.08.44-1.33.38-1.06.84-2.13 1.38-3.19a1.11 1.11 0 111.98 1.01c-.49.97-.92 1.96-1.26 2.93a22.55 22.55 0 00-1.3 5.9c-.05.58-.54 1.02-1.11 1.02h-.09m6.31-14.89c-.23 0-.46-.07-.66-.21-.49-.37-.6-1.07-.23-1.56.27-.37.54-.73.82-1.08.222-.286.552-.435.884-.435.237 0 .476.076.676.235.49.37.58 1.07.2 1.56-.27.34-.53.69-.79 1.04-.22.3-.56.45-.9.45M72.22 92s-20.593-6.102-21.677-24.407C49.46 49.288 68.968 43.186 68.968 32c0 0 13.006 14.238 3.252 30.509-9.755 16.27 0 29.49 0 29.49M48.63 35.57c-.25 0-.51-.09-.72-.26-.47-.4-.53-1.1-.13-1.57.84-1.01 1.7-2 2.55-2.98.61-.7 1.21-1.39 1.8-2.09.16-.19.7-.82.86-1.01.78-.95 1.46-1.79 2.05-2.57.217-.287.548-.437.883-.437.236 0 .474.074.677.227.49.37.59 1.07.21 1.56-.61.81-1.3 1.67-2.11 2.64-.16.2-.71.84-.87 1.03-.6.7-1.21 1.4-1.82 2.11-.84.97-1.69 1.95-2.53 2.95-.22.26-.53.4-.85.4m10.88-14.31c-.17 0-.35-.04-.51-.12-.55-.28-.76-.96-.48-1.5.2-.4.39-.79.56-1.16a1.11 1.11 0 011.48-.54c.56.26.8.92.54 1.48-.18.4-.38.81-.6 1.23-.2.39-.59.61-.99.61m1.834-4.294a1.111 1.111 0 01-1.052-1.475c.941-2.749 1.097-4.56 1.098-4.579a1.12 1.12 0 011.197-1.021c.612.049 1.07.582 1.023 1.194-.006.084-.17 2.086-1.213 5.128-.159.462-.59.753-1.053.753M58.512 0a27.54 27.54 0 01.173 3.054c.004 21.49-26.298 29.21-26.298 56.334C32.387 81.816 50.57 100 73 100c22.431 0 40.613-17.346 40.613-40.207 0-27.754-17.959-36.123-17.959-36.123.257 1.677.372 3.242.371 4.7-.01 13.625-10.168 17.953-10.168 17.953C92.593 11.428 58.512 0 58.512 0"/><path fill="#FFD495" d="M68.968 32c0 11.187-19.508 17.288-18.425 35.593C51.627 85.898 72.22 92 72.22 92s-9.755-13.22 0-29.491C81.974 46.237 68.968 32 68.968 32m25.75 26.191c2.433 6.47-8.528 7.792-12.4 13.067-6.876 9.37 1.077 16.4 1.077 16.4 21.097-4.498 20.225-25.432 11.323-29.467"/><path fill="#F9EBDB" d="M62.502 9.887a1.12 1.12 0 00-1.112 1.025c-.001.019-.157 1.83-1.099 4.578a1.111 1.111 0 001.053 1.476c.462 0 .894-.291 1.052-.753 1.044-3.042 1.207-5.044 1.214-5.128a1.113 1.113 0 00-1.108-1.198m-2.414 7.948c-.42 0-.819.238-1.008.645-.17.37-.36.76-.56 1.16-.28.54-.07 1.22.48 1.5a1.113 1.113 0 001.5-.49c.22-.42.42-.83.6-1.23.26-.56.02-1.22-.54-1.48a1.115 1.115 0 00-.472-.105m-13.554 18.1c-.332 0-.662.15-.884.435-.28.35-.55.71-.82 1.08-.37.49-.26 1.19.23 1.56.2.14.43.21.66.21.34 0 .68-.15.9-.45a41 41 0 01.79-1.04c.38-.49.29-1.19-.2-1.56a1.086 1.086 0 00-.676-.235m9.389-11.283c-.335 0-.666.15-.883.438-.59.78-1.27 1.62-2.05 2.57-.16.19-.7.82-.86 1.01-.59.7-1.19 1.39-1.8 2.09-.85.98-1.71 1.97-2.55 2.98-.4.47-.34 1.17.13 1.57a1.111 1.111 0 001.57-.14c.84-1 1.69-1.98 2.53-2.95.61-.71 1.22-1.41 1.82-2.11.16-.19.71-.83.87-1.03.81-.97 1.5-1.83 2.11-2.64.38-.49.28-1.19-.21-1.56a1.122 1.122 0 00-.677-.227M42.182 42.64c-.408 0-.8.227-.992.61-.54 1.06-1 2.13-1.38 3.19-.09.25-.36 1.08-.44 1.33-.51 1.68-.84 3.4-.98 5.14-.05.61.4 1.15 1.02 1.2h.09c.57 0 1.06-.44 1.11-1.02a22.55 22.55 0 011.3-5.9c.34-.97.77-1.96 1.26-2.93a1.115 1.115 0 00-.988-1.62"/><path fill="#F2842A" d="M113.61 59.79C113.61 82.65 95.43 100 73 100S32.39 81.82 32.39 59.39c0-3.41.42-6.52 1.15-9.39h79.25c.52 2.96.82 6.21.82 9.79z"/><path fill="#FFA92C" d="M72.22 62.51c-9.58 15.99-.33 29.03-.01 29.48-.63-.18-20.6-6.38-21.67-24.4-.44-7.53 2.59-12.99 6.33-17.59h18.98c-.02 3.86-.99 8.11-3.63 12.51zm22.498-4.319c8.902 4.036 9.774 24.97-11.323 29.467 0 0-7.952-7.03-1.076-16.4 3.872-5.276 14.832-6.598 12.4-13.067z"/><path fill="#F4D8B8" d="M41.09 50c-.24 1.02-.39 2.05-.48 3.09-.05.58-.54 1.02-1.11 1.02h-.09a1.11 1.11 0 01-1.02-1.2c.08-.98.22-1.95.42-2.91h2.28z"/><path fill="#FB565F" d="M124.84 19.232a4.272 4.272 0 01-3.004-1.271c-.848-.854-1.26-1.842-1.26-3.02.14-1.17.535-2.113 1.21-2.965l.05-.056c.848-.856 1.832-1.272 3.004-1.272 1.107 0 2.202.464 3.004 1.272.847.854 1.26 1.843 1.26 3.02a4.333 4.333 0 01-1.26 3.02c-.849.856-1.832 1.272-3.004 1.272zm-2.036-6.403a4.28 4.28 0 00-.905 2.193c.005.74.283 1.403.878 2.003.547.551 1.318.88 2.063.88.811 0 1.467-.28 2.062-.88a3.033 3.033 0 00.873-2.085c0-.82-.277-1.483-.874-2.085-.546-.55-1.316-.879-2.061-.879-.8 0-1.447.272-2.036.853z"/><path fill="#FADE4D" d="M30.389 93.019c-.762 0-1.308-.248-1.667-.758-.33-.358-.665-1.016-.665-1.588 0-.269.054-1.169.749-1.674.362-.34 1.005-.673 1.583-.673.762 0 1.308.248 1.668.758.33.357.665 1.016.665 1.589 0 .764-.245 1.311-.75 1.674-.363.34-1.005.672-1.583.672zm0-3.494c-.206 0-.597.182-.774.36l-.091.076c-.184.123-.268.455-.268.712 0 .214.178.603.36.786l.075.092c.088.136.216.268.698.268.21 0 .594-.178.774-.36l.09-.075c.13-.087.27-.22.27-.711 0-.215-.178-.605-.36-.787l-.075-.092c-.089-.136-.217-.269-.7-.269z"/><path fill="#C699F2" d="M119.701 39.915c.533-.537 1.2-.806 1.999-.806.8 0 1.467.269 2 .806.533.538.8 1.21.8 2.016s-.267 1.478-.8 2.015c-.533.538-1.2.807-2 .807-.799 0-1.466-.269-1.999-.807-.534-.537-.8-1.209-.8-2.015 0-.672.266-1.478.8-2.016z"/><path fill="#17DDBA" d="M7.258 74.158c1.067-1.075 2.133-2.553 2.8-3.897.267-.537 0-1.074-.533-1.209a17.472 17.472 0 00-5.2-.806c-.533 0-.933.537-.8 1.075.267 1.478.934 3.09 1.734 4.434.4 1.344 1.066 1.344 2 .403z"/><path fill="#FADE4D" d="M124.973 75.17c.133-.94.933-1.746 1.999-1.746l2.133.134.133-2.284c.134-.94.934-1.747 2-1.747a2.03 2.03 0 011.733 2.016l-.133 2.284 2.133.134a2.03 2.03 0 011.733 2.016c-.134.94-.933 1.747-2 1.747l-2.133-.135-.133 2.285c-.133.94-.933 1.746-2 1.746a2.03 2.03 0 01-1.733-2.015l.134-2.284-2.133-.135c-1.067-.134-1.867-.94-1.733-2.015z"/><path fill="#00A2FF" d="M38.32 16.04c.4.941-.133 2.016-1.066 2.285l-2 .672.8 2.15c.4.94-.133 2.015-1.066 2.284-.933.403-2-.134-2.267-1.075l-.8-2.15-2 .672c-.932.403-1.999-.134-2.265-1.075-.4-.94.133-2.016 1.066-2.284l2-.672-.8-2.15c-.4-.94.133-2.016 1.066-2.284a1.68 1.68 0 012.267 1.075l.8 2.15 2-.672c.932-.403 1.865.134 2.265 1.075z"/><path fill="none" d="M0 0h146v100H0z"/></symbol><symbol viewBox="0 0 25 25" id="lessons-menu"><path d="M0 2.5C0 1.1 1.1 0 2.5 0S5 1.1 5 2.5 3.9 5 2.5 5 0 3.9 0 2.5zm0 10C0 11.1 1.1 10 2.5 10S5 11.1 5 12.5 3.9 15 2.5 15 0 13.9 0 12.5zm0 10C0 21.1 1.1 20 2.5 20S5 21.1 5 22.5 3.9 25 2.5 25 0 23.9 0 22.5zm10-20C10 1.1 11.1 0 12.5 0S15 1.1 15 2.5 13.9 5 12.5 5 10 3.9 10 2.5zm0 10c0-1.4 1.1-2.5 2.5-2.5s2.5 1.1 2.5 2.5-1.1 2.5-2.5 2.5-2.5-1.1-2.5-2.5zm0 10c0-1.4 1.1-2.5 2.5-2.5s2.5 1.1 2.5 2.5-1.1 2.5-2.5 2.5-2.5-1.1-2.5-2.5zm10-20C20 1.1 21.1 0 22.5 0S25 1.1 25 2.5 23.9 5 22.5 5 20 3.9 20 2.5zm0 10c0-1.4 1.1-2.5 2.5-2.5s2.5 1.1 2.5 2.5-1.1 2.5-2.5 2.5-2.5-1.1-2.5-2.5zm0 10c0-1.4 1.1-2.5 2.5-2.5s2.5 1.1 2.5 2.5-1.1 2.5-2.5 2.5-2.5-1.1-2.5-2.5z"/></symbol><symbol viewBox="0 0 32 32" id="locked"><path d="M20.8 10.7h-9.7v-3c0-2.6 2.2-4.7 4.8-4.7 2.7 0 4.8 2.1 4.8 4.7v3zM16 24.4c-1.7 0-3.1-1.4-3.1-3 0-1.7 1.4-3 3.1-3s3.1 1.4 3.1 3-1.4 3-3.1 3zm9.4-13.7h-1.6v-3C23.8 3.4 20.4 0 16 0S8.2 3.4 8.2 7.6v3H6.6c-1.7 0-3.1 1.4-3.1 3V29c0 1.7 1.4 3 3.1 3h18.8c1.7 0 3.1-1.4 3.1-3V13.7c0-1.7-1.4-3-3.1-3z"/></symbol><symbol viewBox="0 0 36 36" id="logo-telegram-footer"><path fill-rule="evenodd" clip-rule="evenodd" d="M18 0C8.055 0 0 8.055 0 18s8.055 18 18 18 18-8.055 18-18S27.945 0 18 0zm6.3 25.177c-.247 1.35-.743 1.812-1.226 1.845-1.046.102-1.834-.686-2.846-1.35-1.587-1.035-2.487-1.687-4.028-2.7-1.766-1.17-.619-1.81.394-2.868.27-.27 4.871-4.455 4.96-4.838.012-.045.023-.225-.09-.315-.1-.1-.258-.067-.37-.045-.158.045-2.69 1.71-7.594 5.018-.709.495-1.361.742-1.946.72-.642-.012-1.88-.36-2.802-.653-1.125-.371-2.025-.562-1.946-1.192.045-.315.495-.653 1.339-.99 5.254-2.284 8.752-3.792 10.496-4.523 5.007-2.081 6.041-2.441 6.716-2.452.147 0 .484.033.698.213.18.147.236.35.259.484.022.146.056.461.033.709-.27 2.846-1.45 9.754-2.047 12.937z"/></symbol><symbol viewBox="0 0 32 32" id="logo-telegram-header"><path fill-rule="evenodd" clip-rule="evenodd" d="M5.218 14.56c6.711-2.924 11.186-4.852 13.425-5.783 6.393-2.66 7.722-3.12 8.588-3.136.19-.003.616.044.892.267.233.19.297.445.327.624.031.179.07.587.039.906-.347 3.64-1.846 12.474-2.608 16.55-.323 1.726-.958 2.304-1.573 2.361-1.337.123-2.352-.883-3.647-1.732-2.026-1.328-3.17-2.155-5.137-3.451-2.273-1.498-.8-2.321.495-3.667.34-.352 6.23-5.71 6.344-6.195.014-.061.027-.288-.107-.407-.135-.12-.334-.079-.477-.046-.203.046-3.44 2.185-9.71 6.418-.919.63-1.751.938-2.497.922-.822-.018-2.403-.465-3.578-.847-1.442-.469-2.588-.717-2.488-1.512.052-.415.623-.839 1.712-1.272z"/></symbol><symbol viewBox="0 0 58 58" id="new-test-es_ES"><path fill-rule="evenodd" clip-rule="evenodd" fill="#F8CB4A" d="M0 5.305h13.232L6.303 0H4.255S.469.128 0 5.305zM52.695 58l-.006-14.9 5.307 8.593.004 2.052s-.126 3.784-5.305 4.256z"/><path fill-rule="evenodd" clip-rule="evenodd" fill="#FADE4D" d="M5.834 0h39.1s10.672 2.048 13.062 13.314v38.49S47.068 30.557 5.834 0z"/><path d="M34.497 5.32c.001.643-.284 1.26-.854 1.852-.57.59-1.175.896-1.816.915-.64.02-1.248-.25-1.822-.804l-.483-.465-1.718 1.78-1.125-1.084 5.346-5.542 1.607 1.551c.575.554.864 1.154.865 1.797zm-2.764 1.17c.248-.025.5-.17.755-.434.259-.27.397-.528.414-.778.015-.249-.09-.483-.317-.702l-.467-.45-1.565 1.623.466.45c.227.22.465.316.714.29zm2.314 4.54l-.396-.382-1.795 1.86-1.124-1.084 5.346-5.541 1.607 1.55c.55.53.822 1.105.817 1.727-.004.623-.286 1.224-.847 1.805-.361.375-.74.634-1.133.78-.394.144-.786.17-1.177.079l-.98 3.106-1.226-1.184.908-2.716zm.635-1.45l.467.45c.201.194.417.274.647.241.23-.032.465-.172.704-.42.244-.254.379-.496.403-.728.025-.23-.063-.443-.264-.637l-.467-.45-1.49 1.543zm.925 5.76c.006-.641.295-1.257.865-1.848l1.879-1.948c.57-.59 1.175-.901 1.815-.931.64-.03 1.242.227 1.807.772.564.545.844 1.139.837 1.779-.007.64-.295 1.257-.865 1.848l-1.879 1.947c-.57.59-1.175.901-1.815.93-.64.031-1.243-.227-1.807-.772-.565-.544-.845-1.137-.837-1.778zm2.56.941c.236-.033.48-.181.735-.445l1.88-1.947c.254-.264.393-.514.417-.75.025-.237-.07-.457-.28-.66s-.435-.29-.67-.257c-.235.033-.48.181-.734.445l-1.88 1.948c-.254.263-.393.513-.418.75-.024.236.07.457.28.66.211.204.435.29.67.256zm6.334-2.273l1.109 1.07-1.27 3.422a23.31 23.31 0 01-.313.721l-.313.723.047-.002c.278-.384.603-.798.977-1.243s.69-.802.949-1.07l1.237-1.284 1.109 1.07-5.347 5.541-1.108-1.07 1.136-3.045.807-1.835-.046.001a26.48 26.48 0 01-1.043 1.287c-.412.479-.773.88-1.084 1.2l-1.085 1.125-1.108-1.069 5.346-5.542zm6.435 8.271l-1.085-1.046-4.314 4.472-1.156-1.115 4.314-4.473-1.084-1.046 1.03-1.068 3.326 3.207-1.03 1.069zm-2.996 4.959c.007-.641.296-1.257.866-1.848l1.879-1.947c.57-.592 1.175-.902 1.815-.932.64-.03 1.242.227 1.807.773.564.544.844 1.138.837 1.778-.007.641-.295 1.256-.865 1.847L52.4 28.857c-.57.591-1.175.902-1.815.931-.64.03-1.243-.228-1.807-.772-.565-.546-.845-1.138-.837-1.778zm2.561.942c.236-.033.48-.182.735-.445l1.879-1.948c.254-.264.394-.514.418-.75.024-.236-.07-.457-.28-.66-.211-.204-.435-.29-.67-.257-.235.033-.48.182-.735.446l-1.878 1.947c-.255.264-.394.514-.419.75-.024.237.07.457.28.66s.435.29.67.257z" fill="#434D66"/><path fill="none" d="M0 0h58v58H0z"/></symbol><symbol viewBox="0 0 58 58" id="new-test-it_IT"><path fill-rule="evenodd" clip-rule="evenodd" fill="#F8CB4A" d="M0 5.305h13.232L6.303 0H4.255S.469.128 0 5.305zM52.695 58l-.006-14.9 5.307 8.593.004 2.052s-.126 3.784-5.305 4.256z"/><path fill-rule="evenodd" clip-rule="evenodd" fill="#FADE4D" d="M5.834 0h39.1s10.672 2.048 13.062 13.314v38.49S47.068 30.557 5.834 0z"/><path d="M29.597 1.868l1.022.986-4.86 5.038-1.021-.986 4.86-5.038zm1.915 1.848l1.007.971-1.153 3.111c-.077.186-.172.404-.285.656l-.286.656.043-.001c.253-.348.549-.725.889-1.13.339-.404.626-.73.862-.974l1.125-1.166 1.008.973-4.86 5.037-1.008-.972 1.033-2.769.733-1.668h-.042c-.258.345-.574.735-.948 1.17-.374.436-.703.8-.985 1.093l-.986 1.022-1.007-.972 4.86-5.037zm3.35 11.346l-1.064-1.027-.972.674-1.057-1.02 6.069-3.871 1.094 1.055-3.652 6.204-1.057-1.02.64-.995zm.736-1.166l.44-.687c.29-.434.667-.96 1.132-1.576l-.029-.028c-.706.569-1.218.965-1.534 1.188l-.671.464.662.639zm3.164 3.274l-.36-.347-1.631 1.691-1.023-.985 4.86-5.038 1.462 1.41c.5.481.746 1.004.742 1.57-.004.566-.26 1.113-.77 1.64-.328.341-.672.577-1.03.709-.358.13-.715.155-1.07.071l-.89 2.824-1.115-1.076.825-2.468zm.577-1.318l.425.41c.182.175.378.249.588.219.209-.03.422-.157.64-.383.222-.23.344-.45.367-.66.021-.21-.059-.405-.241-.58l-.425-.41-1.354 1.404zm3.209 4.97l-.36-.347-1.632 1.691-1.022-.986 4.86-5.037 1.462 1.41c.499.48.745 1.004.742 1.57-.005.565-.26 1.113-.77 1.64-.329.341-.673.577-1.03.708a1.833 1.833 0 01-1.071.072l-.89 2.824-1.115-1.076.826-2.469zm.577-1.318l.424.409c.183.176.379.25.588.219.21-.03.423-.157.64-.382.223-.23.345-.451.367-.661.022-.21-.059-.404-.241-.58l-.424-.409-1.354 1.404zm5.055.291l1.022.985-4.86 5.038-1.022-.986 4.86-5.037zm1.49 1.437l1.058 1.02-1.845 2.82c-.266.41-.647.945-1.145 1.604l.028.028a29.229 29.229 0 011.563-1.202l2.751-1.945 1.058 1.02-6.054 3.886-1.08-1.041 3.666-6.19zm-.279 8.742c.007-.582.268-1.142.787-1.68l1.708-1.77c.519-.538 1.068-.82 1.65-.847.582-.026 1.13.207 1.644.703.513.495.767 1.034.76 1.617-.006.582-.268 1.141-.786 1.678l-1.708 1.77c-.519.539-1.069.821-1.65.848-.582.027-1.13-.207-1.643-.702-.514-.496-.767-1.035-.762-1.617zm2.329.856c.213-.03.436-.164.668-.403l1.708-1.771c.231-.24.357-.468.38-.683.021-.215-.063-.415-.255-.6s-.394-.262-.608-.233c-.214.03-.437.165-.669.405l-1.708 1.77c-.231.24-.358.468-.38.682-.022.216.062.415.255.6.192.185.394.263.609.233z" fill="#434D66"/><path fill="none" d="M0 0h58v58H0z"/></symbol><symbol viewBox="0 0 58 58" id="new-test-ro_RO"><path fill-rule="evenodd" clip-rule="evenodd" fill="#F8CB4A" d="M0 5.305h13.232L6.303 0H4.255S.469.128 0 5.305zM52.695 58l-.006-14.9 5.307 8.593.004 2.052s-.126 3.784-5.305 4.256z"/><path fill-rule="evenodd" clip-rule="evenodd" fill="#FADE4D" d="M5.834 0h39.1s10.672 2.048 13.062 13.314v38.49S47.068 30.557 5.834 0z"/><path d="M27.49 7.437c0-.597.277-1.183.832-1.758L30.4 3.526c.56-.581 1.141-.881 1.742-.903s1.174.23 1.717.755c.555.535.833 1.101.836 1.7s-.267 1.202-.811 1.808L32.76 5.802c.228-.27.346-.507.352-.715.007-.207-.097-.415-.314-.624-.359-.347-.768-.282-1.226.193l-2.077 2.153c-.448.465-.493.87-.134 1.217.217.209.431.308.644.299.212-.01.443-.127.693-.355l1.125 1.085c-.57.57-1.158.86-1.763.867-.604.009-1.187-.26-1.753-.804-.543-.524-.815-1.085-.815-1.681zm4.1 3.893c.01-.627.294-1.232.854-1.812l3.643-3.777 1.148 1.108-3.643 3.776c-.244.254-.379.493-.403.719-.024.227.06.434.256.622s.406.266.63.233c.226-.032.46-.175.704-.428l3.643-3.777 1.148 1.108-3.642 3.776c-.56.58-1.154.887-1.781.92-.627.03-1.212-.215-1.756-.74-.543-.524-.81-1.1-.801-1.728zm6.836 3.775l-.396-.382-1.795 1.86-1.123-1.084 5.345-5.542 1.608 1.551c.549.53.82 1.105.816 1.728-.003.623-.286 1.224-.846 1.804-.362.375-.74.635-1.133.78-.395.144-.787.17-1.177.08l-.979 3.105-1.227-1.184.907-2.716zm.636-1.45l.466.45c.202.194.417.274.647.241.23-.032.465-.172.705-.42.244-.254.378-.496.402-.728.025-.23-.063-.443-.264-.637l-.467-.45-1.49 1.543zm3.15 6.92l-1.172-1.13-1.068.743-1.163-1.123 6.675-4.259 1.203 1.161-4.015 6.825-1.164-1.122.704-1.095zm.809-1.282l.485-.756c.317-.477.732-1.055 1.244-1.733l-.032-.03a37.41 37.41 0 01-1.688 1.305l-.737.511.728.703zm3.917-4.108l.171-.859-.86.195-.705-.68 1.688-.467.816.787-.405 1.704-.705-.68zm1.594 2.562l1.109 1.07-1.27 3.421c-.084.205-.188.445-.312.722l-.314.722.046-.002c.279-.383.604-.798.978-1.242.373-.445.69-.802.948-1.072l1.238-1.282 1.108 1.07-5.346 5.541-1.109-1.07 1.136-3.046.807-1.835-.046.002a25.86 25.86 0 01-1.043 1.286c-.412.479-.773.88-1.083 1.202l-1.084 1.124-1.109-1.07 5.346-5.54zm4.512 4.353l1.52 1.467c.56.54.84 1.12.841 1.743.001.622-.279 1.223-.84 1.804l-1.763 1.829c-.57.59-1.169.903-1.796.934-.627.032-1.218-.219-1.772-.754l-1.536-1.482 5.346-5.541zm-2.778 5.955c.2.193.42.272.657.237s.484-.185.74-.449l1.763-1.83c.244-.252.376-.495.395-.726.02-.23-.07-.443-.271-.636l-.412-.397-3.284 3.403.412.398z" fill="#434D66"/><path fill="none" d="M0 0h58v58H0z"/></symbol><symbol fill="none" viewBox="0 0 48 48" id="no-category"><path d="M21.497 32.122h4.29v-1.903c0-6.418 6.213-7.17 6.213-14.34C32 11.186 28.693 8 24 8s-7.732 3.275-8 8.498h4.201c.09-2.877 1.52-4.515 3.844-4.515 2.413 0 3.664 1.727 3.664 3.94 0 5.62-6.212 6.24-6.212 14.207v1.992zM23.732 40c1.609 0 2.681-1.062 2.681-2.7 0-1.593-1.072-2.655-2.681-2.655-1.654 0-2.726 1.062-2.726 2.655 0 1.638 1.072 2.7 2.726 2.7z" fill="#D2D4D7"/></symbol><symbol viewBox="0 0 24 24" id="phone-icon"><path d="M6.377 5.883c.313-.77.81-1.463 1.451-1.976.696-.557 1.692-1.185 2.6-.776.251.113.455.295.613.518.108.152.195.325.263.515.014.04.607 1.97.826 2.908.147.63.036 1.063-.355 1.406a2.262 2.262 0 01-.45.299c-.42.219-.857.403-1.295.585l-.183.076-.515.2.189.557c1.015 2.923 2.607 5.461 4.786 7.608l.357.393.45-.44c.342-.373.674-.764 1.063-1.078.685-.554 1.223-.586 1.916-.047.815.633 1.618 1.296 2.337 2.039.794.82.738 1.606-.04 2.445-.674.726-1.51 1.145-2.466 1.323-1.232.23-2.632-.202-3.71-.848a16.353 16.353 0 01-2.55-1.878l-1.075-1.066c-1.92-2.093-3.244-4.656-4.095-7.57-.473-1.622-.769-3.593-.117-5.193z"/></symbol><symbol viewBox="0 0 20 20" id="plus"><path d="M11.6 0H8.4v8.4H0v3.2h8.4V20h3.2v-8.4H20V8.4h-8.4V0z"/></symbol><symbol viewBox="0 0 32 32" id="search-icon"><path class="bkst0" d="M31 26.8l-8.5-8.5c1.1-1.6 1.8-3.5 1.8-5.6C24.3 7.3 20 3 14.7 3 9.3 3 5 7.3 5 12.7c0 5.3 4.3 9.7 9.7 9.7 2.1 0 4-.7 5.6-1.8l8.5 8.5 2.2-2.3zM14.5 19C10.9 19 8 16.1 8 12.5S10.9 6 14.5 6 21 8.9 21 12.5 18.1 19 14.5 19z"/></symbol><symbol viewBox="0 0 24 24" id="settings"><path d="M19 5a1.001 1.001 0 010 2 1.001 1.001 0 010-2zm0 4c1.654 0 3-1.346 3-3s-1.346-3-3-3a2.993 2.993 0 00-2.815 2H2v2h14.185A2.993 2.993 0 0019 9zM9 13a1.001 1.001 0 010-2 1.001 1.001 0 010 2zm0-4a2.993 2.993 0 00-2.815 2H2v2h4.185A2.993 2.993 0 009 15a2.993 2.993 0 002.815-2H22v-2H11.815A2.993 2.993 0 009 9zm10 10a1.001 1.001 0 010-2 1.001 1.001 0 010 2zm0-4a2.993 2.993 0 00-2.815 2H2v2h14.185A2.993 2.993 0 0019 21c1.654 0 3-1.346 3-3s-1.346-3-3-3z"/></symbol><symbol viewBox="0 0 32 32" id="social-icon-circle-facebook"><path d="M32 16c0-8.837-7.163-16-16-16S0 7.163 0 16c0 7.986 5.851 14.605 13.5 15.806V20.625H9.437V16H13.5v-3.525c0-4.01 2.389-6.225 6.043-6.225 1.751 0 3.582.313 3.582.313V10.5h-2.018c-1.987 0-2.607 1.233-2.607 2.499V16h4.438l-.71 4.625H18.5v11.18C26.149 30.606 32 23.987 32 16z"/></symbol><symbol viewBox="0 0 36 36" id="social-icon-circle-instagram"><path d="M29.5 22.6c-.1 1.2-.2 2-.5 2.7-.3.7-.7 1.3-1.3 1.9-.6.6-1.2 1-1.9 1.3-.7.3-1.5.5-2.7.5h-4.5c-3 0-3.3 0-4.5-.1-1.2-.1-2-.2-2.7-.5-.7-.3-1.3-.7-1.9-1.3-.6-.6-1-1.2-1.3-1.9-.3-.7-.5-1.5-.5-2.7-.1-1.2-.1-1.5-.1-4.5s0-3.4.1-4.5c.1-1.2.2-2 .5-2.7.3-.7.7-1.3 1.3-1.9.6-.6 1.2-1 1.9-1.3.7-.3 1.5-.5 2.7-.5 1.2-.1 1.5-.1 4.5-.1s3.3 0 4.5.1c1.2.1 2 .2 2.7.5.7.3 1.3.7 1.9 1.3.6.6 1 1.2 1.3 1.9.3.7.5 1.5.5 2.7.1 1.2.1 1.5.1 4.5s0 3.4-.1 4.6zM18 0C8.1 0 0 8.1 0 18s8.1 18 18 18 18-8.1 18-18S27.9 0 18 0z"/><path d="M24.5 13.5c-.7 0-1.3-.6-1.3-1.3 0-.7.6-1.3 1.3-1.3.7 0 1.3.6 1.3 1.3 0 .7-.6 1.3-1.3 1.3zm-5.9 10.2c-3.1 0-5.6-2.5-5.6-5.6 0-3.1 2.5-5.6 5.6-5.6 3.1 0 5.6 2.5 5.6 5.6 0 3-2.5 5.6-5.6 5.6zm8.6-12.2c-.2-.5-.4-.9-.8-1.3s-.7-.6-1.3-.8c-.4-.2-1-.3-2-.4h-4.5c-2.9 0-3.3 0-4.4.1-1.1 0-1.6.2-2 .4-.5.2-.9.4-1.3.8s-.6.7-.8 1.3c-.2.4-.3 1-.4 2-.1 1.2-.1 1.5-.1 4.4s0 3.3.1 4.4c0 1.1.2 1.7.4 2 .2.5.4.9.8 1.3s.7.6 1.3.8c.4.2 1 .3 2 .4 1.2.1 1.5.1 4.4.1s3.3 0 4.4-.1c1.1 0 1.6-.2 2-.4.5-.2.9-.4 1.3-.8s.6-.7.8-1.3c.2-.4.3-1 .4-2 .1-1.2.1-1.5.1-4.4s0-3.3-.1-4.4c0-1.1-.2-1.7-.3-2.1z"/><path d="M18.6 14.4c-2 0-3.6 1.6-3.6 3.7s1.6 3.7 3.6 3.7 3.6-1.6 3.6-3.7-1.5-3.7-3.6-3.7z"/></symbol><symbol viewBox="0 0 146 100" id="streak-big-gift"><path fill="#FB565F" d="M123.538 19.232c-.77 0-1.53-.322-2.087-.883-.589-.593-.875-1.28-.875-2.098.098-.812.372-1.468.84-2.06l.035-.039c.59-.594 1.273-.883 2.087-.883.77 0 1.53.322 2.087.883.589.594.875 1.28.875 2.099a3.01 3.01 0 01-.875 2.098c-.59.594-1.273.883-2.087.883zm-1.414-4.448a2.973 2.973 0 00-.629 1.524c.004.514.196.974.61 1.391.38.383.915.61 1.433.61.564 0 1.02-.193 1.433-.61.38-.383.606-.925.606-1.448 0-.57-.192-1.03-.607-1.449a2.065 2.065 0 00-1.432-.61c-.555 0-1.005.188-1.414.592z"/><path fill="#17DDBA" d="M7.258 74.158c1.067-1.075 2.133-2.553 2.8-3.897.267-.537 0-1.074-.533-1.209a17.472 17.472 0 00-5.2-.806c-.533 0-.933.537-.8 1.075.267 1.478.934 3.09 1.734 4.434.4 1.344 1.066 1.344 2 .403z"/><path fill="#FADE4D" d="M124.973 51.17c.133-.94.933-1.746 1.999-1.746l2.133.134.133-2.284c.134-.94.934-1.747 2-1.747a2.03 2.03 0 011.733 2.016l-.133 2.284 2.133.134a2.03 2.03 0 011.733 2.016c-.134.94-.933 1.747-2 1.747l-2.133-.135-.133 2.285c-.133.94-.933 1.746-2 1.746a2.03 2.03 0 01-1.733-2.015l.134-2.284-2.133-.135c-1.067-.134-1.867-.94-1.733-2.015z"/><path fill="#00A2FF" d="M38.32 16.04c.4.941-.133 2.016-1.066 2.285l-2 .672.8 2.15c.4.94-.133 2.015-1.066 2.284-.933.403-2-.134-2.267-1.075l-.8-2.15-2 .672c-.932.403-1.999-.134-2.265-1.075-.4-.94.133-2.016 1.066-2.284l2-.672-.8-2.15c-.4-.94.133-2.016 1.066-2.284a1.68 1.68 0 012.267 1.075l.8 2.15 2-.672c.932-.403 1.865.134 2.265 1.075z"/><path fill="none" d="M0 0h146v100H0z"/><path fill="#C699F2" d="M134.558 85.78c.438-.442.986-.663 1.642-.663.657 0 1.205.221 1.643.662.438.442.657.994.657 1.656 0 .662-.22 1.214-.657 1.655-.438.442-.986.663-1.643.663-.656 0-1.204-.221-1.642-.662-.438-.442-.657-.994-.657-1.656 0-.552.218-1.214.657-1.656z"/><path fill="#F2842A" d="M121.397 63.537s-8.27-4.959-15.445 3.588c-8.889 10.589-1.749 24.746-11.17 30.17 6.608 5.009 30.993 2.73 25.364-20.578-2.678-11.086 1.251-13.18 1.251-13.18z"/><path fill="#FFA92C" d="M95.21 96.123s13.242-1.766 13.242-14.125c0-9.712 2.65-9.712 2.65-9.712s-8.83-1.765-11.478 6.18c-2.648 7.946-4.414 17.657-4.414 17.657z"/><path fill="#F2842A" d="M95.201 20.227c2.268 14.828-8.372 19.36-8.372 19.36C92.586 9.768 63.46 0 63.46 0c2.266 20.403-22.325 26.507-22.325 50.752 0 19.168 15.539 34.708 34.708 34.708 19.169 0 34.707-14.824 34.707-34.36 0-23.72-15.348-30.873-15.348-30.873"/><path fill="#FFA92C" d="M77.284 78.623S56.627 72.502 55.54 54.139c-1.087-18.364 18.483-24.485 18.483-35.706 0 0 13.047 14.282 3.262 30.604-9.785 16.323 0 29.586 0 29.586"/><path fill="#F4AF40" d="M94.401 49.73c7.609 3.449 8.354 21.338-9.676 25.182 0 0-6.796-6.009-.92-14.016 3.31-4.508 12.676-5.638 10.596-11.167"/><path fill="#F4D8B8" d="M65.88 14.499a.95.95 0 01-.9-1.26c.806-2.35.939-3.898.939-3.914a.957.957 0 011.023-.873.953.953 0 01.875 1.022c-.005.071-.145 1.782-1.038 4.382a.951.951 0 01-.9.643zm-.67.832a.95.95 0 00-1.265.462c-.145.316-.307.65-.478.991a.952.952 0 00.41 1.282.953.953 0 001.282-.419c.188-.359.359-.709.513-1.05a.951.951 0 00-.462-1.266zm-11.408 15.58a.944.944 0 00-1.333.171c-.24.299-.47.606-.701.923a.954.954 0 00.196 1.333c.17.119.368.18.564.18a.95.95 0 00.769-.385c.223-.299.444-.599.676-.889a.944.944 0 00-.171-1.333zm8.204-8.315a57.628 57.628 0 01-1.804 2.256c-.137.17-.606.717-.743.88-.513.598-1.034 1.197-1.556 1.803-.718.83-1.444 1.666-2.162 2.52a.948.948 0 11-1.452-1.221c.718-.863 1.452-1.709 2.179-2.547.521-.598 1.034-1.187 1.538-1.786.136-.162.598-.7.735-.863a73.204 73.204 0 001.752-2.197.952.952 0 011.513 1.155z"/><path fill="#F2842A" d="M36.941 51.098s0 6.18 9.52 9.192c15.824 5.006 2.1 29.71 13.41 36.22-6.118 7.659-41.166 1.994-34.407-25.99C28.679 57.213 36.94 51.099 36.94 51.099z"/><path fill="#FFA92C" d="M37.056 69.763c3.417 9.587 23.481 9.467 20.191 27.244-24.817.36-23.837-22.072-20.191-27.244z"/><path fill="#00A2FF" d="M102.137 56.898H50.07V100h52.066V56.898"/><path fill="#00A2FF" d="M102.137 58.009H50.07v2.79h52.066v-2.79"/><path fill="#008DFF" d="M72.763 58.014H50.07v2.785h22.692v-2.785m29.374 0H79.585v2.785h22.552v-2.785"/><path fill="#35DDBA" d="M56.614 47.97s3.48-14.645 16.984-1.255v1.256H56.614m39.119-.001s-3.48-14.645-16.984-1.255v1.256h16.984"/><path fill="#35DDBA" d="M76.104 50.76a2.787 2.787 0 002.785-2.79 2.787 2.787 0 00-2.785-2.79 2.787 2.787 0 00-2.785 2.79 2.787 2.787 0 002.785 2.79"/><path fill="#35DDBA" d="M76.104 45.18a2.784 2.784 0 00-2.785 2.79h3.648l.802-2.236a2.77 2.77 0 00-1.665-.553"/><path fill="#29D5AB" d="M76.104 45.18a2.784 2.784 0 00-2.785 2.79h3.648l.802-2.236a2.77 2.77 0 00-1.665-.553"/><path fill="#00A2FF" d="M103.25 58.014H48.959c-.974 0-1.67-.697-1.67-1.674v-6.696c0-.976.696-1.673 1.67-1.673h54.293c.974 0 1.67.697 1.67 1.673v6.696c0 .976-.696 1.674-1.67 1.674"/><path fill="#35DDBA" d="M102.456 80.956v-6.834h-52.76v6.834h52.76"/><path fill="#35DDBA" d="M79.585 47.97h-6.822v52.028h6.822V47.971"/><path fill="#35DDBA" d="M79.585 47.97h-3.411v52.028h3.411V47.971"/><path fill="#29D5AB" d="M79.585 47.97h-3.411v52.028h3.411V47.971"/><path fill="#00D1FF" d="M58.285 50.432h-8.63a.915.915 0 00-.593.197c-.187.151-.296.408-.292.687.002.25.116.46.269.616a.883.883 0 00.616.269h8.63a.884.884 0 00.615-.27.888.888 0 00.27-.615.887.887 0 00-.27-.615.88.88 0 00-.615-.27m5.429.001h-2.228a.918.918 0 00-.592.197c-.186.151-.296.408-.291.687.002.25.116.46.27.616a.88.88 0 00.613.269h2.228a.88.88 0 00.613-.27.886.886 0 00.27-.615.883.883 0 00-.27-.615.88.88 0 00-.613-.27"/></symbol><symbol viewBox="0 0 16 16" id="streak-small-gift"><path d="M11.5 7h-1.12c.16-.04.31-.08.44-.13.16-.07.33-.16.46-.3.15-.16.24-.39.22-.67-.02-.24-.13-.46-.26-.65-.13-.2-.32-.41-.56-.64-.38-.37-.75-.59-1.11-.61-.38-.02-.69.17-.94.46-.23.29-.41.67-.56 1.07-.03.07-.05.14-.07.21-.02-.07-.04-.14-.07-.21-.15-.4-.33-.78-.56-1.07-.25-.29-.56-.48-.94-.46-.36.02-.73.24-1.11.61-.24.23-.43.44-.56.64-.13.19-.24.41-.26.65-.02.28.07.51.22.67.13.14.3.23.46.3.13.05.28.09.44.13H4.5c-.55 0-1 .45-1 1v1h4V7h1v2h4V8c0-.55-.45-1-1-1zm-4.71-.65c-.1-.02-.19-.03-.28-.05-.48-.07-.86-.14-1.11-.24-.1-.04-.16-.08-.19-.1.01-.04.04-.09.09-.17.09-.13.24-.3.46-.52.32-.31.55-.41.71-.41.14-.01.27.05.41.22.14.17.28.44.42.81.06.17.12.36.19.57-.25-.04-.48-.08-.7-.11zm1.91-.46c.14-.37.28-.64.42-.81.14-.17.27-.23.41-.22.16 0 .39.1.71.41.22.22.37.39.46.52.05.08.08.13.09.17a.97.97 0 01-.19.1c-.25.1-.63.17-1.11.24-.09.02-.18.03-.28.05-.22.03-.45.07-.7.11.07-.21.13-.4.19-.57zM7.5 10v2h-3c-.55 0-1-.45-1-1v-1h4zm5 0v1c0 .55-.45 1-1 1h-3v-2h4z" fill="#FADE4D"/></symbol><symbol viewBox="0 0 64 64" id="success-checkmark"><circle fill="#FFF" cx="32" cy="32" r="32"/><path d="M26.9 51L8 31.7l7.2-7.3 11.7 11.9L48.8 14l7.2 7.3L26.9 51z"/></symbol><symbol viewBox="0 0 168 168" id="verification-code-success"><defs><path id="bra" d="M168 168H0V0h168v168"/></defs><clipPath id="brb"><use xlink:href="#bra" overflow="visible"/></clipPath><path clip-path="url(#brb)" fill="#16DDBA" d="M157.887 29.33c-2.041-4.567-5.338-8.158-9.89-10.773-5.82-3.374-11.995-4.179-18.526-2.414-6.5 1.733-11.438 5.51-14.812 11.329-3.343 5.82-4.148 11.98-2.414 18.48 1.764 6.531 5.556 11.484 11.375 14.858 3.15 1.81 6.401 2.862 9.75 3.157 2.839.283 5.749.02 8.73-.79 6.5-1.733 11.422-5.51 14.765-11.328 3.374-5.82 4.195-11.98 2.461-18.48a25.203 25.203 0 00-1.44-4.04z"/><path clip-path="url(#brb)" d="M122.088 18.325a15.614 15.614 0 00-2.46 1.671c-.65.496-1.41 1.177-2.276 2.043l-3.343 4.272-.279.51-.093.094-1.485 2.879-.14.37c-.928 2.23-1.532 4.474-1.81 6.734l-.14 3.575.14 1.81c.185 1.115.278 1.703.278 1.765l.232 1.393.093.186.093.464v.093l.047.046v.093l1.021 3.018c.031.124.263.697.697 1.718a24.746 24.746 0 004.271 6.222l1.347 1.347c.619.557 1.099.96 1.44 1.207l2.507 1.764.139.047.093.093.371.232h.047l.185.093.186.139.418.232 3.668 1.625.232.047.465.185 3.668.883.743.092h.092l.14.047.418.046h.278l.232.047 1.904.046c.371 0 .99-.03 1.857-.093l3.9-.603.186-.093.882-.186.047-.046h.093l.093-.047.232-.046 1.532-.511.186-.047a25.322 25.322 0 003.343-1.485l1.532-.883c.681-.433 1.176-.773 1.486-1.021a23.712 23.712 0 004.922-4.875l.975-1.393.185-.372.233-.325.418-.743.232-.325 1.253-2.553 1.579-5.061v-.186l.093-.372.232-1.857v-.371l.047-.186v-.928c.03-.867 0-1.827-.093-2.88a20.637 20.637 0 00-.418-2.646l-.047-.325-.092-.325-.047-.325-.464-1.532c-.155-.557-.418-1.331-.79-2.322l-.464-1.114-.14-.232v-.093h-.046v-.047l-.046-.139-.79-1.486-.324-.418-.14-.232c-.062-.155-.108-.232-.139-.232l-.836-1.254-.185-.185-.14-.186a20.879 20.879 0 00-2.368-2.6l-3.76-2.879-2.554-1.44-.279-.185-4.875-2.136a28.901 28.901 0 00-3.436-.743 27.027 27.027 0 00-4.179-.232l-4.132.511-.325.093h-.047l-.093.046h-.139l-.279.093h-.092l-.093.047h-.14l-4.41 1.532c-.744.309-1.595.758-2.555 1.346m-1.207 3.157c.712-.619 1.44-1.16 2.182-1.625.836-.588 1.594-1.037 2.275-1.347l2.925-1.253 1.3-.418h.093l.047-.046.464-.14h.14l.557-.185.557-.093.278-.093.604-.093c1.021-.186 1.733-.294 2.136-.325.495-.062 1.191-.093 2.09-.093h1.67l.233.047a25.02 25.02 0 013.39.51l2.646.79c.495.155 1.13.402 1.904.743l1.16.557 2.554 1.718.232.14.186.185 2.461 2.275a19.482 19.482 0 012.136 2.693c.867 1.27 1.517 2.43 1.95 3.482l.232.465.047.139v.046l.046.047.464 1.346c.217.495.434 1.238.65 2.229l.093.279.14.603v.093l.046.046v.14l.093.325.14.928c.123.774.216 1.61.278 2.508.062.897.062 1.78 0 2.646l-.093.697v.325l-.325 2.043-1.16 3.76-2.601 4.969-2.182 2.693c-.093.155-.264.356-.511.604l-.279.278-2.74 2.275c-1.67 1.177-3.59 2.152-5.757 2.926l-1.764.51-.093.047h-.093l-1.021.278h-.233l-.789.186-2.507.325h-3.343l-.186-.046h-.186l-.464-.047-.093-.046h-.093l-.185-.047-.836-.093-2.879-.742-.603-.233-.186-.046-.371-.186-.418-.139-.186-.093-.186-.046-2.6-1.3-.046-.047-.604-.325-.139-.14-.743-.464-2.646-2.043-2.322-2.46-2.322-3.483-1.764-4.225-.093-.418-.14-.371-.464-2.043c-.433-2.26-.541-4.411-.325-6.454l.604-3.483 1.44-3.993.696-1.393.093-.139.046-.093v-.046h.047l.185-.372.093-.139.279-.51 2.043-2.833.139-.14.464-.556a31.22 31.22 0 012.043-1.95z"/><path clip-path="url(#brb)" fill="#FFF" d="M128.31 38.755c-1.362-.836-2.693-1.254-3.993-1.254-.898.062-1.656.294-2.275.697-.929.65-1.424 1.547-1.486 2.693-.031 1.052.356 2.012 1.16 2.878.372.372.852.743 1.44 1.115.34.247.898.572 1.671.975 1.362.867 2.663 2.012 3.9 3.436 1.053 1.207 1.827 1.965 2.322 2.275.898.557 1.95.805 3.158.743 1.114-.031 2.043-.325 2.786-.882.464-.31 1.067-.975 1.81-1.997l9.751-13.558c.774-1.052 1.331-1.92 1.672-2.6.495-1.022.727-1.981.696-2.879-.062-.588-.232-1.099-.51-1.532-.31-.557-.728-.913-1.254-1.068-1.022-.371-2.275.093-3.761 1.393-1.084.96-2.29 2.198-3.622 3.715-1.455 1.764-2.569 3.064-3.343 3.9-1.083 1.207-1.842 2.136-2.275 2.786-.433.805-.774 1.393-1.022 1.764-.433.681-.882 1.192-1.346 1.532-.557-.371-1.47-1.067-2.74-2.09-1.083-.928-1.996-1.609-2.74-2.042z"/><path clip-path="url(#brb)" d="M99.66 36.227c-3.435-1.764-6.7-3.126-9.796-4.086-10.525-3.312-22.953-3.312-37.285 0-4.395.99-8.033 2.136-10.911 3.436-6.47 2.91-12.769 8.018-18.898 15.323-5.448 6.531-9.658 13.372-12.63 20.523-3.25 7.862-4.782 15.632-4.596 23.308.217 8.234 2.445 16.22 6.686 23.959 4.086 7.46 9.534 13.821 16.344 19.083 6.439 5.015 13.852 8.853 22.24 11.515 7.863 2.508 16.144 3.854 24.842 4.04 7.026.155 13.542-.51 19.548-1.997 6.779-1.671 12.66-4.349 17.644-8.032 3.467-2.57 7.537-6.563 12.211-11.98 2.167-2.538 3.87-4.674 5.108-6.407 1.733-2.446 3.11-4.798 4.132-7.058 1.114-2.445 2.027-5.324 2.74-8.636.37-1.827.866-4.829 1.485-9.008.496-3.714.805-6.438.929-8.172.216-3.064.14-5.804-.232-8.218-.558-3.653-2.09-8.08-4.597-13.28-3.9-8.326-7.97-14.626-12.212-18.897-3.095-3.096-7.614-6.47-13.558-10.122-3.59-2.23-6.655-3.994-9.193-5.294m-14.487-.557c7.43 1.92 14.27 4.705 20.523 8.358 6.532 3.807 12.243 8.512 17.133 14.115 5.077 5.788 8.869 12.103 11.376 18.944 1.331 3.715 2.12 7.197 2.368 10.447.155 1.765.14 3.761-.046 5.99-.062 1.176-.263 3.157-.604 5.943-.557 4.458-1.068 7.8-1.532 10.03-.805 3.683-1.873 6.871-3.204 9.564-1.176 2.353-2.786 4.767-4.829 7.244-1.424 1.702-3.42 3.838-5.99 6.407-3.157 3.22-5.804 5.618-7.94 7.197-7.212 5.355-16.359 8.512-27.44 9.472-2.074.155-4.21.248-6.408.279-7.708.123-15.09-.681-22.148-2.415a52.675 52.675 0 01-2.368-.603c-8.327-2.291-15.74-5.758-22.24-10.401-6.873-4.922-12.413-10.989-16.623-18.201-4.365-7.522-6.655-15.323-6.872-23.402-.186-6.686 1.052-13.512 3.714-20.476.279-.743.589-1.486.93-2.229 0-.093.03-.17.092-.232.031-.062.062-.14.093-.232l.046-.186 4.504-8.59.743-1.207a93.393 93.393 0 013.9-5.711l.14-.186c5.726-7.615 11.824-13.248 18.294-16.901 3.838-2.136 7.8-3.606 11.886-4.411 4.365-.836 8.544-.82 12.537.046-.402-.928-1.099-1.47-2.09-1.625 7.646.155 14.998 1.146 22.055 2.972m-23.82-3.482c.61.145 1.105.222 1.487.232h-6.269c1.207-.34 2.198-.51 2.972-.51.402.03 1.006.123 1.81.278"/><path clip-path="url(#brb)" fill="#EED8BB" d="M18.452 61.486l-.743 1.207-4.504 8.59-.046.186c-.031.093-.062.17-.093.232a.315.315 0 00-.093.233c-.34.742-.65 1.485-.929 2.228-2.662 6.965-3.9 13.79-3.714 20.477.216 8.079 2.507 15.88 6.872 23.401 4.21 7.212 9.75 13.28 16.622 18.201 6.5 4.644 13.914 8.11 22.24 10.401.775.217 1.564.418 2.369.604 7.057 1.733 14.44 2.538 22.148 2.414 2.198-.03 4.333-.124 6.407-.279a322.178 322.178 0 00-10.215-3.157 84.07 84.07 0 01-21.451-9.797 73.92 73.92 0 01-16.53-14.347 64.563 64.563 0 01-11.004-18.341 96.992 96.992 0 01-5.804-21.916 144.417 144.417 0 01-1.532-20.337z"/><path clip-path="url(#brb)" fill="#F9F1E6" d="M105.697 44.028c-6.253-3.653-13.094-6.439-20.523-8.358-7.057-1.826-14.409-2.817-22.055-2.972.99.155 1.687.697 2.09 1.626-3.993-.867-8.172-.883-12.537-.047-4.086.805-8.048 2.275-11.886 4.411-6.47 3.653-12.568 9.287-18.294 16.901l-.14.186a93.303 93.303 0 00-3.9 5.711 144.3 144.3 0 001.532 20.337 96.99 96.99 0 005.804 21.916 64.567 64.567 0 0011.005 18.34 73.919 73.919 0 0016.53 14.348 84.074 84.074 0 0021.45 9.797c3.406.99 6.81 2.043 10.216 3.157 11.081-.96 20.228-4.117 27.44-9.472 2.136-1.578 4.783-3.977 7.94-7.197 2.57-2.569 4.566-4.705 5.99-6.407 2.043-2.477 3.653-4.89 4.829-7.244 1.331-2.692 2.399-5.88 3.204-9.564.464-2.23.975-5.572 1.532-10.03.34-2.785.542-4.767.604-5.943.185-2.228.2-4.225.046-5.99-.248-3.25-1.037-6.732-2.368-10.447-2.507-6.84-6.3-13.155-11.376-18.944-4.89-5.603-10.602-10.308-17.133-14.115"/><path clip-path="url(#brb)" d="M33.678 69.68c0-.34-.155-.634-.464-.881a2.523 2.523 0 00-.93-.325c-1.3-.248-2.43-.093-3.389.464-.371.217-.634.449-.79.696-.185.434-.138.759.14.976.217.185.62.216 1.207.092.527-.123 1.316-.247 2.368-.37.93-.063 1.548-.28 1.858-.651m-5.48-5.433a.984.984 0 00-.696-.51c.062.061.016.093-.139.093-.248 0-.433.154-.557.464-.248.68-.062 1.393.557 2.136.248.31.542.526.882.65.496.185 1.161.123 1.997-.186.464-.217.758-.387.882-.51.31-.31.325-.605.047-.883-.743.124-1.3.17-1.672.14-.588-.063-.96-.264-1.114-.604l-.186-.79m64.308 7.476c.124-.062.278-.217.464-.464.402-.496 1.099-1.115 2.09-1.858l1.717-1.3c.248-.124.356-.294.325-.51 0-.124-.092-.248-.278-.372-.372-.186-.913-.186-1.625 0-.99.31-2.012.99-3.065 2.043-.371.371-.603.681-.696.929-.186.495-.17.882.046 1.16a.884.884 0 00.465.418.704.704 0 00.557-.046m-36.635.51l.186-.185c-.031-.774-.449-1.78-1.254-3.018-.433-.712-.867-1.285-1.3-1.718-.866-.805-1.857-1.207-2.972-1.207-.495 0-1.269.124-2.321.371-.186.062-.294.14-.325.232.186.062.99.233 2.414.511.99.217 1.734.511 2.229.882.34.248.851.805 1.532 1.672l1.811 2.46m-.464-10.4a17.727 17.727 0 011.532 5.293c.062.588.14 1.486.232 2.693.124.99.372 1.811.743 2.461.588-.557.944-1.47 1.068-2.74.124-1.702-.155-3.73-.836-6.082-.402-1.27-.774-2.244-1.114-2.925a10.598 10.598 0 00-1.904-2.74c-.743-.835-1.501-1.44-2.275-1.81-.867-.434-1.842-.697-2.925-.79-3.467-.34-6.67.434-9.612 2.322-2.91 1.857-5.014 4.395-6.314 7.615-.186.495-.263.866-.232 1.114.061.186.17.356.325.51.185.125.371.156.557.094.216-.093.387-.372.51-.836.403-1.238 1.394-2.585 2.972-4.04 1.703-1.64 3.343-2.801 4.922-3.482 1.548-.62 3.359-.96 5.433-1.022 1.238 0 2.213.124 2.925.372 1.547.495 2.878 1.826 3.993 3.993M41.014 45.583c-2.012 1.455-3.653 3.188-4.922 5.2-.526.836-.758 1.548-.696 2.136.062.403.248.743.557 1.022l.093.092c-.031.248 0 .496.093.743.155.496.433.774.836.836.557.062 1.145-.356 1.764-1.253 2.972-4.303 8.265-7.151 15.88-8.544.619-.124.975-.325 1.068-.604a10.312 10.312 0 00-3.947-.882c.093-.31.046-.68-.14-1.114-.37-.65-1.005-1.006-1.903-1.068-.526-.062-1.254.03-2.182.279a21.118 21.118 0 00-6.501 3.157m59.665 1.16c-.279 0-1.115.078-2.508.233-.68.124-1.114.232-1.3.325a2.16 2.16 0 00-.418.325 1.723 1.723 0 01-.418.047c-.804.061-1.362.2-1.671.417-.65.403-.898.898-.743 1.486.093.31.294.542.604.697l-.047.139c-.03.34.078.681.325 1.022.217.278.496.48.836.603.371.155 1.083.232 2.136.232l4.179-.232c.712 0 1.269.031 1.671.093l.093.046 1.3.743c1.486.96 2.477 1.703 2.972 2.229.464.557.79.898.975 1.021.433.34.836.45 1.207.325a6.567 6.567 0 00-.325-1.346c.093-.124.17-.279.232-.464.124-.403.14-.79.047-1.161.371-.557.371-1.223 0-1.997a2.559 2.559 0 00-.418-.65l-.046-.093c-.155-.371-.465-.774-.93-1.207-2.228-1.981-4.813-2.925-7.753-2.832m12.211 20.894c-.155-.34-.356-.975-.603-1.904-.217-.804-.434-1.424-.65-1.857-.589-1.207-1.75-2.414-3.483-3.622-2.662-1.919-5.138-3.11-7.429-3.575a11.178 11.178 0 00-4.179-.046c-1.424.247-2.677.773-3.76 1.578-.775.62-1.378 1.3-1.811 2.043-.248.372-.558.99-.93 1.857a40.074 40.074 0 00-1.996 6.176c-.216.867-.294 1.61-.232 2.229.062.31.155.526.279.65.185.185.387.232.603.139.062-.031.17-.201.325-.511.743-2.538 1.811-5.123 3.204-7.754.712-1.393 1.44-2.337 2.182-2.832.898-.681 2.461-1.022 4.69-1.022.588-.062 1.083-.046 1.486.047.433.123.975.325 1.625.603 2.6 1.207 4.751 2.507 6.454 3.9.34.248 1.068.898 2.182 1.95l2.043 1.95m5.618-.37c0-.465-.108-.867-.325-1.208-.216-.402-.526-.65-.928-.743-.186-.062-.434-.077-.743-.046h-.743c0 .03-.062.077-.186.139-.34 0-.604.201-.79.603-.061.217-.092.558-.092 1.022.371-.093.929-.14 1.671-.14.34 0 .588.032.743.094l.697.278c.248.093.48.093.696 0m-5.34-3.203c.713.65 1.502.882 2.369.696a3.83 3.83 0 001.114-.418c.65-.371 1.068-.727 1.254-1.068.371-.526.464-1.068.278-1.625l-.696.418-.975.418-.65.371c-.093.062-.279.093-.557.093h-.976c-.526 0-.835.016-.928.047-.403.185-.557.433-.465.743l.233.325zM41.682 92.061c-.96-.185-2.043.047-3.25.697-1.3.712-2.151 1.61-2.554 2.693-.34.99-.37 2.306-.092 3.947.061.65.2 1.176.417 1.578.28.588.62.882 1.022.882.743-.03 1.207-.68 1.393-1.95.03-.65.062-1.145.093-1.486.03-.34.093-.619.186-.835 3.56 3.962 6.624 6.949 9.193 8.961 4.117 3.22 8.605 5.494 13.465 6.825a35.906 35.906 0 0014.394 1.068c8.99-1.054 17.503-5.032 25.537-11.933.318-.259.628-.522.929-.789.154-.138.31-.277.464-.418 3.096-2.724 5.216-5.51 6.361-8.358.124-.464.248-.882.372-1.253l.14.093c.123.371.293.928.51 1.671.247.65.572 1.053.975 1.208.34.123.681.046 1.021-.233.31-.247.542-.619.697-1.114.248-.774.217-1.703-.093-2.786a4.206 4.206 0 00-.186-.65 4.444 4.444 0 00-.278-.696 4.001 4.001 0 00-.279-.418c-.646-.802-1.543-1.096-2.693-.883a.581.581 0 01-.14-.232c-.309-.557-.696-.867-1.16-.928-.588-.093-1.099.17-1.532.789-.251.406-.39.824-.418 1.253-.027.26-.012.522.046.79.02.114.035.222.047.325.187.569.543.971 1.068 1.207.31.124.588.186.835.186.093.03.217.077.372.14-1.781 2.574-3.902 5.004-6.361 7.289a54.115 54.115 0 01-4.597 3.807l-.186.14c-8.388 6.066-16.916 9.131-25.584 9.193a33.35 33.35 0 01-13.233-2.414c-4.426-1.734-8.435-4.257-12.025-7.569-2.477-2.507-4.38-4.349-5.711-5.525a6.277 6.277 0 011.996.14c.65.154 1.099.123 1.347-.094.464-.464.51-1.16.139-2.09-.557-1.268-1.44-2.011-2.647-2.228z"/><path clip-path="url(#brb)" fill="#353944" d="M151.656 158.102c3.195.459 5.022-.91 5.48-4.104l8.07-56.181c.459-3.195-.91-5.022-4.104-5.48l-28.812-4.14c-3.195-.458-5.022.91-5.481 4.105l-8.07 56.181c-.458 3.195.91 5.022 4.105 5.48l28.812 4.14"/><path clip-path="url(#brb)" d="M153.99 158.26c.446-.093.858-.23 1.238-.41.43-.254.814-.61 1.156-1.072.336-.424.589-.957.76-1.6l.09-.223.034-.23.132-.512 8.474-56.536-.031-1.831c-.05-.479-.148-.886-.296-1.221a5.5 5.5 0 00-.726-1.106c-.23-.308-.563-.592-.997-.85a3.008 3.008 0 00-1.163-.521l-.56-.199-29.712-4.031c-.924-.133-1.752-.115-2.483.055l-.933.338-.198.148-.058-.008-.528.396-.421.47a3.97 3.97 0 00-.686 1.08l-.347 1.187-7.014 46.786c-.47 2.722-.849 5.359-1.137 7.91l-.406 2.83-.026.998.206 1.031c.099.407.23.72.395.941.115.292.31.575.585.85l.792.644c.428.298 1.022.54 1.781.728l.858.182 28.87 3.734.165.082.173.025.297-.016.702.042 1.014-.09m.48-.462l-.554.156-1.666.114-30.14-4.741c-.566-.16-1.048-.366-1.443-.62-.44-.22-.78-.583-1.022-1.09-.259-.39-.398-.921-.42-1.592v-.825l.341-2.78c.403-2.535.782-5.171 1.136-7.91l6.33-46.118.082-.165.083-.578.389-1.064c.077-.263.258-.571.545-.923l.412-.412.586-.387.867-.289c.572-.153 1.34-.16 2.302-.023l29.01 4.403.222.09.29.042.222.091.289.042.882.421.734.636c.263.352.42.63.47.834.126.214.219.522.279.924l.032 1.006-7.947 57.79-.09.223a3.875 3.875 0 01-.686 1.492c-.16.292-.482.619-.966.981l-.57.272z"/><path transform="rotate(-81.825 145.702 97.463)" clip-path="url(#brb)" fill="#00A2FF" d="M141.5 79.7h8.3v35.6h-8.3z"/><path clip-path="url(#brb)" d="M127.488 99.059l.231.033 1.153-8.026 34.76 4.992-1.12 7.795-34.99-5.025-.034.23.231.034-.23-.033-.034.23 35.222 5.06.173-.045.09-.153 1.187-8.257-.044-.173-.154-.091-35.222-5.059a.233.233 0 00-.264.198l-1.186 8.257a.233.233 0 00.198.264l.033-.231z"/><path clip-path="url(#brb)" fill="#FFF" d="M155.652 153.257l7.056-49.124-35.222-5.06-7.056 49.126 35.222 5.058"/><path clip-path="url(#brb)" d="M120.68 148.234l7.02-48.876 34.723 4.988-7.02 48.876a.251.251 0 00.498.071l7.055-49.125-.047-.186-.166-.098-35.221-5.059a.251.251 0 00-.284.213l-7.056 49.125a.251.251 0 00.497.071z"/><path clip-path="url(#brb)" d="M155.7 152.926l-35.222-5.059a.335.335 0 00-.095.663l35.221 5.059a.335.335 0 00.095-.663"/><path clip-path="url(#brb)" fill="#FFF" d="M131.243 97.535c.457.105.896.188 1.32.249l2.887.415.124-.041.057.008.124-.041.074-.108.009-.057.074-.108.017-.115-.042-.124-.049-.066-.099-.132-.165-.083-2.887-.414-.008.058-1.328-.191-.289-.042-.239.025-.115-.017-.066.05-.066.05-.066.049-.009.057-.074.108.05.066-.017.115.107.075.165.082.223.091.288.041m4.835-1.662l-.049-.066-.165-.083-.057-.008-.182.032a57.697 57.697 0 00-2.607-.315l-1.097-.158-.123.042-.174-.025-.577-.083-.107-.075-.132.1-.009.057-.016.116.05.066c.225.071.472.126.741.165l.165.083.116.016c.385.056.748.127 1.089.216.847.121 1.71.265 2.59.43l.165.083.057.009.124-.042.066-.049.124-.041.074-.107.008-.058.017-.116-.05-.066-.04-.123m.15-1.865l-.166-.082-2.194-.315-2.136-.307-.24.024-.115-.016-.057-.008-.182.032-.066.05-.074.107-.009.058-.016.115.05.066.04.124.165.083.174.025.222.09 2.137.307 2.194.315.181-.033.124-.04.074-.108.009-.058.016-.115.009-.058.016-.115-.05-.066-.107-.075z"/><path clip-path="url(#brb)" fill="#FADE4D" d="M154.356 99.912c.06.127.187.204.38.231l2.31.332.585.025.536-.04.578.083.437-.173c.396-.022.663-.102.8-.24l.273-.255.108-.75c.055-.385-.05-.616-.313-.693l-.347-.05-.214-.149c-.297-.121-.545-.176-.743-.165.017-.116-.027-.22-.131-.314l-.339-.108-2.606-.315-1.897.081c-.435.016-.76.087-.974.214a1.6 1.6 0 00-.653.849l.017.297c.022.121.137.275.346.462l.874.48c.374.132.698.198.973.198z"/><path clip-path="url(#brb)" d="M133.186 128.951l.488.07.044.005c2.867.257 6.94.9 12.188 1.928l.052.008c3.2.42 5.832.74 7.904.958l.088-.833-.82-.168c-.556 2.702-1.219 6.741-1.994 12.14l.828.119.813-.202-.378-1.527-.008-.03c-.207-.702-.486-1.285-.993-1.703l-.525.653.589-.595a2.21 2.21 0 00-.807-.485 4.941 4.941 0 00-.988-.233l-.042-.006c-6.035-.554-11.727-1.39-17.077-2.51l-.171.82.836.028c.033-.913.065-1.625.097-2.128.016-.25.031-.45.046-.589l.02-.158.005-.033-.203-.04.198.057.005-.017-.203-.04.198.057.025-.114.104-.722.002-.014c.097-.766.194-1.793.293-3.094l-.835-.063.829.119.273-1.906-.828-.119-.12.829.244.035.147.021h.24a2.175 2.175 0 01.606.004.837.837 0 00.347-.023 1.17 1.17 0 01.315-.037c.097 0 .21.008.34.027l.975.14a.837.837 0 00.366-1.63 19.998 19.998 0 00-1.502-.4l-.065-.011-1.22-.176a.837.837 0 00-.238 1.658l1.22.175.12-.829-.185.817c.462.104.92.226 1.377.367l.246-.8.12-.829-.977-.14a4.078 4.078 0 00-.577-.044c-.263 0-.52.03-.77.1l.227.806.12-.829a3.964 3.964 0 00-.564-.041c-.176 0-.35.012-.523.038l.12.828.12-.829-.146-.02-.244-.036a.837.837 0 00-.948.71l-.274 1.905-.006.056a63.763 63.763 0 01-.285 3.01l.83.106-.828-.119-.104.722.829.119-.804-.234c-.047.172-.057.286-.078.468-.053.52-.101 1.444-.15 2.832a.838.838 0 00.665.849c5.419 1.134 11.174 1.98 17.267 2.54l.076-.835-.119.83c.284.04.505.094.65.148l.16.072.046.03.064.058c.088.06.285.332.432.86l.805-.232-.813.201.378 1.528a.84.84 0 00.855.635.84.84 0 00.787-.717c.773-5.38 1.434-9.401 1.977-12.04a.837.837 0 00-.732-1.002 321.04 321.04 0 01-7.862-.953l-.109.83.16-.822c-5.28-1.034-9.39-1.685-12.36-1.952l-.074.834.119-.828-.488-.07a.837.837 0 10-.238 1.657m12.723 2.003l2.474.474.157-.823-.577.607c.28.27.653.43 1.019.48a.837.837 0 10.238-1.658l-.103-.036a.844.844 0 00-.42-.215l-2.472-.473a.837.837 0 10-.316 1.644m.277-1.65l-2.294-.33a.838.838 0 00-.26 1.654c1.336.23 2.598.508 3.784.832l.101.02.196.029.195.028.14.029.033.012.098-.202-.158.154.06.048.098-.202-.158.154.302-.295-.399.136.097.16.302-.295-.399.135.793-.269.71-.444c-.188-.292-.425-.435-.652-.547a3.629 3.629 0 00-.76-.248.837.837 0 00-.367 1.634c.2.045.343.095.407.126l.032.017.003.002.196-.27-.279.174.083.096.196-.27-.279.174a.838.838 0 001.503-.713 1.309 1.309 0 00-.603-.712 2.142 2.142 0 00-.761-.242l-.195-.028-.196-.028-.119.83.22-.809a42.187 42.187 0 00-3.94-.867l-.143.826-.119.828 2.294.33a.837.837 0 00.238-1.658m-9.734-.552l-.119.829c.098.014.223.044.37.096l.235.046c.397.02.847.066 1.348.138l5.368.771a.836.836 0 00.281-1.65c-2.26-.444-4.725-.798-7.4-1.063a.838.838 0 00-.202 1.662l.12-.829-.083.833c2.63.261 5.044.608 7.242 1.04l.161-.821.12-.83-5.37-.77a16.711 16.711 0 00-1.499-.153l-.043.836.277-.79a3.658 3.658 0 00-.686-.174l-.12.83-.082.832.082-.833m-2.948 4.913c.136-.915.251-1.65.346-2.2.094-.545.174-.923.213-1.052l.025-.115c.037-.27.105-.445.159-.532l.14-.175.064-.063c.018-.014.021-.032.145-.055l-.12-.828-.026.837c.65.02 1.458.097 2.412.234l.12-.83-.176.82c3.377.722 6.953 1.315 10.729 1.778a.837.837 0 10.204-1.662 121.103 121.103 0 01-10.583-1.754l-.056-.01a23.76 23.76 0 00-2.6-.25l-.146.008a1.882 1.882 0 00-1.142.586l.62.563-.557-.626a2.417 2.417 0 00-.463.563c-.207.347-.32.735-.382 1.158l.829.119-.804-.233c-.079.273-.154.657-.255 1.233a95.664 95.664 0 00-.352 2.242.837.837 0 001.656.244"/><path clip-path="url(#brb)" fill="#00A2FF" d="M153.822 131.823c.07-.492-.15-.775-.662-.849l-18.944-2.72c-.542-.079-.849.129-.92.621l-1.16 8.08c-.07.492.165.777.708.855l18.22 2.617 1.127 2.753 1.631-11.357"/><g clip-path="url(#brb)"><defs><path id="brc" d="M136.394 135.786l-.136.025-.012.088-.013.089-.006.044.08.056.08.057.26.037a13601.268 13601.268 0 007.438 1.069l1.34.192c.466.037.93.088 1.39.155.35.02.699.055 1.045.105l.302.043.136-.025.013-.089-.03-.094-.124-.063-1.297-.186-1.384-.2-1.34-.192.006-.044c-1.817-.26-3.633-.522-5.45-.783a61.312 61.312 0 01-2.298-.284m-1.26-1.705c-.144 0-.222.046-.236.138l.111.15c.267.19.613.344 1.037.465.4.087.92.147 1.563.18.704.01 1.232.026 1.582.047.614.028 1.493.154 2.638.378 1.371.288 2.415.498 3.132.63 1.227.267 2.281.403 3.163.41l.828.074c.403.058.833.24 1.29.546a.556.556 0 00.252.094.123.123 0 00.044-.007c.09-.017.144-.084.161-.202a.434.434 0 00-.134-.29c-.025-.033-.22-.106-.587-.22a8.214 8.214 0 01-.864-.439 29.732 29.732 0 00-.834-.03l-1.094-.066c-.144-.021-1.618-.308-4.422-.861-1.746-.34-3.22-.523-4.424-.545-.647-.003-1.115-.025-1.403-.067-.403-.058-.96-.183-1.667-.374a.938.938 0 00-.137-.011"/></defs><clipPath id="brd"><use xlink:href="#brc" overflow="visible"/></clipPath><path clip-path="url(#brd)" fill="#0082CC" d="M134.9 134.1h15.8v3.7h-15.8z"/></g><path clip-path="url(#brb)" fill="#0082CC" d="M136.451 132.637l-.144.024-.012.088-.013.089-.007.044.086.057.085.057.275.04c.703.1 1.406.202 2.108.303l5.775.83 1.42.203c.494.041.984.096 1.473.167.371.023.74.06 1.107.114l.32.046.144-.025.013-.088-.033-.095-.131-.064-1.375-.197-1.467-.211-1.42-.204.006-.044-5.775-.83a68.94 68.94 0 01-2.435-.304m-1.355-1.718c-.149 0-.229.045-.242.136l.118.152c.285.192.652.35 1.102.474.423.091.975.155 1.656.193a46.23 46.23 0 011.675.06c.65.034 1.582.167 2.796.402 1.454.299 2.56.518 3.32.657 1.301.277 2.418.422 3.352.436l.877.081c.428.062.884.247 1.37.557a.613.613 0 00.27.097.15.15 0 00.045-.006c.095-.017.152-.084.169-.201a.432.432 0 00-.146-.292c-.026-.033-.233-.108-.622-.224a9.05 9.05 0 01-.918-.448 37.63 37.63 0 00-.884-.036l-1.158-.077c-.153-.022-1.716-.321-4.689-.898-1.85-.356-3.413-.55-4.687-.584-.685-.008-1.18-.034-1.486-.078-.427-.061-1.017-.19-1.768-.389a1.08 1.08 0 00-.15-.012"/><path clip-path="url(#brb)" d="M157.298 113.32a10.1 10.1 0 00.18-.879l-.829-.119.82.17a4.09 4.09 0 00.093-.817 2.001 2.001 0 00-.196-.915l-.037-.065c-.27-.432-.68-.741-1.148-.959-.47-.218-1.012-.357-1.637-.448-8.212-1.18-15.95-2.094-23.213-2.743a.836.836 0 00-.906.737.836.836 0 00.713.926c5.212.748 12.998 1.808 23.363 3.178l.11-.83-.119.83c.433.06.747.154.916.238l.15.094.01.01.066-.046-.074.03.009.017.065-.047-.074.03.016.037c.047.094.108.341.106.72 0 .167-.01.358-.031.57l.833.085-.829-.12-.004.03-.03.202-.124.866-.43 3.002.828.12-.825-.142a58.397 58.397 0 01-.577 2.995l-.013.066a4.185 4.185 0 01-.123.572l-.033.202c-.007.237-.053.374-.067.397a.822.822 0 00-.082.259l-.041.288.829.12-.32-.775-.106.044-.106.044a.848.848 0 00-.3.211l-.237.26.62.564-.365-.754-.155.062-.028.007.011.074v-.074h-.011l.011.074v-.074.26l.037-.257-.037-.003v.26l.037-.257h.007a3335.565 3335.565 0 00-22.4-3.276.835.835 0 00-.439.055l-.106.044.32.774-.194-.815a1.451 1.451 0 00-.631.327l.556.626.119-.829-.05-.007a.838.838 0 00-.835.397l-.13.216-.19.17-.162.193c-.419.696-.777 1.199-1.03 1.475l.62.563.677.493c.279-.388.522-.886.794-1.55l.053-.197-.524-.075.429.329c.003-.012.06-.059.095-.254l-.524-.075.429.329.068-.066a.837.837 0 00-1.073-1.285 4.18 4.18 0 00-1.526 2.42l.817.185.828.119c.61-4.245 1.215-9.038 1.816-14.38a.837.837 0 00-1.664-.188 476.1 476.1 0 01-1.81 14.33.837.837 0 001.646.304c.147-.629.434-1.08.925-1.471l-.516-.66-.556-.626a2.183 2.183 0 00-.283.297c-.085.117-.189.256-.235.529l.83.119-.776-.316c-.241.598-.462 1.015-.597 1.197a.837.837 0 001.297 1.055c.378-.419.771-.987 1.224-1.737l-.717-.432.556.626.286-.254.16-.193.197-.326-.717-.432-.12.829.05.007a.84.84 0 00.675-.203l-.145-.163.05.214.095-.051-.145-.163.05.213.127-.04.106-.044-.32-.774-.119.829c9.956 1.43 17.42 2.521 22.388 3.274l.006.001.201.014c.34-.003.623-.103.903-.236a.849.849 0 00.254-.19l.237-.261-.62-.563.32.774.105-.044.106-.044a.836.836 0 00.51-.655l.04-.288-.828-.12.747.379c.171-.344.23-.703.246-1.09l-.836-.032.804.234a5.85 5.85 0 00.173-.8l-.83-.12.818.185a60.02 60.02 0 00.594-3.083l.004-.022.43-3.002.125-.866.03-.203.003-.028.005-.036c.026-.26.04-.505.04-.738-.003-.53-.065-.999-.265-1.432l-.758.356.774-.32c-.192-.46-.57-.764-.969-.956-.405-.195-.867-.31-1.41-.39l-.008-.001c-10.362-1.37-18.145-2.43-23.346-3.176l-.119.829-.074.834c7.23.646 14.937 1.557 23.124 2.733.513.073.907.186 1.168.308.264.124.382.244.435.33l.71-.445-.746.38.032-.016-.035.011.003.005.032-.016-.035.011a.569.569 0 01.017.16c0 .112-.016.275-.059.48l-.008.049a8.61 8.61 0 01-.15.724.837.837 0 001.628.393m-1.644-.307a1.31 1.31 0 01-.063.22l-.043.169a6.804 6.804 0 00-.059.8.837.837 0 101.675.038c.005-.25.02-.454.042-.6l-.829-.12.786.289a2.91 2.91 0 00.143-.517.837.837 0 10-1.652-.279m-1.764 6.319a1.575 1.575 0 00-.164.685c-.006.419.206.813.465 1.06a.839.839 0 00.47.233l.074-.516-.287.434.213.082.074-.516-.287.434.277-.42-.428.268.15.152.278-.42-.428.268.257-.16-.295.072.038.088.257-.16-.295.072.109-.027-.112.013.003.014.109-.027-.112.013v.01l-.006.07a.836.836 0 001.615.406l.082-.224a.837.837 0 10-1.572-.575l-.082.224.786.287.83.12c.014-.102.022-.203.022-.308 0-.252-.05-.535-.214-.796a1.154 1.154 0 00-.818-.535l-.119.828.589-.595-.007-.007-.19.138h.229l-.04-.138-.189.138h.229-.19l.185.046.005-.046h-.19l.185.046-.048-.012.046.017.001-.005-.047-.012.046.017.004-.009a.837.837 0 10-1.508-.727m1.556 3.204l.253-.376a.828.828 0 00.134-.349l.075-.52a.84.84 0 00-.598-.923.84.84 0 00-.997.465l-.094.154.664.51-.655-.52-.22.172a.939.939 0 01-.384.068c-.087 0-.184-.006-.292-.022l-.043-.005c-6-.55-11.525-1.382-16.57-2.497l-.098-.015a85.365 85.365 0 00-4.98-.358.828.828 0 00-.353.063l-.106.043a.837.837 0 00.64 1.548l.105-.043-.32-.774-.033.836c1.5.06 3.127.177 4.881.351l.083-.833-.18.818c5.125 1.132 10.718 1.974 16.779 2.529l.076-.834-.119.829c.181.026.358.039.53.039.368 0 .73-.064 1.063-.212.333-.146.627-.378.851-.66l.009-.012c.118-.153.219-.319.298-.496l-.766-.34-.829-.119-.047.33-.146.217a.837.837 0 001.389.936m-24.812-3.87c-.289.18-.55.37-.78.577a.837.837 0 101.112 1.252c.149-.133.334-.27.556-.41a.837.837 0 10-.888-1.42m6.023.017a4.535 4.535 0 01-.652-.143l-.049-.013c-1.257-.293-2.272-.45-3.1-.45-.35 0-.669.027-.97.098l-.053.015c-.194.06-.375.124-.545.194a.837.837 0 00.64 1.548c.112-.047.246-.095.399-.142l-.247-.8.193.815c.128-.031.327-.054.583-.054.61-.002 1.535.128 2.718.407l.191-.816-.239.803c.294.087.592.153.893.196a.837.837 0 00.238-1.658m-.198 1.663c2.408.229 5.04.548 7.891.957a.837.837 0 10.239-1.657 168.457 168.457 0 00-7.972-.967.837.837 0 00-.158 1.667"/><path clip-path="url(#brb)" fill="#B0D6DA" d="M132.13 107.092c-.641-.092-1.006.17-1.094.786l-2.04 14.204 2.322-2.908 22.788 3.273c.678.097 1.062-.162 1.15-.778l1.452-10.104c.088-.616-.207-.973-.885-1.07l-23.693-3.403"/><path clip-path="url(#brb)" fill="#8DABAE" d="M135.865 116.658l-.17.032-.07.102-.016.11.155.08.378.053c.433.063.863.143 1.29.242.577.083 1.152.184 1.723.304l1.677.24 6.815.98 2.488.357.324.047.116-.04.117-.04.007-.055.016-.11.016-.11-.154-.08c-.938-.134-1.89-.29-2.859-.466l-6.815-.98-.008.056-1.676-.24-1.731-.25-1.623-.232m-.642-2.066c-.495.117-.892.192-1.191.224-.48.006-.74.025-.781.057a.542.542 0 00-.264.3c-.021.147.02.247.123.3a.251.251 0 00.145.035c.065 0 .145-.012.241-.036a4.46 4.46 0 011.332-.23c.141 0 .277.01.408.029l1.02.203c1.06.302 2.374.51 3.94.622.907.093 2.234.208 3.98.346 1.454.134 2.553.292 3.3.474.427.099 1.066.266 1.915.5.783.188 1.43.3 1.94.336h.048c.53 0 .984-.064 1.36-.193.113-.021.175-.069.185-.142.022-.148-.112-.242-.4-.283-.918-.02-1.629-.065-2.134-.138-.36-.051-.93-.19-1.707-.414-1.452-.396-3.285-.697-5.5-.903-3.561-.323-5.431-.498-5.611-.524l-1.337-.304a36.931 36.931 0 00-1.012-.258m.804-1.861l-.18.03-.073.103-.016.11.164.08.401.058c.459.066.914.15 1.368.253.611.088 1.22.194 1.826.319l1.777.255a179274.85 179274.85 0 0010.203 1.465l.122-.039.123-.038.008-.056.016-.11.016-.11-.164-.08a86.123 86.123 0 01-3.03-.492l-7.223-1.037-.008.055-1.776-.255-1.835-.264-1.72-.247m-.696-2.073c-.523.113-.943.184-1.26.214-.506.002-.782.02-.825.05a.542.542 0 00-.277.299c-.021.147.023.248.132.3.036.025.09.037.16.037.067 0 .15-.011.25-.034.5-.146.96-.218 1.378-.218.16 0 .314.01.461.032l1.081.211c1.126.312 2.518.531 4.177.656.96.1 2.366.228 4.216.38 1.539.146 2.704.314 3.496.503.454.102 1.13.275 2.032.517.83.194 1.515.312 2.056.352h.11c.536 0 .995-.06 1.378-.181.12-.02.185-.068.196-.141.021-.147-.121-.243-.427-.287-.97-.027-1.724-.078-2.259-.155-.382-.055-.986-.198-1.81-.43-1.54-.409-3.484-.725-5.831-.95-3.771-.353-5.753-.544-5.944-.572l-1.417-.316a41.751 41.751 0 00-1.073-.267"/></symbol><symbol viewBox="0 0 24 24" id="video-key"><path d="M12 24c6.6 0 12-5.4 12-12S18.6 0 12 0 0 5.4 0 12s5.4 12 12 12z"/><path fill="#FFF" d="M17.5 6.5c-1.4-1.6-3.8-1.6-5.4 0-1.3 1.2-1.5 3-.7 4.5l-5.2 5.2c-.4.4-.4 1.1 0 1.4l1.9 1.9c.5.4 1.1.4 1.4 0 .4-.4.4-1.1 0-1.4l-1.2-1.2.4-.4 1.3 1.3c.4.2 1.1.2 1.4-.1.4-.4.4-1.1 0-1.4L10.3 15l2.6-2.6c1.4.9 3.4.7 4.7-.6 1.5-1.4 1.5-3.8-.1-5.3zm-1.4 3.9c-.7.7-1.9.7-2.6 0-.7-.7-.7-1.8 0-2.6.7-.7 1.9-.7 2.6 0 .7.7.7 1.9 0 2.6z"/></symbol><symbol viewBox="0 0 40 40" id="x-sign"><path d="M5.94 28.628L28.568 6l5.656 5.657-22.627 22.627z"/><path d="M5.94 11.657L11.597 6l22.627 22.627-5.656 5.657z"/></symbol></svg>