<svg preserveAspectRatio="xMinYMid" xmlns="http://www.w3.org/2000/svg" xmlns:xlink="http://www.w3.org/1999/xlink"><symbol viewBox="0 0 8 13" id="arrow_scroller"><path d="M8 1.5l-4.9 5 4.9 5L6.5 13 0 6.5 6.5 0 8 1.5z"/></symbol><symbol viewBox="0 0 18 18" id="check"><path fill-rule="evenodd" clip-rule="evenodd" d="M7.255 15.75L.462 8.721l2.591-2.68 4.202 4.348 7.868-8.139 2.59 2.68z"/></symbol><symbol viewBox="0 0 16 16" id="close-button"><path fill-rule="evenodd" d="M15.595 13.636a1.385 1.385 0 11-1.96 1.958L8 9.958l-5.636 5.636a1.383 1.383 0 01-1.959 0 1.385 1.385 0 010-1.958L6.042 8 .405 2.363A1.385 1.385 0 112.365.405L8 6.042 13.636.405a1.386 1.386 0 011.959 1.958L9.958 8l5.637 5.636z"/></symbol><symbol viewBox="0 0 32 32" id="comment-dislike"><path d="M16 18.8c-3.3 0-6 2-7.2 4.9h2.3c1-1.7 2.8-2.8 4.8-2.8s3.9 1.1 4.8 2.8H23c-1-2.9-3.7-4.9-7-4.9zm0 8.4c-6.2 0-11.2-5-11.2-11.2 0-6.2 5-11.2 11.2-11.2 6.2 0 11.2 5 11.2 11.2 0 6.2-5 11.2-11.2 11.2zM16 2C8.3 2 2 8.3 2 16s6.3 14 14 14 14-6.3 14-14S23.7 2 16 2z"/><path d="M10.5 16l1.5-1.5 1.5 1.5 1.5-1.5-1.4-1.5 1.5-1.5-1.5-1.5-1.6 1.5-1.5-1.5L9 11.5l1.5 1.5L9 14.5l1.5 1.5zm12-6L21 11.5 19.4 10l-1.5 1.5 1.5 1.5-1.5 1.5 1.5 1.5 1.5-1.5 1.5 1.5 1.5-1.5-1.4-1.5 1.5-1.5-1.5-1.5z"/></symbol><symbol viewBox="0 0 32 32" id="comment-like"><path d="M16 21.6c-2.1 0-3.9-1.1-4.8-2.8H8.8c1.1 2.9 3.9 4.9 7.2 4.9 3.3 0 6-2 7.2-4.9h-2.3c-1 1.7-2.8 2.8-4.9 2.8zm0 5.6c-6.2 0-11.2-5-11.2-11.2 0-6.2 5-11.2 11.2-11.2 6.2 0 11.2 5 11.2 11.2 0 6.2-5 11.2-11.2 11.2zM16 2C8.3 2 2 8.3 2 16s6.3 14 14 14 14-6.3 14-14S23.7 2 16 2zm-4.9 12.6c1.2 0 2.1-.9 2.1-2.1 0-1.2-.9-2.1-2.1-2.1-1.2 0-2.1.9-2.1 2.1 0 1.2.9 2.1 2.1 2.1zm9.8 0c1.2 0 2.1-.9 2.1-2.1 0-1.2-.9-2.1-2.1-2.1-1.2 0-2.1.9-2.1 2.1 0 1.2.9 2.1 2.1 2.1z"/></symbol><symbol viewBox="0 0 25 25" id="comment-report"><path d="M12.5 2L.5 23h24l-12-21zm1 17h-2v-2h2v2zm-2-4v-4h2v4h-2z"/></symbol><symbol viewBox="0 0 32 32" id="comment-useful"><circle fill="#FFF" cx="16.1" cy="16.4" r="10"/><defs><path id="aga" d="M2 2h28v28H2z"/></defs><clipPath id="agb"><use xlink:href="#aga" overflow="visible"/></clipPath><g clip-path="url(#agb)"><path d="M16 30c7.732 0 14-6.268 14-14S23.732 2 16 2 2 8.268 2 16s6.268 14 14 14z"/><path fill="#FFF" d="M10.373 15.763l.036.025.033.025h.001l2.47 1.738-.95 2.83c-.002 0-.002.004-.002.005l-.009.014-.007.023c-.518 1.554.16 2.044 1.52 1.088l.033-.025 2.5-1.758 2.47 1.737.033.025.035.025c1.358.952 2.042.457 1.52-1.09l-.01-.022-.004-.016-.001-.002-.952-2.833 2.465-1.736s.003 0 .004-.002l.065-.045c1.364-.957 1.108-1.738-.567-1.738h-3.153l-.957-2.85-.007-.015c-.523-1.555-1.38-1.555-1.905 0l-.009.015-.957 2.85h-3.151c-1.644-.003-1.9.777-.544 1.732z"/></g></symbol><symbol viewBox="0 0 36 36" id="content-bonus"><path fill="currentColor" fill-opacity=".4" d="M18 0v36C8.1 36 0 27.9 0 18S8.1 0 18 0z"/><path d="M12.1 14.8h5c.3 0 .7-.3.7-.7 0-.3-.3-.7-.7-.7h-5c-.3 0-.7.3-.7.7 0 .4.3.7.7.7zm1.8 5.1H12c-.3 0-.7.3-.7.7 0 .3.3.7.7.7h1.9c.3 0 .7-.3.7-.7 0-.5-.4-.7-.7-.7z"/><path d="M21.5 14.4H21v-2.6c0-1.4-1.2-2.6-2.6-2.6h-7.5c-1.5 0-2.6 1.1-2.6 2.6v11.1c0 1.4 1.1 2.6 2.6 2.6h6.9c1.1.8 2.4 1.3 3.8 1.3 3.5 0 6.2-2.7 6.2-6.2s-2.9-6.2-6.3-6.2zM9.7 22.8V11.7c0-.7.6-1.1 1.2-1.1h7.5c.7 0 1.2.5 1.2 1.2v2.9c-1.1.4-2.1 1.1-2.9 2H12c-.3 0-.7.3-.7.7 0 .3.3.7.7.7h3.9c-.4.8-.6 1.7-.6 2.6 0 1.3.4 2.4 1 3.4h-5.5c-.6-.1-1.1-.6-1.1-1.3zm11.8 2.7c-2.7 0-4.9-2.2-4.9-4.9s2.2-4.9 4.9-4.9 4.9 2.2 4.9 4.9c.1 2.7-2.1 4.9-4.9 4.9z"/><path d="M24.5 20h-1.9v-2c0-.4-.3-.9-.9-.9-.6 0-.9.3-.9.9v2h-2c-.4 0-.9.3-.9.9s.3.9.9.9h2v2c0 .4.3.9.9.9.6 0 .9-.3.9-.9v-2h2c.4 0 .9-.3.9-.9s-.5-.9-1-.9z"/></symbol><symbol viewBox="0 0 36 36" id="content-finished"><path d="M24 11l-8 7.8-4.3-4.2L9 17.2l6.9 6.7 10.7-10.4L24 11z"/></symbol><symbol viewBox="0 0 36 36" id="content-test"><path fill="currentColor" fill-opacity=".4" d="M18 0v36C8.1 36 0 27.9 0 18S8.1 0 18 0z"/><path d="M25.8 13.1c.3-.3.3-.8 0-1.1L24 10.2c-.3-.3-.8-.3-1.1 0l-1.5 1.5 2.9 2.9 1.5-1.5zm-3.2 3.8l-3.4-3.4-9.2 9.1V26h3.4l9.2-9.1z"/></symbol><symbol viewBox="0 0 36 36" id="content-video"><path fill="currentColor" fill-opacity=".4" d="M18 0v36C8.1 36 0 27.9 0 18S8.1 0 18 0z"/><path d="M25 18c0 .6-.3 1-.7 1.3l-10.2 6.5c-.2.1-.5.2-.7.2-.8 0-1.4-.7-1.4-1.5v-13c0-.8.6-1.5 1.4-1.5.3 0 .5.1.7.2l10.2 6.5c.4.3.7.7.7 1.3z"/></symbol><symbol viewBox="0 0 40 40" id="delete-icon"><path d="M13.8 16.3v12.5h12.5V16.3H13.8zm-2.5 12.5v-15h17.5v15c0 1.4-1.1 2.5-2.5 2.5H13.8c-1.4 0-2.5-1.2-2.5-2.5zM23.8 10V7.5h-7.5V10H8.8v2.5h22.5V10h-7.5zm-7.5 16.3h2.5v-7.5h-2.5v7.5zm5 0h2.5v-7.5h-2.5v7.5z"/></symbol><symbol viewBox="0 0 32 32" id="ellipsis"><path d="M7 16c0-1.1.9-2 2-2s2 .9 2 2-.9 2-2 2-2-.9-2-2zm7 0c0-1.1.9-2 2-2s2 .9 2 2-.9 2-2 2-2-.9-2-2zm7 0c0-1.1.9-2 2-2s2 .9 2 2-.9 2-2 2-2-.9-2-2z"/></symbol><symbol viewBox="0 0 48 48" id="emaill-share"><path d="M24 0a24 24 0 1024 24A24 24 0 0024 0zM11.87 13.88h24.26a2 2 0 011.4.55L24 26 10.47 14.43a2.06 2.06 0 011.4-.55zm-2 1.78l9.79 8.5-9.83 8.31zm26.3 18.46h-24.3a2 2 0 01-1.4-.55L20.5 25l3.5 3.05L27.5 25l10 8.59a2 2 0 01-1.37.53zm2-1.65l-9.79-8.31 9.79-8.51z"/></symbol><symbol viewBox="0 0 48 48" id="extra-materials"><path d="M16.9 19.7v-13c0-.6.5-1.1 1.1-1.1h12c.6 0 1.1.5 1.1 1.1v13h5.1c.9 0 1.4 1 .9 1.7L24.9 37.2c-.4.6-1.3.6-1.7 0L10.9 21.5c-.6-.7 0-1.7.9-1.7h5.1v-.1zm21.5 22.7H9.6c-.6 0-1.1-.5-1.1-1.1 0-.6.5-1.1 1.1-1.1h28.8c.6 0 1.1.5 1.1 1.1 0 .6-.5 1.1-1.1 1.1z"/></symbol><symbol viewBox="0 0 24 24" id="fb-login"><path d="M24 12c0-6.627-5.373-12-12-12S0 5.373 0 12c0 5.99 4.388 10.954 10.125 11.854V15.47H7.078V12h3.047V9.356c0-3.007 1.791-4.668 4.533-4.668 1.313 0 2.686.234 2.686.234v2.953H15.83c-1.491 0-1.956.925-1.956 1.874V12h3.328l-.532 3.469h-2.796v8.385C19.612 22.954 24 17.99 24 12z"/><path d="M16.671 15.469L17.203 12h-3.328V9.749c0-.949.465-1.874 1.956-1.874h1.513V4.922s-1.374-.234-2.686-.234c-2.742 0-4.533 1.66-4.533 4.668V12H7.078v3.469h3.047v8.385a12.096 12.096 0 003.75 0V15.47h2.796z" fill="transparent"/></symbol><symbol viewBox="0 0 32 32" id="fb-share"><path d="M13.3 27h4.1v-9.6h4.1v-4.1h-4.1v-2.8c0-.8.6-1.4 1.4-1.4h2.8V5h-3.4c-2.7 0-4.8 2.1-4.8 4.8v3.4h-2.8v4.1h2.8V27z"/></symbol><symbol fill="none" viewBox="0 0 32 32" id="fb-share-test"><path d="M26 16c0-5.523-4.477-10-10-10S6 10.477 6 16c0 4.991 3.657 9.128 8.438 9.878v-6.987h-2.54V16h2.54v-2.203c0-2.506 1.492-3.89 3.777-3.89 1.094 0 2.238.195 2.238.195v2.46h-1.26c-1.243 0-1.63.771-1.63 1.562V16h2.773l-.443 2.89h-2.33v6.988C22.343 25.128 26 20.991 26 16z" fill="#1778F2"/><path d="M19.893 18.89l.443-2.89h-2.773v-1.876c0-.79.387-1.562 1.63-1.562h1.26v-2.46s-1.144-.196-2.238-.196c-2.285 0-3.777 1.385-3.777 3.89V16h-2.54v2.89h2.54v6.988a10.072 10.072 0 003.124 0v-6.987h2.33z" fill="#fff"/></symbol><symbol viewBox="0 0 32 24" id="hamburger-menu"><path d="M0 1.5C0 .7.7 0 1.5 0h29c.8 0 1.5.7 1.5 1.5S31.3 3 30.5 3h-29C.7 3 0 2.3 0 1.5zm0 10c0-.8.7-1.5 1.5-1.5h29c.8 0 1.5.7 1.5 1.5s-.7 1.5-1.5 1.5h-29C.7 13 0 12.3 0 11.5zm0 10c0-.8.7-1.5 1.5-1.5h29c.8 0 1.5.7 1.5 1.5s-.7 1.5-1.5 1.5h-29C.7 23 0 22.3 0 21.5z"/></symbol><symbol viewBox="0 0 32 32" id="header-streak-empty"><path opacity=".5" fill="#FFF" d="M22.343 8.627c.743 4.858-2.743 6.344-2.743 6.344C21.486 5.2 11.943 2 11.943 2c.742 6.685-7.315 8.685-7.315 16.628C4.628 24.908 9.72 30 16 30s11.372-4.857 11.372-11.258c0-7.771-5.029-10.115-5.029-10.115z"/></symbol><symbol viewBox="0 0 32 32" id="header-streak-full"><path fill="#FFF" d="M22.343 8.627c.743 4.858-2.743 6.344-2.743 6.344C21.486 5.2 11.943 2 11.943 2c.742 6.685-7.315 8.685-7.315 16.628C4.628 24.908 9.72 30 16 30s11.372-4.857 11.372-11.258c0-7.771-5.029-10.115-5.029-10.115z"/></symbol><symbol viewBox="0 0 32 32" id="header-streak-half"><g fill="#FFF"><path opacity=".5" d="M22.343 8.627c.743 4.858-2.743 6.344-2.743 6.344C21.486 5.2 11.943 2 11.943 2c.742 6.685-7.315 8.685-7.315 16.628C4.628 24.908 9.72 30 16 30s11.372-4.857 11.372-11.258c0-7.771-5.029-10.115-5.029-10.115z"/><path d="M27.36 19.06C27.2 25.3 22.18 30 16 30 9.86 30 4.86 25.14 4.64 19.06h22.72z"/></g></symbol><symbol viewBox="0 0 40 40" id="image-upload-icon"><path fill="#fff" d="M20 17.1c1.8 0 3.2 1.5 3.2 3.3 0 1.8-1.4 3.3-3.2 3.3-1.8 0-3.2-1.5-3.2-3.3 0-1.8 1.4-3.3 3.2-3.3z"/><path fill="#fff" d="M20 25.6c-2.8 0-5-2.3-5-5.2 0-2.9 2.2-5.2 5-5.2s5 2.3 5 5.2c0 2.9-2.2 5.2-5 5.2zM17 10l-1.8 2.1H12c-1.1 0-2 .9-2 2.1v12.5c0 1.2.9 2.1 2 2.1h16c1.1 0 2-.9 2-2.1V14.2c0-1.2-.9-2.1-2-2.1h-3.2L23 10h-6z"/></symbol><symbol viewBox="0 0 146 100" id="info-streak-empty"><path fill="#F8C194" d="M83.395 87.658s-7.952-7.03-1.076-16.4c3.872-5.276 14.832-6.598 12.4-13.067 8.901 4.035 9.773 24.97-11.324 29.467M39.41 54.11a1.11 1.11 0 01-1.02-1.2c.14-1.74.47-3.46.98-5.14.08-.25.35-1.08.44-1.33.38-1.06.84-2.13 1.38-3.19a1.11 1.11 0 111.98 1.01c-.49.97-.92 1.96-1.26 2.93a22.563 22.563 0 00-1.3 5.9c-.05.58-.54 1.02-1.11 1.02h-.09m6.31-14.89c-.23 0-.46-.07-.66-.21-.49-.37-.6-1.07-.23-1.56.27-.37.54-.73.82-1.08.221-.286.552-.435.884-.435.237 0 .476.076.676.235.49.37.58 1.07.2 1.56-.27.34-.53.69-.79 1.04-.22.3-.56.45-.9.45M72.22 92s-20.592-6.102-21.676-24.407C49.46 49.288 68.968 43.186 68.968 32c0 0 13.006 14.238 3.252 30.509-9.755 16.27 0 29.49 0 29.49M48.63 35.57c-.25 0-.51-.09-.72-.26-.47-.4-.53-1.1-.13-1.57.84-1.01 1.7-2 2.55-2.98.61-.7 1.21-1.39 1.8-2.09.16-.19.7-.82.86-1.01.78-.95 1.46-1.79 2.05-2.57a1.12 1.12 0 011.56-.21c.49.37.59 1.07.21 1.56-.61.81-1.3 1.67-2.11 2.64-.16.2-.71.84-.87 1.03-.6.7-1.21 1.4-1.82 2.11-.84.97-1.69 1.95-2.53 2.95-.22.26-.53.4-.85.4m10.88-14.31c-.17 0-.35-.04-.51-.12-.55-.28-.76-.96-.48-1.5.2-.4.39-.79.56-1.16a1.11 1.11 0 011.48-.54c.56.26.8.92.54 1.48-.18.4-.38.81-.6 1.23-.2.39-.59.61-.99.61m1.834-4.294a1.112 1.112 0 01-1.053-1.475c.942-2.749 1.098-4.56 1.099-4.579a1.12 1.12 0 011.197-1.021c.612.049 1.07.582 1.023 1.194-.006.084-.17 2.086-1.214 5.128-.158.462-.59.753-1.052.753M58.512 0c.117 1.05.172 2.066.173 3.054.004 21.49-26.298 29.21-26.298 56.334C32.387 81.816 50.57 100 73 100c22.431 0 40.613-17.346 40.613-40.207 0-27.754-17.959-36.123-17.959-36.123.257 1.677.372 3.242.37 4.7-.008 13.624-10.167 17.953-10.167 17.953C92.593 11.428 58.512 0 58.512 0"/><path fill="#FFD495" d="M68.968 32c0 11.187-19.508 17.288-18.425 35.593C51.627 85.898 72.22 92 72.22 92s-9.755-13.22 0-29.491C81.974 46.237 68.968 32 68.968 32m25.75 26.191c2.433 6.47-8.528 7.792-12.399 13.067-6.877 9.37 1.076 16.4 1.076 16.4 21.097-4.498 20.225-25.432 11.323-29.467"/><path fill="#F9EBDB" d="M62.502 9.887a1.12 1.12 0 00-1.112 1.025c-.001.019-.156 1.83-1.099 4.578a1.112 1.112 0 001.053 1.476c.463 0 .894-.291 1.052-.753 1.045-3.042 1.208-5.044 1.215-5.128a1.114 1.114 0 00-1.11-1.198m-2.413 7.948c-.42 0-.819.238-1.008.645-.17.37-.36.76-.56 1.16-.28.54-.07 1.22.48 1.5a1.112 1.112 0 001.5-.49c.22-.42.42-.83.6-1.23.26-.56.02-1.22-.54-1.48a1.114 1.114 0 00-.472-.105m-13.554 18.1c-.332 0-.662.15-.884.435-.28.35-.55.71-.82 1.08-.37.49-.26 1.19.23 1.56.2.14.43.21.66.21.34 0 .68-.15.9-.45a41 41 0 01.79-1.04c.38-.49.29-1.19-.2-1.56a1.086 1.086 0 00-.676-.235m9.389-11.283c-.335 0-.666.15-.883.438-.59.78-1.27 1.62-2.05 2.57-.16.19-.7.82-.86 1.01-.59.7-1.19 1.39-1.8 2.09-.85.98-1.71 1.97-2.55 2.98-.4.47-.34 1.17.13 1.57a1.112 1.112 0 001.57-.14c.84-1 1.69-1.98 2.53-2.95.61-.71 1.22-1.41 1.82-2.11.16-.19.71-.83.87-1.03a67.4 67.4 0 002.11-2.64c.38-.49.28-1.19-.21-1.56a1.12 1.12 0 00-.677-.227M42.182 42.64c-.408 0-.8.227-.992.61-.54 1.06-1 2.13-1.38 3.19-.09.25-.36 1.08-.44 1.33-.51 1.68-.84 3.4-.98 5.14-.05.61.4 1.15 1.02 1.2h.09c.57 0 1.06-.44 1.11-1.02a22.57 22.57 0 011.3-5.9c.34-.97.77-1.96 1.26-2.93a1.115 1.115 0 00-.988-1.62"/><path fill="#FB565F" d="M124.84 19.232a4.272 4.272 0 01-3.004-1.271c-.848-.854-1.26-1.842-1.26-3.02.14-1.17.535-2.113 1.21-2.965l.05-.056c.848-.856 1.832-1.272 3.004-1.272 1.107 0 2.202.464 3.004 1.272.847.854 1.26 1.843 1.26 3.02a4.333 4.333 0 01-1.26 3.02c-.849.856-1.832 1.272-3.004 1.272zm-2.036-6.403a4.28 4.28 0 00-.905 2.193c.005.74.283 1.403.878 2.003.547.551 1.318.88 2.063.88.811 0 1.467-.28 2.062-.88a3.033 3.033 0 00.873-2.085c0-.82-.277-1.483-.874-2.085-.546-.55-1.316-.879-2.061-.879-.8 0-1.447.272-2.036.853z"/><path fill="#FADE4D" d="M30.389 93.019c-.762 0-1.308-.248-1.667-.758-.33-.358-.665-1.016-.665-1.588 0-.269.054-1.169.749-1.674.362-.34 1.005-.673 1.583-.673.762 0 1.308.248 1.668.758.33.357.665 1.016.665 1.589 0 .764-.245 1.311-.75 1.674-.363.34-1.005.672-1.583.672zm0-3.494c-.206 0-.597.182-.774.36l-.091.076c-.184.123-.268.455-.268.712 0 .214.178.603.36.786l.075.092c.088.136.216.268.698.268.21 0 .594-.178.774-.36l.09-.075c.13-.087.27-.22.27-.711 0-.215-.178-.605-.36-.787l-.075-.092c-.089-.136-.217-.269-.7-.269z"/><path fill="#C699F2" d="M119.701 39.915c.533-.537 1.2-.806 1.999-.806.8 0 1.467.269 2 .806.533.538.8 1.21.8 2.016s-.267 1.478-.8 2.015c-.533.538-1.2.807-2 .807-.799 0-1.466-.269-1.999-.807-.534-.537-.8-1.209-.8-2.015 0-.672.266-1.478.8-2.016z"/><path fill="#17DDBA" d="M7.258 74.158c1.067-1.075 2.133-2.553 2.8-3.897.267-.537 0-1.074-.533-1.209a17.472 17.472 0 00-5.2-.806c-.533 0-.933.537-.8 1.075.267 1.478.934 3.09 1.734 4.434.4 1.344 1.066 1.344 2 .403z"/><path fill="#FADE4D" d="M124.973 75.17c.133-.94.933-1.746 1.999-1.746l2.133.134.133-2.284c.134-.94.934-1.747 2-1.747a2.03 2.03 0 011.733 2.016l-.133 2.284 2.133.134a2.03 2.03 0 011.733 2.016c-.134.94-.933 1.747-2 1.747l-2.133-.135-.133 2.285c-.133.94-.933 1.746-2 1.746a2.03 2.03 0 01-1.733-2.015l.134-2.284-2.133-.135c-1.067-.134-1.867-.94-1.733-2.015z"/><path fill="#00A2FF" d="M38.32 16.04c.4.941-.133 2.016-1.066 2.285l-2 .672.8 2.15c.4.94-.133 2.015-1.066 2.284-.933.403-2-.134-2.267-1.075l-.8-2.15-2 .672c-.932.403-1.999-.134-2.265-1.075-.4-.94.133-2.016 1.066-2.284l2-.672-.8-2.15c-.4-.94.133-2.016 1.066-2.284a1.68 1.68 0 012.267 1.075l.8 2.15 2-.672c.932-.403 1.865.134 2.265 1.075z"/><path fill="none" d="M0 0h146v100H0z"/></symbol><symbol viewBox="0 0 146 100" id="info-streak-full"><path fill="#F2842A" d="M95.654 23.67c2.653 17.349-9.797 22.654-9.797 22.654C92.593 11.428 58.512 0 58.512 0c2.65 23.875-26.125 31.017-26.125 59.387C32.387 81.816 50.57 100 73 100c22.431 0 40.613-17.346 40.613-40.206 0-27.755-17.959-36.124-17.959-36.124z"/><path fill="#FFA92C" d="M72.22 92s-20.593-6.102-21.677-24.407C49.46 49.288 68.968 43.186 68.968 32c0 0 13.006 14.237 3.252 30.509s0 29.491 0 29.491zm22.498-33.809c8.902 4.036 9.774 24.97-11.323 29.467 0 0-7.952-7.03-1.076-16.4 3.872-5.276 14.832-6.598 12.4-13.067z"/><path fill="#F4D8B8" d="M61.344 16.966a1.112 1.112 0 01-1.053-1.476c.943-2.748 1.098-4.56 1.099-4.578a1.113 1.113 0 112.22.173c-.006.084-.17 2.086-1.214 5.128-.158.462-.59.753-1.052.753zm-.784.974c-.56-.26-1.22-.02-1.48.54-.17.37-.36.76-.56 1.16-.28.54-.07 1.22.48 1.5a1.113 1.113 0 001.5-.49c.22-.42.42-.83.6-1.23.26-.56.02-1.22-.54-1.48zM47.21 36.17c-.48-.38-1.18-.29-1.56.2-.28.35-.55.71-.82 1.08-.37.49-.26 1.19.23 1.56.2.14.43.21.66.21.34 0 .68-.15.9-.45.26-.35.52-.7.79-1.04.38-.49.29-1.19-.2-1.56zm9.6-9.73c-.61.81-1.3 1.67-2.11 2.64-.16.2-.71.84-.87 1.03-.6.7-1.21 1.4-1.82 2.11-.84.97-1.69 1.95-2.53 2.95a1.11 1.11 0 11-1.7-1.43c.84-1.01 1.7-2 2.55-2.98.61-.7 1.21-1.39 1.8-2.09.16-.19.7-.82.86-1.01.78-.95 1.46-1.79 2.05-2.57a1.114 1.114 0 011.77 1.35zM43.17 44.26c-.49.97-.92 1.96-1.26 2.93a22.525 22.525 0 00-1.3 5.9c-.05.58-.54 1.02-1.11 1.02h-.09a1.11 1.11 0 01-1.02-1.2c.14-1.74.47-3.46.98-5.14.08-.25.35-1.08.44-1.33.38-1.06.84-2.13 1.38-3.19.27-.54.94-.77 1.49-.49s.77.95.49 1.5z"/><path fill="#FB565F" d="M124.84 19.232a4.272 4.272 0 01-3.004-1.271c-.848-.854-1.26-1.842-1.26-3.02.14-1.17.535-2.113 1.21-2.965l.05-.056c.848-.856 1.832-1.272 3.004-1.272 1.107 0 2.202.464 3.004 1.272.847.854 1.26 1.843 1.26 3.02a4.333 4.333 0 01-1.26 3.02c-.849.856-1.832 1.272-3.004 1.272zm-2.036-6.403a4.28 4.28 0 00-.905 2.193c.005.74.283 1.403.878 2.003.547.551 1.318.88 2.063.88.811 0 1.467-.28 2.062-.88a3.033 3.033 0 00.873-2.085c0-.82-.277-1.483-.874-2.085-.546-.55-1.316-.879-2.061-.879-.8 0-1.447.272-2.036.853z"/><path fill="#FADE4D" d="M30.389 93.019c-.762 0-1.308-.248-1.667-.758-.33-.358-.665-1.016-.665-1.588 0-.269.054-1.169.749-1.674.362-.34 1.005-.673 1.583-.673.762 0 1.308.248 1.668.758.33.357.665 1.016.665 1.589 0 .764-.245 1.311-.75 1.674-.363.34-1.005.672-1.583.672zm0-3.494c-.206 0-.597.182-.774.36l-.091.076c-.184.123-.268.455-.268.712 0 .214.178.603.36.786l.075.092c.088.136.216.268.698.268.21 0 .594-.178.774-.36l.09-.075c.13-.087.27-.22.27-.711 0-.215-.178-.605-.36-.787l-.075-.092c-.089-.136-.217-.269-.7-.269z"/><path fill="#C699F2" d="M119.701 39.915c.533-.537 1.2-.806 1.999-.806.8 0 1.467.269 2 .806.533.538.8 1.21.8 2.016s-.267 1.478-.8 2.015c-.533.538-1.2.807-2 .807-.799 0-1.466-.269-1.999-.807-.534-.537-.8-1.209-.8-2.015 0-.672.266-1.478.8-2.016z"/><path fill="#17DDBA" d="M7.258 74.158c1.067-1.075 2.133-2.553 2.8-3.897.267-.537 0-1.074-.533-1.209a17.472 17.472 0 00-5.2-.806c-.533 0-.933.537-.8 1.075.267 1.478.934 3.09 1.734 4.434.4 1.344 1.066 1.344 2 .403z"/><path fill="#FADE4D" d="M124.973 75.17c.133-.94.933-1.746 1.999-1.746l2.133.134.133-2.284c.134-.94.934-1.747 2-1.747a2.03 2.03 0 011.733 2.016l-.133 2.284 2.133.134a2.03 2.03 0 011.733 2.016c-.134.94-.933 1.747-2 1.747l-2.133-.135-.133 2.285c-.133.94-.933 1.746-2 1.746a2.03 2.03 0 01-1.733-2.015l.134-2.284-2.133-.135c-1.067-.134-1.867-.94-1.733-2.015z"/><path fill="#00A2FF" d="M38.32 16.04c.4.941-.133 2.016-1.066 2.285l-2 .672.8 2.15c.4.94-.133 2.015-1.066 2.284-.933.403-2-.134-2.267-1.075l-.8-2.15-2 .672c-.932.403-1.999-.134-2.265-1.075-.4-.94.133-2.016 1.066-2.284l2-.672-.8-2.15c-.4-.94.133-2.016 1.066-2.284a1.68 1.68 0 012.267 1.075l.8 2.15 2-.672c.932-.403 1.865.134 2.265 1.075z"/><path fill="none" d="M0 0h146v100H0z"/></symbol><symbol viewBox="0 0 146 100" id="info-streak-half"><path fill="#F8C194" d="M83.395 87.658s-7.953-7.03-1.076-16.4c3.871-5.276 14.832-6.598 12.4-13.067 8.901 4.035 9.773 24.97-11.324 29.467M39.41 54.11a1.11 1.11 0 01-1.02-1.2c.14-1.74.47-3.46.98-5.14.08-.25.35-1.08.44-1.33.38-1.06.84-2.13 1.38-3.19a1.11 1.11 0 111.98 1.01c-.49.97-.92 1.96-1.26 2.93a22.55 22.55 0 00-1.3 5.9c-.05.58-.54 1.02-1.11 1.02h-.09m6.31-14.89c-.23 0-.46-.07-.66-.21-.49-.37-.6-1.07-.23-1.56.27-.37.54-.73.82-1.08.222-.286.552-.435.884-.435.237 0 .476.076.676.235.49.37.58 1.07.2 1.56-.27.34-.53.69-.79 1.04-.22.3-.56.45-.9.45M72.22 92s-20.593-6.102-21.677-24.407C49.46 49.288 68.968 43.186 68.968 32c0 0 13.006 14.238 3.252 30.509-9.755 16.27 0 29.49 0 29.49M48.63 35.57c-.25 0-.51-.09-.72-.26-.47-.4-.53-1.1-.13-1.57.84-1.01 1.7-2 2.55-2.98.61-.7 1.21-1.39 1.8-2.09.16-.19.7-.82.86-1.01.78-.95 1.46-1.79 2.05-2.57.217-.287.548-.437.883-.437.236 0 .474.074.677.227.49.37.59 1.07.21 1.56-.61.81-1.3 1.67-2.11 2.64-.16.2-.71.84-.87 1.03-.6.7-1.21 1.4-1.82 2.11-.84.97-1.69 1.95-2.53 2.95-.22.26-.53.4-.85.4m10.88-14.31c-.17 0-.35-.04-.51-.12-.55-.28-.76-.96-.48-1.5.2-.4.39-.79.56-1.16a1.11 1.11 0 011.48-.54c.56.26.8.92.54 1.48-.18.4-.38.81-.6 1.23-.2.39-.59.61-.99.61m1.834-4.294a1.111 1.111 0 01-1.052-1.475c.941-2.749 1.097-4.56 1.098-4.579a1.12 1.12 0 011.197-1.021c.612.049 1.07.582 1.023 1.194-.006.084-.17 2.086-1.213 5.128-.159.462-.59.753-1.053.753M58.512 0a27.54 27.54 0 01.173 3.054c.004 21.49-26.298 29.21-26.298 56.334C32.387 81.816 50.57 100 73 100c22.431 0 40.613-17.346 40.613-40.207 0-27.754-17.959-36.123-17.959-36.123.257 1.677.372 3.242.371 4.7-.01 13.625-10.168 17.953-10.168 17.953C92.593 11.428 58.512 0 58.512 0"/><path fill="#FFD495" d="M68.968 32c0 11.187-19.508 17.288-18.425 35.593C51.627 85.898 72.22 92 72.22 92s-9.755-13.22 0-29.491C81.974 46.237 68.968 32 68.968 32m25.75 26.191c2.433 6.47-8.528 7.792-12.4 13.067-6.876 9.37 1.077 16.4 1.077 16.4 21.097-4.498 20.225-25.432 11.323-29.467"/><path fill="#F9EBDB" d="M62.502 9.887a1.12 1.12 0 00-1.112 1.025c-.001.019-.157 1.83-1.099 4.578a1.111 1.111 0 001.053 1.476c.462 0 .894-.291 1.052-.753 1.044-3.042 1.207-5.044 1.214-5.128a1.113 1.113 0 00-1.108-1.198m-2.414 7.948c-.42 0-.819.238-1.008.645-.17.37-.36.76-.56 1.16-.28.54-.07 1.22.48 1.5a1.113 1.113 0 001.5-.49c.22-.42.42-.83.6-1.23.26-.56.02-1.22-.54-1.48a1.115 1.115 0 00-.472-.105m-13.554 18.1c-.332 0-.662.15-.884.435-.28.35-.55.71-.82 1.08-.37.49-.26 1.19.23 1.56.2.14.43.21.66.21.34 0 .68-.15.9-.45a41 41 0 01.79-1.04c.38-.49.29-1.19-.2-1.56a1.086 1.086 0 00-.676-.235m9.389-11.283c-.335 0-.666.15-.883.438-.59.78-1.27 1.62-2.05 2.57-.16.19-.7.82-.86 1.01-.59.7-1.19 1.39-1.8 2.09-.85.98-1.71 1.97-2.55 2.98-.4.47-.34 1.17.13 1.57a1.111 1.111 0 001.57-.14c.84-1 1.69-1.98 2.53-2.95.61-.71 1.22-1.41 1.82-2.11.16-.19.71-.83.87-1.03.81-.97 1.5-1.83 2.11-2.64.38-.49.28-1.19-.21-1.56a1.122 1.122 0 00-.677-.227M42.182 42.64c-.408 0-.8.227-.992.61-.54 1.06-1 2.13-1.38 3.19-.09.25-.36 1.08-.44 1.33-.51 1.68-.84 3.4-.98 5.14-.05.61.4 1.15 1.02 1.2h.09c.57 0 1.06-.44 1.11-1.02a22.55 22.55 0 011.3-5.9c.34-.97.77-1.96 1.26-2.93a1.115 1.115 0 00-.988-1.62"/><path fill="#F2842A" d="M113.61 59.79C113.61 82.65 95.43 100 73 100S32.39 81.82 32.39 59.39c0-3.41.42-6.52 1.15-9.39h79.25c.52 2.96.82 6.21.82 9.79z"/><path fill="#FFA92C" d="M72.22 62.51c-9.58 15.99-.33 29.03-.01 29.48-.63-.18-20.6-6.38-21.67-24.4-.44-7.53 2.59-12.99 6.33-17.59h18.98c-.02 3.86-.99 8.11-3.63 12.51zm22.498-4.319c8.902 4.036 9.774 24.97-11.323 29.467 0 0-7.952-7.03-1.076-16.4 3.872-5.276 14.832-6.598 12.4-13.067z"/><path fill="#F4D8B8" d="M41.09 50c-.24 1.02-.39 2.05-.48 3.09-.05.58-.54 1.02-1.11 1.02h-.09a1.11 1.11 0 01-1.02-1.2c.08-.98.22-1.95.42-2.91h2.28z"/><path fill="#FB565F" d="M124.84 19.232a4.272 4.272 0 01-3.004-1.271c-.848-.854-1.26-1.842-1.26-3.02.14-1.17.535-2.113 1.21-2.965l.05-.056c.848-.856 1.832-1.272 3.004-1.272 1.107 0 2.202.464 3.004 1.272.847.854 1.26 1.843 1.26 3.02a4.333 4.333 0 01-1.26 3.02c-.849.856-1.832 1.272-3.004 1.272zm-2.036-6.403a4.28 4.28 0 00-.905 2.193c.005.74.283 1.403.878 2.003.547.551 1.318.88 2.063.88.811 0 1.467-.28 2.062-.88a3.033 3.033 0 00.873-2.085c0-.82-.277-1.483-.874-2.085-.546-.55-1.316-.879-2.061-.879-.8 0-1.447.272-2.036.853z"/><path fill="#FADE4D" d="M30.389 93.019c-.762 0-1.308-.248-1.667-.758-.33-.358-.665-1.016-.665-1.588 0-.269.054-1.169.749-1.674.362-.34 1.005-.673 1.583-.673.762 0 1.308.248 1.668.758.33.357.665 1.016.665 1.589 0 .764-.245 1.311-.75 1.674-.363.34-1.005.672-1.583.672zm0-3.494c-.206 0-.597.182-.774.36l-.091.076c-.184.123-.268.455-.268.712 0 .214.178.603.36.786l.075.092c.088.136.216.268.698.268.21 0 .594-.178.774-.36l.09-.075c.13-.087.27-.22.27-.711 0-.215-.178-.605-.36-.787l-.075-.092c-.089-.136-.217-.269-.7-.269z"/><path fill="#C699F2" d="M119.701 39.915c.533-.537 1.2-.806 1.999-.806.8 0 1.467.269 2 .806.533.538.8 1.21.8 2.016s-.267 1.478-.8 2.015c-.533.538-1.2.807-2 .807-.799 0-1.466-.269-1.999-.807-.534-.537-.8-1.209-.8-2.015 0-.672.266-1.478.8-2.016z"/><path fill="#17DDBA" d="M7.258 74.158c1.067-1.075 2.133-2.553 2.8-3.897.267-.537 0-1.074-.533-1.209a17.472 17.472 0 00-5.2-.806c-.533 0-.933.537-.8 1.075.267 1.478.934 3.09 1.734 4.434.4 1.344 1.066 1.344 2 .403z"/><path fill="#FADE4D" d="M124.973 75.17c.133-.94.933-1.746 1.999-1.746l2.133.134.133-2.284c.134-.94.934-1.747 2-1.747a2.03 2.03 0 011.733 2.016l-.133 2.284 2.133.134a2.03 2.03 0 011.733 2.016c-.134.94-.933 1.747-2 1.747l-2.133-.135-.133 2.285c-.133.94-.933 1.746-2 1.746a2.03 2.03 0 01-1.733-2.015l.134-2.284-2.133-.135c-1.067-.134-1.867-.94-1.733-2.015z"/><path fill="#00A2FF" d="M38.32 16.04c.4.941-.133 2.016-1.066 2.285l-2 .672.8 2.15c.4.94-.133 2.015-1.066 2.284-.933.403-2-.134-2.267-1.075l-.8-2.15-2 .672c-.932.403-1.999-.134-2.265-1.075-.4-.94.133-2.016 1.066-2.284l2-.672-.8-2.15c-.4-.94.133-2.016 1.066-2.284a1.68 1.68 0 012.267 1.075l.8 2.15 2-.672c.932-.403 1.865.134 2.265 1.075z"/><path fill="none" d="M0 0h146v100H0z"/></symbol><symbol viewBox="0 0 25 25" id="lessons-menu"><path d="M0 2.5C0 1.1 1.1 0 2.5 0S5 1.1 5 2.5 3.9 5 2.5 5 0 3.9 0 2.5zm0 10C0 11.1 1.1 10 2.5 10S5 11.1 5 12.5 3.9 15 2.5 15 0 13.9 0 12.5zm0 10C0 21.1 1.1 20 2.5 20S5 21.1 5 22.5 3.9 25 2.5 25 0 23.9 0 22.5zm10-20C10 1.1 11.1 0 12.5 0S15 1.1 15 2.5 13.9 5 12.5 5 10 3.9 10 2.5zm0 10c0-1.4 1.1-2.5 2.5-2.5s2.5 1.1 2.5 2.5-1.1 2.5-2.5 2.5-2.5-1.1-2.5-2.5zm0 10c0-1.4 1.1-2.5 2.5-2.5s2.5 1.1 2.5 2.5-1.1 2.5-2.5 2.5-2.5-1.1-2.5-2.5zm10-20C20 1.1 21.1 0 22.5 0S25 1.1 25 2.5 23.9 5 22.5 5 20 3.9 20 2.5zm0 10c0-1.4 1.1-2.5 2.5-2.5s2.5 1.1 2.5 2.5-1.1 2.5-2.5 2.5-2.5-1.1-2.5-2.5zm0 10c0-1.4 1.1-2.5 2.5-2.5s2.5 1.1 2.5 2.5-1.1 2.5-2.5 2.5-2.5-1.1-2.5-2.5z"/></symbol><symbol viewBox="0 0 32 32" id="locked"><path d="M20.8 10.7h-9.7v-3c0-2.6 2.2-4.7 4.8-4.7 2.7 0 4.8 2.1 4.8 4.7v3zM16 24.4c-1.7 0-3.1-1.4-3.1-3 0-1.7 1.4-3 3.1-3s3.1 1.4 3.1 3-1.4 3-3.1 3zm9.4-13.7h-1.6v-3C23.8 3.4 20.4 0 16 0S8.2 3.4 8.2 7.6v3H6.6c-1.7 0-3.1 1.4-3.1 3V29c0 1.7 1.4 3 3.1 3h18.8c1.7 0 3.1-1.4 3.1-3V13.7c0-1.7-1.4-3-3.1-3z"/></symbol><symbol viewBox="0 0 58 58" id="new-test-es_ES"><path fill-rule="evenodd" clip-rule="evenodd" fill="#F8CB4A" d="M0 5.305h13.232L6.303 0H4.255S.469.128 0 5.305zM52.695 58l-.006-14.9 5.307 8.593.004 2.052s-.126 3.784-5.305 4.256z"/><path fill-rule="evenodd" clip-rule="evenodd" fill="#FADE4D" d="M5.834 0h39.1s10.672 2.048 13.062 13.314v38.49S47.068 30.557 5.834 0z"/><path d="M34.497 5.32c.001.643-.284 1.26-.854 1.852-.57.59-1.175.896-1.816.915-.64.02-1.248-.25-1.822-.804l-.483-.465-1.718 1.78-1.125-1.084 5.346-5.542 1.607 1.551c.575.554.864 1.154.865 1.797zm-2.764 1.17c.248-.025.5-.17.755-.434.259-.27.397-.528.414-.778.015-.249-.09-.483-.317-.702l-.467-.45-1.565 1.623.466.45c.227.22.465.316.714.29zm2.314 4.54l-.396-.382-1.795 1.86-1.124-1.084 5.346-5.541 1.607 1.55c.55.53.822 1.105.817 1.727-.004.623-.286 1.224-.847 1.805-.361.375-.74.634-1.133.78-.394.144-.786.17-1.177.079l-.98 3.106-1.226-1.184.908-2.716zm.635-1.45l.467.45c.201.194.417.274.647.241.23-.032.465-.172.704-.42.244-.254.379-.496.403-.728.025-.23-.063-.443-.264-.637l-.467-.45-1.49 1.543zm.925 5.76c.006-.641.295-1.257.865-1.848l1.879-1.948c.57-.59 1.175-.901 1.815-.931.64-.03 1.242.227 1.807.772.564.545.844 1.139.837 1.779-.007.64-.295 1.257-.865 1.848l-1.879 1.947c-.57.59-1.175.901-1.815.93-.64.031-1.243-.227-1.807-.772-.565-.544-.845-1.137-.837-1.778zm2.56.941c.236-.033.48-.181.735-.445l1.88-1.947c.254-.264.393-.514.417-.75.025-.237-.07-.457-.28-.66s-.435-.29-.67-.257c-.235.033-.48.181-.734.445l-1.88 1.948c-.254.263-.393.513-.418.75-.024.236.07.457.28.66.211.204.435.29.67.256zm6.334-2.273l1.109 1.07-1.27 3.422a23.31 23.31 0 01-.313.721l-.313.723.047-.002c.278-.384.603-.798.977-1.243s.69-.802.949-1.07l1.237-1.284 1.109 1.07-5.347 5.541-1.108-1.07 1.136-3.045.807-1.835-.046.001a26.48 26.48 0 01-1.043 1.287c-.412.479-.773.88-1.084 1.2l-1.085 1.125-1.108-1.069 5.346-5.542zm6.435 8.271l-1.085-1.046-4.314 4.472-1.156-1.115 4.314-4.473-1.084-1.046 1.03-1.068 3.326 3.207-1.03 1.069zm-2.996 4.959c.007-.641.296-1.257.866-1.848l1.879-1.947c.57-.592 1.175-.902 1.815-.932.64-.03 1.242.227 1.807.773.564.544.844 1.138.837 1.778-.007.641-.295 1.256-.865 1.847L52.4 28.857c-.57.591-1.175.902-1.815.931-.64.03-1.243-.228-1.807-.772-.565-.546-.845-1.138-.837-1.778zm2.561.942c.236-.033.48-.182.735-.445l1.879-1.948c.254-.264.394-.514.418-.75.024-.236-.07-.457-.28-.66-.211-.204-.435-.29-.67-.257-.235.033-.48.182-.735.446l-1.878 1.947c-.255.264-.394.514-.419.75-.024.237.07.457.28.66s.435.29.67.257z" fill="#434D66"/><path fill="none" d="M0 0h58v58H0z"/></symbol><symbol viewBox="0 0 58 58" id="new-test-it_IT"><path fill-rule="evenodd" clip-rule="evenodd" fill="#F8CB4A" d="M0 5.305h13.232L6.303 0H4.255S.469.128 0 5.305zM52.695 58l-.006-14.9 5.307 8.593.004 2.052s-.126 3.784-5.305 4.256z"/><path fill-rule="evenodd" clip-rule="evenodd" fill="#FADE4D" d="M5.834 0h39.1s10.672 2.048 13.062 13.314v38.49S47.068 30.557 5.834 0z"/><path d="M29.597 1.868l1.022.986-4.86 5.038-1.021-.986 4.86-5.038zm1.915 1.848l1.007.971-1.153 3.111c-.077.186-.172.404-.285.656l-.286.656.043-.001c.253-.348.549-.725.889-1.13.339-.404.626-.73.862-.974l1.125-1.166 1.008.973-4.86 5.037-1.008-.972 1.033-2.769.733-1.668h-.042c-.258.345-.574.735-.948 1.17-.374.436-.703.8-.985 1.093l-.986 1.022-1.007-.972 4.86-5.037zm3.35 11.346l-1.064-1.027-.972.674-1.057-1.02 6.069-3.871 1.094 1.055-3.652 6.204-1.057-1.02.64-.995zm.736-1.166l.44-.687c.29-.434.667-.96 1.132-1.576l-.029-.028c-.706.569-1.218.965-1.534 1.188l-.671.464.662.639zm3.164 3.274l-.36-.347-1.631 1.691-1.023-.985 4.86-5.038 1.462 1.41c.5.481.746 1.004.742 1.57-.004.566-.26 1.113-.77 1.64-.328.341-.672.577-1.03.709-.358.13-.715.155-1.07.071l-.89 2.824-1.115-1.076.825-2.468zm.577-1.318l.425.41c.182.175.378.249.588.219.209-.03.422-.157.64-.383.222-.23.344-.45.367-.66.021-.21-.059-.405-.241-.58l-.425-.41-1.354 1.404zm3.209 4.97l-.36-.347-1.632 1.691-1.022-.986 4.86-5.037 1.462 1.41c.499.48.745 1.004.742 1.57-.005.565-.26 1.113-.77 1.64-.329.341-.673.577-1.03.708a1.833 1.833 0 01-1.071.072l-.89 2.824-1.115-1.076.826-2.469zm.577-1.318l.424.409c.183.176.379.25.588.219.21-.03.423-.157.64-.382.223-.23.345-.451.367-.661.022-.21-.059-.404-.241-.58l-.424-.409-1.354 1.404zm5.055.291l1.022.985-4.86 5.038-1.022-.986 4.86-5.037zm1.49 1.437l1.058 1.02-1.845 2.82c-.266.41-.647.945-1.145 1.604l.028.028a29.229 29.229 0 011.563-1.202l2.751-1.945 1.058 1.02-6.054 3.886-1.08-1.041 3.666-6.19zm-.279 8.742c.007-.582.268-1.142.787-1.68l1.708-1.77c.519-.538 1.068-.82 1.65-.847.582-.026 1.13.207 1.644.703.513.495.767 1.034.76 1.617-.006.582-.268 1.141-.786 1.678l-1.708 1.77c-.519.539-1.069.821-1.65.848-.582.027-1.13-.207-1.643-.702-.514-.496-.767-1.035-.762-1.617zm2.329.856c.213-.03.436-.164.668-.403l1.708-1.771c.231-.24.357-.468.38-.683.021-.215-.063-.415-.255-.6s-.394-.262-.608-.233c-.214.03-.437.165-.669.405l-1.708 1.77c-.231.24-.358.468-.38.682-.022.216.062.415.255.6.192.185.394.263.609.233z" fill="#434D66"/><path fill="none" d="M0 0h58v58H0z"/></symbol><symbol viewBox="0 0 58 58" id="new-test-ro_RO"><path fill-rule="evenodd" clip-rule="evenodd" fill="#F8CB4A" d="M0 5.305h13.232L6.303 0H4.255S.469.128 0 5.305zM52.695 58l-.006-14.9 5.307 8.593.004 2.052s-.126 3.784-5.305 4.256z"/><path fill-rule="evenodd" clip-rule="evenodd" fill="#FADE4D" d="M5.834 0h39.1s10.672 2.048 13.062 13.314v38.49S47.068 30.557 5.834 0z"/><path d="M27.49 7.437c0-.597.277-1.183.832-1.758L30.4 3.526c.56-.581 1.141-.881 1.742-.903s1.174.23 1.717.755c.555.535.833 1.101.836 1.7s-.267 1.202-.811 1.808L32.76 5.802c.228-.27.346-.507.352-.715.007-.207-.097-.415-.314-.624-.359-.347-.768-.282-1.226.193l-2.077 2.153c-.448.465-.493.87-.134 1.217.217.209.431.308.644.299.212-.01.443-.127.693-.355l1.125 1.085c-.57.57-1.158.86-1.763.867-.604.009-1.187-.26-1.753-.804-.543-.524-.815-1.085-.815-1.681zm4.1 3.893c.01-.627.294-1.232.854-1.812l3.643-3.777 1.148 1.108-3.643 3.776c-.244.254-.379.493-.403.719-.024.227.06.434.256.622s.406.266.63.233c.226-.032.46-.175.704-.428l3.643-3.777 1.148 1.108-3.642 3.776c-.56.58-1.154.887-1.781.92-.627.03-1.212-.215-1.756-.74-.543-.524-.81-1.1-.801-1.728zm6.836 3.775l-.396-.382-1.795 1.86-1.123-1.084 5.345-5.542 1.608 1.551c.549.53.82 1.105.816 1.728-.003.623-.286 1.224-.846 1.804-.362.375-.74.635-1.133.78-.395.144-.787.17-1.177.08l-.979 3.105-1.227-1.184.907-2.716zm.636-1.45l.466.45c.202.194.417.274.647.241.23-.032.465-.172.705-.42.244-.254.378-.496.402-.728.025-.23-.063-.443-.264-.637l-.467-.45-1.49 1.543zm3.15 6.92l-1.172-1.13-1.068.743-1.163-1.123 6.675-4.259 1.203 1.161-4.015 6.825-1.164-1.122.704-1.095zm.809-1.282l.485-.756c.317-.477.732-1.055 1.244-1.733l-.032-.03a37.41 37.41 0 01-1.688 1.305l-.737.511.728.703zm3.917-4.108l.171-.859-.86.195-.705-.68 1.688-.467.816.787-.405 1.704-.705-.68zm1.594 2.562l1.109 1.07-1.27 3.421c-.084.205-.188.445-.312.722l-.314.722.046-.002c.279-.383.604-.798.978-1.242.373-.445.69-.802.948-1.072l1.238-1.282 1.108 1.07-5.346 5.541-1.109-1.07 1.136-3.046.807-1.835-.046.002a25.86 25.86 0 01-1.043 1.286c-.412.479-.773.88-1.083 1.202l-1.084 1.124-1.109-1.07 5.346-5.54zm4.512 4.353l1.52 1.467c.56.54.84 1.12.841 1.743.001.622-.279 1.223-.84 1.804l-1.763 1.829c-.57.59-1.169.903-1.796.934-.627.032-1.218-.219-1.772-.754l-1.536-1.482 5.346-5.541zm-2.778 5.955c.2.193.42.272.657.237s.484-.185.74-.449l1.763-1.83c.244-.252.376-.495.395-.726.02-.23-.07-.443-.271-.636l-.412-.397-3.284 3.403.412.398z" fill="#434D66"/><path fill="none" d="M0 0h58v58H0z"/></symbol><symbol fill="none" viewBox="0 0 48 48" id="no-category"><path d="M21.497 32.122h4.29v-1.903c0-6.418 6.213-7.17 6.213-14.34C32 11.186 28.693 8 24 8s-7.732 3.275-8 8.498h4.201c.09-2.877 1.52-4.515 3.844-4.515 2.413 0 3.664 1.727 3.664 3.94 0 5.62-6.212 6.24-6.212 14.207v1.992zM23.732 40c1.609 0 2.681-1.062 2.681-2.7 0-1.593-1.072-2.655-2.681-2.655-1.654 0-2.726 1.062-2.726 2.655 0 1.638 1.072 2.7 2.726 2.7z" fill="#D2D4D7"/></symbol><symbol viewBox="0 0 20 20" id="plus"><path d="M11.6 0H8.4v8.4H0v3.2h8.4V20h3.2v-8.4H20V8.4h-8.4V0z"/></symbol><symbol viewBox="0 0 32 32" id="search-icon"><path class="bhst0" d="M31 26.8l-8.5-8.5c1.1-1.6 1.8-3.5 1.8-5.6C24.3 7.3 20 3 14.7 3 9.3 3 5 7.3 5 12.7c0 5.3 4.3 9.7 9.7 9.7 2.1 0 4-.7 5.6-1.8l8.5 8.5 2.2-2.3zM14.5 19C10.9 19 8 16.1 8 12.5S10.9 6 14.5 6 21 8.9 21 12.5 18.1 19 14.5 19z"/></symbol><symbol viewBox="0 0 24 24" id="settings"><path d="M19 5a1.001 1.001 0 010 2 1.001 1.001 0 010-2zm0 4c1.654 0 3-1.346 3-3s-1.346-3-3-3a2.993 2.993 0 00-2.815 2H2v2h14.185A2.993 2.993 0 0019 9zM9 13a1.001 1.001 0 010-2 1.001 1.001 0 010 2zm0-4a2.993 2.993 0 00-2.815 2H2v2h4.185A2.993 2.993 0 009 15a2.993 2.993 0 002.815-2H22v-2H11.815A2.993 2.993 0 009 9zm10 10a1.001 1.001 0 010-2 1.001 1.001 0 010 2zm0-4a2.993 2.993 0 00-2.815 2H2v2h14.185A2.993 2.993 0 0019 21c1.654 0 3-1.346 3-3s-1.346-3-3-3z"/></symbol><symbol viewBox="0 0 32 32" id="social-icon-circle-facebook"><path d="M32 16c0-8.837-7.163-16-16-16S0 7.163 0 16c0 7.986 5.851 14.605 13.5 15.806V20.625H9.437V16H13.5v-3.525c0-4.01 2.389-6.225 6.043-6.225 1.751 0 3.582.313 3.582.313V10.5h-2.018c-1.987 0-2.607 1.233-2.607 2.499V16h4.438l-.71 4.625H18.5v11.18C26.149 30.606 32 23.987 32 16z"/></symbol><symbol viewBox="0 0 36 36" id="social-icon-circle-instagram"><path d="M29.5 22.6c-.1 1.2-.2 2-.5 2.7-.3.7-.7 1.3-1.3 1.9-.6.6-1.2 1-1.9 1.3-.7.3-1.5.5-2.7.5h-4.5c-3 0-3.3 0-4.5-.1-1.2-.1-2-.2-2.7-.5-.7-.3-1.3-.7-1.9-1.3-.6-.6-1-1.2-1.3-1.9-.3-.7-.5-1.5-.5-2.7-.1-1.2-.1-1.5-.1-4.5s0-3.4.1-4.5c.1-1.2.2-2 .5-2.7.3-.7.7-1.3 1.3-1.9.6-.6 1.2-1 1.9-1.3.7-.3 1.5-.5 2.7-.5 1.2-.1 1.5-.1 4.5-.1s3.3 0 4.5.1c1.2.1 2 .2 2.7.5.7.3 1.3.7 1.9 1.3.6.6 1 1.2 1.3 1.9.3.7.5 1.5.5 2.7.1 1.2.1 1.5.1 4.5s0 3.4-.1 4.6zM18 0C8.1 0 0 8.1 0 18s8.1 18 18 18 18-8.1 18-18S27.9 0 18 0z"/><path d="M24.5 13.5c-.7 0-1.3-.6-1.3-1.3 0-.7.6-1.3 1.3-1.3.7 0 1.3.6 1.3 1.3 0 .7-.6 1.3-1.3 1.3zm-5.9 10.2c-3.1 0-5.6-2.5-5.6-5.6 0-3.1 2.5-5.6 5.6-5.6 3.1 0 5.6 2.5 5.6 5.6 0 3-2.5 5.6-5.6 5.6zm8.6-12.2c-.2-.5-.4-.9-.8-1.3s-.7-.6-1.3-.8c-.4-.2-1-.3-2-.4h-4.5c-2.9 0-3.3 0-4.4.1-1.1 0-1.6.2-2 .4-.5.2-.9.4-1.3.8s-.6.7-.8 1.3c-.2.4-.3 1-.4 2-.1 1.2-.1 1.5-.1 4.4s0 3.3.1 4.4c0 1.1.2 1.7.4 2 .2.5.4.9.8 1.3s.7.6 1.3.8c.4.2 1 .3 2 .4 1.2.1 1.5.1 4.4.1s3.3 0 4.4-.1c1.1 0 1.6-.2 2-.4.5-.2.9-.4 1.3-.8s.6-.7.8-1.3c.2-.4.3-1 .4-2 .1-1.2.1-1.5.1-4.4s0-3.3-.1-4.4c0-1.1-.2-1.7-.3-2.1z"/><path d="M18.6 14.4c-2 0-3.6 1.6-3.6 3.7s1.6 3.7 3.6 3.7 3.6-1.6 3.6-3.7-1.5-3.7-3.6-3.7z"/></symbol><symbol viewBox="0 0 146 100" id="streak-big-gift"><path fill="#FB565F" d="M123.538 19.232c-.77 0-1.53-.322-2.087-.883-.589-.593-.875-1.28-.875-2.098.098-.812.372-1.468.84-2.06l.035-.039c.59-.594 1.273-.883 2.087-.883.77 0 1.53.322 2.087.883.589.594.875 1.28.875 2.099a3.01 3.01 0 01-.875 2.098c-.59.594-1.273.883-2.087.883zm-1.414-4.448a2.973 2.973 0 00-.629 1.524c.004.514.196.974.61 1.391.38.383.915.61 1.433.61.564 0 1.02-.193 1.433-.61.38-.383.606-.925.606-1.448 0-.57-.192-1.03-.607-1.449a2.065 2.065 0 00-1.432-.61c-.555 0-1.005.188-1.414.592z"/><path fill="#17DDBA" d="M7.258 74.158c1.067-1.075 2.133-2.553 2.8-3.897.267-.537 0-1.074-.533-1.209a17.472 17.472 0 00-5.2-.806c-.533 0-.933.537-.8 1.075.267 1.478.934 3.09 1.734 4.434.4 1.344 1.066 1.344 2 .403z"/><path fill="#FADE4D" d="M124.973 51.17c.133-.94.933-1.746 1.999-1.746l2.133.134.133-2.284c.134-.94.934-1.747 2-1.747a2.03 2.03 0 011.733 2.016l-.133 2.284 2.133.134a2.03 2.03 0 011.733 2.016c-.134.94-.933 1.747-2 1.747l-2.133-.135-.133 2.285c-.133.94-.933 1.746-2 1.746a2.03 2.03 0 01-1.733-2.015l.134-2.284-2.133-.135c-1.067-.134-1.867-.94-1.733-2.015z"/><path fill="#00A2FF" d="M38.32 16.04c.4.941-.133 2.016-1.066 2.285l-2 .672.8 2.15c.4.94-.133 2.015-1.066 2.284-.933.403-2-.134-2.267-1.075l-.8-2.15-2 .672c-.932.403-1.999-.134-2.265-1.075-.4-.94.133-2.016 1.066-2.284l2-.672-.8-2.15c-.4-.94.133-2.016 1.066-2.284a1.68 1.68 0 012.267 1.075l.8 2.15 2-.672c.932-.403 1.865.134 2.265 1.075z"/><path fill="none" d="M0 0h146v100H0z"/><path fill="#C699F2" d="M134.558 85.78c.438-.442.986-.663 1.642-.663.657 0 1.205.221 1.643.662.438.442.657.994.657 1.656 0 .662-.22 1.214-.657 1.655-.438.442-.986.663-1.643.663-.656 0-1.204-.221-1.642-.662-.438-.442-.657-.994-.657-1.656 0-.552.218-1.214.657-1.656z"/><path fill="#F2842A" d="M121.397 63.537s-8.27-4.959-15.445 3.588c-8.889 10.589-1.749 24.746-11.17 30.17 6.608 5.009 30.993 2.73 25.364-20.578-2.678-11.086 1.251-13.18 1.251-13.18z"/><path fill="#FFA92C" d="M95.21 96.123s13.242-1.766 13.242-14.125c0-9.712 2.65-9.712 2.65-9.712s-8.83-1.765-11.478 6.18c-2.648 7.946-4.414 17.657-4.414 17.657z"/><path fill="#F2842A" d="M95.201 20.227c2.268 14.828-8.372 19.36-8.372 19.36C92.586 9.768 63.46 0 63.46 0c2.266 20.403-22.325 26.507-22.325 50.752 0 19.168 15.539 34.708 34.708 34.708 19.169 0 34.707-14.824 34.707-34.36 0-23.72-15.348-30.873-15.348-30.873"/><path fill="#FFA92C" d="M77.284 78.623S56.627 72.502 55.54 54.139c-1.087-18.364 18.483-24.485 18.483-35.706 0 0 13.047 14.282 3.262 30.604-9.785 16.323 0 29.586 0 29.586"/><path fill="#F4AF40" d="M94.401 49.73c7.609 3.449 8.354 21.338-9.676 25.182 0 0-6.796-6.009-.92-14.016 3.31-4.508 12.676-5.638 10.596-11.167"/><path fill="#F4D8B8" d="M65.88 14.499a.95.95 0 01-.9-1.26c.806-2.35.939-3.898.939-3.914a.957.957 0 011.023-.873.953.953 0 01.875 1.022c-.005.071-.145 1.782-1.038 4.382a.951.951 0 01-.9.643zm-.67.832a.95.95 0 00-1.265.462c-.145.316-.307.65-.478.991a.952.952 0 00.41 1.282.953.953 0 001.282-.419c.188-.359.359-.709.513-1.05a.951.951 0 00-.462-1.266zm-11.408 15.58a.944.944 0 00-1.333.171c-.24.299-.47.606-.701.923a.954.954 0 00.196 1.333c.17.119.368.18.564.18a.95.95 0 00.769-.385c.223-.299.444-.599.676-.889a.944.944 0 00-.171-1.333zm8.204-8.315a57.628 57.628 0 01-1.804 2.256c-.137.17-.606.717-.743.88-.513.598-1.034 1.197-1.556 1.803-.718.83-1.444 1.666-2.162 2.52a.948.948 0 11-1.452-1.221c.718-.863 1.452-1.709 2.179-2.547.521-.598 1.034-1.187 1.538-1.786.136-.162.598-.7.735-.863a73.204 73.204 0 001.752-2.197.952.952 0 011.513 1.155z"/><path fill="#F2842A" d="M36.941 51.098s0 6.18 9.52 9.192c15.824 5.006 2.1 29.71 13.41 36.22-6.118 7.659-41.166 1.994-34.407-25.99C28.679 57.213 36.94 51.099 36.94 51.099z"/><path fill="#FFA92C" d="M37.056 69.763c3.417 9.587 23.481 9.467 20.191 27.244-24.817.36-23.837-22.072-20.191-27.244z"/><path fill="#00A2FF" d="M102.137 56.898H50.07V100h52.066V56.898"/><path fill="#00A2FF" d="M102.137 58.009H50.07v2.79h52.066v-2.79"/><path fill="#008DFF" d="M72.763 58.014H50.07v2.785h22.692v-2.785m29.374 0H79.585v2.785h22.552v-2.785"/><path fill="#35DDBA" d="M56.614 47.97s3.48-14.645 16.984-1.255v1.256H56.614m39.119-.001s-3.48-14.645-16.984-1.255v1.256h16.984"/><path fill="#35DDBA" d="M76.104 50.76a2.787 2.787 0 002.785-2.79 2.787 2.787 0 00-2.785-2.79 2.787 2.787 0 00-2.785 2.79 2.787 2.787 0 002.785 2.79"/><path fill="#35DDBA" d="M76.104 45.18a2.784 2.784 0 00-2.785 2.79h3.648l.802-2.236a2.77 2.77 0 00-1.665-.553"/><path fill="#29D5AB" d="M76.104 45.18a2.784 2.784 0 00-2.785 2.79h3.648l.802-2.236a2.77 2.77 0 00-1.665-.553"/><path fill="#00A2FF" d="M103.25 58.014H48.959c-.974 0-1.67-.697-1.67-1.674v-6.696c0-.976.696-1.673 1.67-1.673h54.293c.974 0 1.67.697 1.67 1.673v6.696c0 .976-.696 1.674-1.67 1.674"/><path fill="#35DDBA" d="M102.456 80.956v-6.834h-52.76v6.834h52.76"/><path fill="#35DDBA" d="M79.585 47.97h-6.822v52.028h6.822V47.971"/><path fill="#35DDBA" d="M79.585 47.97h-3.411v52.028h3.411V47.971"/><path fill="#29D5AB" d="M79.585 47.97h-3.411v52.028h3.411V47.971"/><path fill="#00D1FF" d="M58.285 50.432h-8.63a.915.915 0 00-.593.197c-.187.151-.296.408-.292.687.002.25.116.46.269.616a.883.883 0 00.616.269h8.63a.884.884 0 00.615-.27.888.888 0 00.27-.615.887.887 0 00-.27-.615.88.88 0 00-.615-.27m5.429.001h-2.228a.918.918 0 00-.592.197c-.186.151-.296.408-.291.687.002.25.116.46.27.616a.88.88 0 00.613.269h2.228a.88.88 0 00.613-.27.886.886 0 00.27-.615.883.883 0 00-.27-.615.88.88 0 00-.613-.27"/></symbol><symbol viewBox="0 0 16 16" id="streak-small-gift"><path d="M11.5 7h-1.12c.16-.04.31-.08.44-.13.16-.07.33-.16.46-.3.15-.16.24-.39.22-.67-.02-.24-.13-.46-.26-.65-.13-.2-.32-.41-.56-.64-.38-.37-.75-.59-1.11-.61-.38-.02-.69.17-.94.46-.23.29-.41.67-.56 1.07-.03.07-.05.14-.07.21-.02-.07-.04-.14-.07-.21-.15-.4-.33-.78-.56-1.07-.25-.29-.56-.48-.94-.46-.36.02-.73.24-1.11.61-.24.23-.43.44-.56.64-.13.19-.24.41-.26.65-.02.28.07.51.22.67.13.14.3.23.46.3.13.05.28.09.44.13H4.5c-.55 0-1 .45-1 1v1h4V7h1v2h4V8c0-.55-.45-1-1-1zm-4.71-.65c-.1-.02-.19-.03-.28-.05-.48-.07-.86-.14-1.11-.24-.1-.04-.16-.08-.19-.1.01-.04.04-.09.09-.17.09-.13.24-.3.46-.52.32-.31.55-.41.71-.41.14-.01.27.05.41.22.14.17.28.44.42.81.06.17.12.36.19.57-.25-.04-.48-.08-.7-.11zm1.91-.46c.14-.37.28-.64.42-.81.14-.17.27-.23.41-.22.16 0 .39.1.71.41.22.22.37.39.46.52.05.08.08.13.09.17a.97.97 0 01-.19.1c-.25.1-.63.17-1.11.24-.09.02-.18.03-.28.05-.22.03-.45.07-.7.11.07-.21.13-.4.19-.57zM7.5 10v2h-3c-.55 0-1-.45-1-1v-1h4zm5 0v1c0 .55-.45 1-1 1h-3v-2h4z" fill="#FADE4D"/></symbol><symbol viewBox="0 0 64 64" id="success-checkmark"><circle fill="#FFF" cx="32" cy="32" r="32"/><path d="M26.9 51L8 31.7l7.2-7.3 11.7 11.9L48.8 14l7.2 7.3L26.9 51z"/></symbol><symbol viewBox="0 0 24 24" id="video-key"><path d="M12 24c6.6 0 12-5.4 12-12S18.6 0 12 0 0 5.4 0 12s5.4 12 12 12z"/><path fill="#FFF" d="M17.5 6.5c-1.4-1.6-3.8-1.6-5.4 0-1.3 1.2-1.5 3-.7 4.5l-5.2 5.2c-.4.4-.4 1.1 0 1.4l1.9 1.9c.5.4 1.1.4 1.4 0 .4-.4.4-1.1 0-1.4l-1.2-1.2.4-.4 1.3 1.3c.4.2 1.1.2 1.4-.1.4-.4.4-1.1 0-1.4L10.3 15l2.6-2.6c1.4.9 3.4.7 4.7-.6 1.5-1.4 1.5-3.8-.1-5.3zm-1.4 3.9c-.7.7-1.9.7-2.6 0-.7-.7-.7-1.8 0-2.6.7-.7 1.9-.7 2.6 0 .7.7.7 1.9 0 2.6z"/></symbol><symbol viewBox="0 0 40 40" id="x-sign"><path d="M5.94 28.628L28.568 6l5.656 5.657-22.627 22.627z"/><path d="M5.94 11.657L11.597 6l22.627 22.627-5.656 5.657z"/></symbol><symbol viewBox="0 0 36 36" id="logo-telegram-footer"><path fill-rule="evenodd" clip-rule="evenodd" d="M18 0C8.055 0 0 8.055 0 18s8.055 18 18 18 18-8.055 18-18S27.945 0 18 0zm6.3 25.177c-.247 1.35-.743 1.812-1.226 1.845-1.046.102-1.834-.686-2.846-1.35-1.587-1.035-2.487-1.687-4.028-2.7-1.766-1.17-.619-1.81.394-2.868.27-.27 4.871-4.455 4.96-4.838.012-.045.023-.225-.09-.315-.1-.1-.258-.067-.37-.045-.158.045-2.69 1.71-7.594 5.018-.709.495-1.361.742-1.946.72-.642-.012-1.88-.36-2.802-.653-1.125-.371-2.025-.562-1.946-1.192.045-.315.495-.653 1.339-.99 5.254-2.284 8.752-3.792 10.496-4.523 5.007-2.081 6.041-2.441 6.716-2.452.147 0 .484.033.698.213.18.147.236.35.259.484.022.146.056.461.033.709-.27 2.846-1.45 9.754-2.047 12.937z"/></symbol><symbol viewBox="0 0 32 32" id="logo-telegram-header"><defs><path id="ba" d="M0 0h32v32H0z"/></defs><clipPath id="bb"><use xlink:href="#ba" overflow="visible"/></clipPath><path clip-path="url(#bb)" fill-rule="evenodd" clip-rule="evenodd" d="M5.218 14.56c6.711-2.924 11.186-4.852 13.425-5.783 6.393-2.66 7.722-3.12 8.588-3.136.19-.003.616.044.892.267.233.19.297.445.327.624.031.179.07.587.039.906-.347 3.64-1.846 12.474-2.608 16.55-.323 1.726-.958 2.304-1.573 2.361-1.337.123-2.352-.883-3.647-1.732-2.026-1.328-3.17-2.155-5.137-3.451-2.273-1.498-.8-2.321.495-3.667.34-.352 6.23-5.71 6.344-6.195.014-.061.027-.288-.107-.407-.135-.12-.334-.079-.477-.046-.203.046-3.44 2.185-9.71 6.418-.919.63-1.751.938-2.497.922-.822-.018-2.403-.465-3.578-.847-1.442-.469-2.588-.717-2.488-1.512.052-.415.623-.839 1.712-1.272z"/></symbol><symbol viewBox="0 0 24 24" id="phone-icon"><path d="M6.377 5.883c.313-.77.81-1.463 1.451-1.976.696-.557 1.692-1.185 2.6-.776.251.113.455.295.613.518.108.152.195.325.263.515.014.04.607 1.97.826 2.908.147.63.036 1.063-.355 1.406a2.262 2.262 0 01-.45.299c-.42.219-.857.403-1.295.585l-.183.076-.515.2.189.557c1.015 2.923 2.607 5.461 4.786 7.608l.357.393.45-.44c.342-.373.674-.764 1.063-1.078.685-.554 1.223-.586 1.916-.047.815.633 1.618 1.296 2.337 2.039.794.82.738 1.606-.04 2.445-.674.726-1.51 1.145-2.466 1.323-1.232.23-2.632-.202-3.71-.848a16.353 16.353 0 01-2.55-1.878l-1.075-1.066c-1.92-2.093-3.244-4.656-4.095-7.57-.473-1.622-.769-3.593-.117-5.193z"/></symbol></svg>