<svg preserveAspectRatio="xMinYMid" xmlns="http://www.w3.org/2000/svg" xmlns:xlink="http://www.w3.org/1999/xlink"><symbol viewBox="0 0 64 64" id="category-1"><path d="M21.9 22.3c-.4 1.5-.8 3.1-1.7 4.3-2.4-1-3.9-3-4.3-5.5-.2-1.7.2-3.2 1.3-4.6 1.1-1.3 2.5-2 4.2-2 8.7 0 17.5 0 26.2.1.3 1.5.3 3.2 0 4.7-2.5 0-5 0-7.4.1.1 8.2.1 16.5 0 24.7 0 .8.7 1.5 1.5 1.5.9 0 1.6-.6 1.7-1.5 1.1-.4 3.2-.4 4.6.1-.2 3.4-3 5.6-6.3 5.5-3.4.1-6.2-2.3-6.3-5.8V19.4h-7.3c.1 9.8.2 19.6.1 29.4-1.5.3-3.2.3-4.6 0-.1-9.8 0-19.6.1-29.4h-2.3c-.3 0-.5.1-.6.3-.2.3-.3.6-.3.9.2.7.7 1.3 1.4 1.7z"/></symbol><symbol viewBox="0 0 64 64" id="category-10"><path d="M46.3 48.3c-8.5 0-18.4.1-26.9.1-.2 0-.4 0-.6.1-.2.1-.3.2-.5.3-.2.2-.3.3-.3.5-.1.2-.1.4-.1.6 0 .2 0 .4.1.6.1.2.2.4.3.5.2.2.3.3.5.3.2.1.4.1.6.1 8.5 0 18.4 0 26.9.1-.1-.9-.1-2 0-3.2zm4.7 7.8c-.7.2-1.5.3-2.3.3-3 0-16.5.1-29.4 0-3.9 0-6.3-3.5-6.3-7.3-.1-11.7-.1-23.4-.1-35.1.1-3.6 2.8-6.3 6.4-6.4h29.5c.8 0 1.6.1 2.3.3.1 8 .1 16.3 0 24.3 0 7.9 0 15.9-.1 23.9zm-4.7-12.4V12.4h-2.8V22l-4-3-4 3v-9.6h-8.7c.1 10.4.1 20.8 0 31.2 6.5 0 13 0 19.5.1zm-24.2-.1c-.1-10.4-.1-20.8 0-31.2h-2.8c-.9 0-1.6.7-1.6 1.6v29.8c.5-.1 1-.2 1.6-.2h2.8z"/></symbol><symbol viewBox="0 0 64 64" id="category-11"><path d="M27.8 34.3H24V20.2h3.8v14.1zm13.9-10.9h-4.1v10.9h-3.8V23.4h-4.1v-3.2h12v3.2zm16-14C42.9 9 21 9 6.3 9.4c-.4 12-.4 24.2 0 36.1 2.3.1 4.8.1 7.4.1v10.1l12-10c11.3.1 22.8 0 32.1-.2.3-12 .3-24.2-.1-36.1zm-4 32.1H24.5l-6.8 5.7v-5.7h-7.4V13.4h43.4v28.1z"/></symbol><symbol viewBox="0 0 32 32" id="category-12"><path d="M25.05 7.35c.2 6.04.2 12.181 0 18.22-7.4.152-10.75.152-18.15 0-.2-6.039-.2-12.18 0-18.22 7.45-.15 10.75-.15 18.15 0zm-11.8 8.607c-.15 0-.25.05-.35.151a.46.46 0 00-.15.353c0 .15.05.252.15.352.1.1.2.151.35.151s.25-.05.35-.15c.1-.102.15-.202.15-.353a.458.458 0 00-.15-.352.538.538 0 00-.35-.152zm8.8 5.134c.15 0 .25-.05.35-.15a.46.46 0 00.15-.353.458.458 0 00-.15-.352c-.1-.1-.2-.151-.35-.151-.15 0-.25.05-.35.15a.46.46 0 00-.15.353c0 .151.05.252.15.352.05.101.2.151.35.151zm-7.3 0h-5.8v2.467H23.1v-1.863c-.25.252-.65.403-1.05.403s-.8-.151-1.05-.453c-.2-.201-.35-.453-.4-.755-.05.302-.2.554-.4.755-.3.302-.7.453-1.1.453s-.8-.151-1.05-.453c-.2-.201-.35-.453-.4-.755-.05.302-.2.554-.4.755-.25.252-.65.453-1.05.453s-.8-.151-1.05-.453c-.2-.1-.3-.302-.4-.554zm-5.8-1.006h5.85c.1-.202.2-.403.35-.554.25-.252.65-.453 1.05-.453s.8.151 1.05.453c.2.201.35.453.4.755.05-.302.2-.554.4-.755.25-.252.65-.453 1.05-.453s.8.151 1.05.453c.2.201.35.453.4.755.05-.302.2-.554.4-.755.25-.252.65-.453 1.05-.453s.75.151 1.05.403v-2.567H20.5c-.1.201-.2.403-.35.554-.25.251-.65.452-1.05.452s-.8-.15-1.05-.453c-.2-.2-.35-.452-.4-.754-.05.302-.2.553-.4.755-.25.251-.65.452-1.05.452s-.8-.15-1.05-.453c-.2-.2-.35-.452-.4-.754-.05.302-.2.553-.4.755-.25.251-.65.452-1.05.452s-.8-.15-1.05-.453c-.15-.15-.3-.352-.35-.553H9v3.17h-.05zm7.25 1.006c.15 0 .25-.05.35-.15a.46.46 0 00.15-.353.458.458 0 00-.15-.352c-.1-.1-.2-.151-.35-.151-.15 0-.25.05-.35.15a.46.46 0 00-.15.353c0 .151.05.252.15.352.05.101.2.151.35.151zm2.9 0c.15 0 .25-.05.35-.15a.46.46 0 00.15-.353.458.458 0 00-.15-.352c-.1-.1-.2-.151-.35-.151s-.25.05-.35.15a.46.46 0 00-.15.353c0 .151.05.252.15.352.1.101.2.151.35.151zm-8.8-9.311c-.15 0-.25.05-.35.15-.1.102-.15.202-.15.353s.05.252.15.353c.1.1.2.15.35.15.15 0 .25-.05.35-.15.1-.101.15-.202.15-.353s-.05-.251-.15-.352c-.1-.05-.2-.151-.35-.151zm7.25 0h5.5V9.314H8.95v2.315l.3-.453c.25-.252.65-.453 1.05-.453s.8.151 1.05.453c.2.201.35.453.4.755.05-.302.2-.554.4-.755.25-.252.65-.453 1.05-.453s.8.151 1.05.453c.2.201.35.453.4.755.05-.302.2-.554.4-.755.25-.252.65-.453 1.05-.453s.8.151 1.05.453c.2.201.35.403.4.604zm5.5 1.007h-5.5c-.1.2-.2.402-.35.553-.25.252-.65.453-1.05.453s-.8-.15-1.05-.453c-.2-.201-.35-.453-.4-.755-.05.302-.2.554-.4.755-.25.252-.65.453-1.05.453s-.8-.15-1.05-.453c-.2-.201-.35-.453-.4-.755-.05.302-.2.554-.4.755-.25.252-.65.453-1.05.453s-.8-.15-1.05-.453a1.19 1.19 0 01-.3-.453v3.02h2.9c.1-.201.2-.403.35-.554.25-.251.65-.452 1.05-.452s.8.15 1.05.453c.2.2.35.453.4.755.05-.303.2-.554.4-.756.25-.251.65-.453 1.05-.453s.8.151 1.05.453c.2.202.35.453.4.755.05-.302.2-.553.4-.755.25-.251.65-.453 1.05-.453s.8.151 1.05.453c.15.151.3.353.35.554h2.55v-3.12zm-6.9-1.007c-.15 0-.25.05-.35.15-.1.102-.15.202-.15.353s.05.252.15.353c.1.1.2.15.35.15s.25-.05.35-.15.15-.202.15-.353-.05-.251-.15-.352c-.1-.05-.2-.151-.35-.151zm-2.9 0c-.15 0-.25.05-.35.15-.1.102-.15.202-.15.353s.05.252.15.353c.1.1.2.15.35.15s.25-.05.35-.15c.1-.101.15-.202.15-.353s-.05-.251-.15-.352c-.1-.05-.25-.151-.35-.151zm5.85 4.178c-.15 0-.25.05-.35.15s-.15.202-.15.353c0 .15.05.252.15.352.1.1.2.151.35.151s.25-.05.35-.15c.1-.102.15-.202.15-.353a.458.458 0 00-.15-.352.538.538 0 00-.35-.152zm-2.95 0c-.15 0-.25.05-.35.15a.46.46 0 00-.15.353c0 .15.05.252.15.352.1.1.2.151.35.151s.25-.05.35-.15c.1-.102.15-.202.15-.353 0-.151-.05-.252-.15-.352s-.2-.152-.35-.152z"/></symbol><symbol viewBox="0 0 32 32" id="category-13"><path d="M26.898 22.747c-.666-.01-1.065.19-1.066-.513.01-1.508.018-3.015.02-4.522-.005-.734-.049-1.35-.237-2.06-.184-.628-.4-1.07-.84-1.546-.432-.43-.825-.647-1.395-.822-.55-.15-1.01-.186-1.575-.188-1.568.066-2.581.478-3.986 1.091.157.647.419 1.357.742 1.933 1.114-.45 2.02-.852 3.244-.894.351.003.678.02 1.019.116.2.062.344.127.495.278.168.185.245.386.316.627.123.471.15.925.154 1.409a14.537 14.537 0 00-2.201-.234c-1.102.012-1.978.182-2.935.778-.49.34-.805.67-1.107 1.202-.306.59-.41 1.084-.422 1.753.008.62.08 1.094.304 1.672.23.534.48.89.909 1.27.422.35.791.539 1.306.702.516.148.942.197 1.476.2.862-.013 1.492-.123 2.297-.446a7.2 7.2 0 00.945-.498c.202.232.389.375.662.512.236.11.434.168.69.212.382.053.793.05 1.18.048.145-.647.139-1.43.005-2.08zm-4.233-.158c-.546.212-.964.275-1.545.28a3.121 3.121 0 01-.9-.122 1.565 1.565 0 01-.57-.3 1.17 1.17 0 01-.324-.458c-.11-.282-.135-.532-.139-.834.004-.265.034-.468.155-.702.115-.204.24-.324.427-.455.564-.356 1.17-.44 1.819-.453.874.017 1.467.124 2.2.271-.002.705-.002 1.41.001 2.115a4.98 4.98 0 01-1.124.658zM9.34 7L5 24.957h2.615l.79-3.616h4.563l.813 3.616h2.591L12.03 7H9.34zm-.393 11.93l1.06-4.824c.271-1.18.518-2.9.641-3.847h.074c.125.948.396 2.667.643 3.847l1.085 4.823H8.947zm13.083-6.984c1.422 0 2.41-.922 2.473-2.573h-1.422c-.042.75-.433 1.137-1.073 1.137-.618 0-1.011-.386-1.051-1.137h-1.423c.06 1.63 1.051 2.573 2.495 2.573z"/></symbol><symbol viewBox="0 0 32 32" id="category-14"><path d="M28.867 4.625a277.3 277.3 0 010 18.056c-4.633.104-10.383.142-16.035.116l-5.979 4.997v-5.047c-1.302-.018-2.549-.04-3.706-.066a276.883 276.883 0 010-18.056c7.396-.167 18.324-.167 25.72 0zm-2 2H5.147V20.68h3.72v2.09l-.012.74 3.397-2.83h14.615V6.625z"/><path d="M12.443 16.663l-.439-1.195H9.45l-.435 1.195H6.82l2.695-6.825h2.405l2.719 6.825h-2.196zm-.928-2.66l-.793-2.12-.789 2.12h1.582zm3.675.845v-1.43h3.383v1.43H15.19zm6.692.192h3.382v1.623h-6.019v-1.315l3.16-3.888h-2.929V9.838h5.674v1.29l-3.268 3.912z"/></symbol><symbol viewBox="0 0 32 32" id="category-15"><path d="M21.25 16.4c.05 2.45.05 4.95 0 7.45h1.5c-.05-2.5-.05-4.95 0-7.45h-1.5zM16 26.25c-3.05 0-6.1 0-9.15-.05-.25-3.05-.15-7.3-.15-9.9-1.7-.5-2.65-2.35-2-4H2.95C2.65 11.05 2.7 7 3 5.8c4.3-.05 8.65-.05 13-.05s8.65 0 13 .05c.35 1.2.35 5.25 0 6.45h-1.75c.65 1.65-.3 3.5-2 4 .05 2.65.15 6.9-.15 9.9-3 .1-6.05.1-9.1.1zm0-18.1c-3.6 0-7.2 0-10.8-.05v1.8c3.6 0 7.2-.05 10.8-.05s7.2 0 10.8.05V8.1c-3.6.05-7.2.05-10.8.05zm0 4.15H7.6c-.3 0-.55.1-.75.3-.4.4-.4 1.05 0 1.5.2.2.45.3.75.3h16.8c.3 0 .55-.1.75-.3.4-.4.4-1.05 0-1.5-.2-.2-.45-.3-.75-.3H16zm1.25 4.1c.05 2.45.05 4.95 0 7.4h1.5c-.05-2.45-.05-4.95 0-7.4h-1.5zm-2.5 0h-1.5c.05 2.45.05 4.95 0 7.4h1.5c-.05-2.45-.05-4.95 0-7.4zm-4 0h-1.5c.05 2.45.05 4.95 0 7.45h1.5c-.05-2.5-.05-4.95 0-7.45z"/><path fill="none" d="M0 0h32v32H0z"/></symbol><symbol viewBox="0 0 32 32" id="category-16"><path d="M28.86 4.477c.197 5.978.197 12.078 0 18.056-4.633.104-10.383.143-16.036.117l-5.977 4.997V22.6c-1.306-.018-2.55-.04-3.707-.066a277.021 277.021 0 010-18.056c7.395-.166 18.324-.166 25.72 0zm-2 2H5.14v14.056h3.72v2.09l-.014.741 3.398-2.83H26.86V6.476z"/><path d="M11.906 15.186v1.569h-4.93v-6.5h1.751v4.93h3.179zm5.8 1.569l-.418-1.137h-2.433l-.414 1.137H12.35l2.567-6.5h2.29l2.59 6.5h-2.091zm-.883-2.532l-.757-2.02-.75 2.02h1.507zm6.317-2.478v5.01h-1.759v-5.01H19.5v-1.49h5.524v1.49h-1.882z"/></symbol><symbol viewBox="0 0 64 64" fill="currentColor" id="category-2"><path d="M57.72 9.016c-14.79-.38-36.65-.38-51.44 0-.39 12-.39 24.16 0 36.12l7.41.13v10.04l12-10c11.31.05 22.8 0 32.07-.23.35-11.95.35-24.15-.04-36.06zm-4 32.12H24.49l-6.8 5.66v-5.71h-7.41v-28.07h43.44v28.12zM25 20.256c4.46 0 6.23 1.42 6.23 4.74 0 2.24-.8 3.6-2.7 4.26l3.06 4.65h-4.18l-2.65-4.17h-2.18v4.16H18.9v-13.64H25zm-2.42 6.66h2.65c1.61 0 2.22-.49 2.22-1.68s-.61-1.67-2.22-1.67h-2.65v3.35zm25.17.16a7.32 7.32 0 01-14.62 0 7.32 7.32 0 0114.62 0zm-10.8 0a3.49 3.49 0 103.49-3.57 3.45 3.45 0 00-3.44 3.57h-.05z"/></symbol><symbol viewBox="0 0 64 64" id="category-3"><path d="M21.8 12.7c-.4-1.6-.4-3.3 0-4.9 3.4-.2 6.8-.5 10.2-.5 3.4 0 6.8.3 10.2.5.2 1.6.2 3.3 0 4.9h-2.6c0 2.6.1 5.2 0 7.7 3.1 1.4 5.4 3.2 7.7 6.1 3.9 5.3 4.8 12.5 2.2 18.6-2.5 5.8-7.6 9.9-13.6 11.2-3.7.8-7.8.4-11.3-1.1-7-2.9-11.6-9.9-11.6-17.4.1-4.4 1.2-7.6 3.7-11.2 2.2-2.9 4.5-4.7 7.7-6.1-.1-2.6 0-5.2 0-7.7-.9 0-1.7 0-2.6-.1zM32 27.3c-.6 0-1.1.2-1.4.6-.4.4-.6.9-.6 1.4 0 .6.2 1.1.6 1.4.4.4.9.6 1.4.6.6 0 1.1-.2 1.4-.6.4-.4.6-.9.6-1.4 0-.6-.2-1.1-.6-1.4-.3-.4-.8-.6-1.4-.6zm8 3.9c-.3 0-.6.1-.8.3-.2.2-.3.5-.3.7 0 .3.1.6.3.7.2.2.5.3.8.3.3 0 .6-.1.7-.3.2-.2.3-.5.3-.7 0-.3-.1-.6-.3-.7-.1-.2-.4-.3-.7-.3zm-2.2-1.1c.6-.6 1.3-.9 2.2-.9.8 0 1.6.3 2.2.9.6.6.9 1.3.9 2.2s-.3 1.6-.9 2.2c-.6.6-1.3.9-2.2.9-.8 0-1.6-.3-2.2-.9-.6-.6-.9-1.3-.9-2.2s.4-1.6.9-2.2zm-8.6-3.6c.7-.7 1.7-1.2 2.8-1.2 1.1 0 2.1.4 2.8 1.2.7.7 1.2 1.7 1.2 2.8s-.4 2.1-1.2 2.8c-.7.7-1.7 1.2-2.8 1.2-1.1 0-2.1-.4-2.8-1.2-.7-.7-1.2-1.7-1.2-2.8s.4-2.1 1.2-2.8zm-10.9 8.4c5.4-2 10.5-.8 15.9.9 2.3.7 4.5 1.5 6.9 1.8 1.9.2 3.3.2 4.9-.4-.1-3-.9-5.2-2.7-7.7-2.6-3.4-4.8-4.9-8.5-5.7-.3-4.9 0-7.3 0-11h-5.5c0 3.7.3 6.1 0 11-3.7.8-5.9 2.3-8.5 5.7-1.4 1.8-2.1 3.5-2.5 5.4zm27.2 6.8c-6.8 2-13.7-2.1-20-3-2.6-.4-4.8-.2-7.3.7.9 9.1 10.6 15.2 19.4 11.4 3.8-1.7 6.7-5.1 7.9-9.1z"/></symbol><symbol viewBox="0 0 64 64" id="category-4"><path d="M29.9 5.1c1.4.8 2.7 1.6 3.9 2.5-.9 1.4-1.7 2.9-2.7 4.3 3.2-.3 6.5-.2 9.9.4-2.3 3.8-4.6 7.5-7.1 11.2-1.4-.8-2.7-1.6-3.9-2.5.9-1.4 1.8-2.9 2.7-4.3-3.2.3-6.5.2-9.9-.4 2.2-3.6 4.3-7.2 6.8-10.7.1-.1.2-.3.3-.5zM18 27.2V32h4.2v-4.8H18zm28.1 9.7h-4.2v3.9c0 2.6-1 5.1-2.8 7C35 52 29 52 24.9 47.8c-1.8-1.9-2.8-4.4-2.8-7v-3.9h-4.2c.1 3.3.3 6.6 1.2 8.8 1.3 3.2 3.8 5.8 7 7.2 3.8 1.7 8.2 1.7 11.9 0 3.1-1.4 5.6-4 7-7.2.8-2.2 1.1-5.5 1.1-8.8zm-10.5 7.6c1-1.1 1.5-2.3 1.5-3.7V27.5c0-1.7-.1-3.2.1-5 4.4-.3 8.8-.3 13.3 0 .2 1.8.1 3.3.1 5v8.1c.1 4.2-.1 8.6-1.4 11.9-1.7 4.3-5.2 7.8-9.4 9.7-5 2.2-10.9 2.2-15.9 0-4.2-1.9-7.7-5.5-9.4-9.7-1.3-3.3-1.4-7.6-1.4-11.9v-8.1c0-1.7-.1-3.2.1-5 4.4-.3 8.8-.3 13.3 0 .2 1.8.1 3.3.1 5v13.3c.3 4.2 5.3 7.6 9 3.7zM46 27.2h-4.2V32H46v-4.8z"/></symbol><symbol viewBox="0 0 64 64" id="category-5"><path d="M48.5 23.7C45 17.8 37.6 12.2 32 7.9c-5.6 4.3-13 9.8-16.5 15.8-5.5 11.4 1.4 24.8 14.1 26.5v5.5c1.6.6 3.3.5 4.7 0 0-1.8 0-3.7.1-5.5C47 48.6 54 35.2 48.5 23.7zm-4.4 2.2c.2.4.4.8.5 1.2-3.6 3.1-7 6.5-10.3 10v-5.6c2.9-2.5 5.6-5.1 8.1-8 .7.8 1.3 1.6 1.7 2.4zm-9.8-5.8c-1.5-.3-3.2-.3-4.7 0-.1 8.4-.1 16.8-.1 25.2-8.9-1.7-13.6-11.2-9.7-19.4 2.5-4.3 7.9-8.7 12.1-12.2 2.7 2.3 5.9 4.9 8.5 7.6-2.1 1.9-4.2 3.9-6.1 6 .1-2.4 0-4.8 0-7.2zm.1 25.2v-4c3.9-3.4 7.6-7.1 11.1-10.9.8 7.1-4.1 13.6-11.1 14.9z"/></symbol><symbol viewBox="0 0 64 64" id="category-6"><path d="M22 12.3c-1.4.7-2.7 1.6-3.8 2.7-.1.1-.3.3-.4.5 1 .2 2 .5 3 .6.3-1.2.6-2.3 1-3.2 0-.2.1-.4.2-.6zM43.9 53c.3 1.3.3 2.7 0 4-10.5.1-21.1.1-31.6 0-.3-1.3-.3-2.7 0-4 4.6 0 9.2-.1 13.8-.1v-2c-6.2-.5-11.6-3-16.1-7.3.4-1.3 1.5-2.3 2.8-2.8 4.3 4.1 9.4 6.1 15.3 6.2 12.3-.2 21.8-9.6 22-22-.2-6-2.1-11-6.2-15.3.5-1.3 1.5-2.3 2.9-2.7 4.8 5.1 7.1 11 7.3 18-.2 13.6-10.3 25-24 25.9v2c4.6 0 9.2.1 13.8.1zM24.7 16.6c2.2.2 4.4.2 6.6 0-.2-.8-.5-1.6-.7-2.3-1.8-4.5-3.4-4.5-5.2 0-.2.8-.5 1.5-.7 2.3zm10.6-.5l3-.6c-.1-.2-.3-.3-.4-.5-1.1-1.1-2.4-2-3.8-2.7.1.2.2.4.2.6.4 1 .8 2.1 1 3.2zm-15.5 6.8c0-.9.1-1.9.2-2.7-1.6-.3-3.2-.7-4.7-1.1-.6 1.2-1 2.5-1.2 3.9 2-.1 3.8-.1 5.7-.1zM36 20.1c.1.9.2 1.8.2 2.7h5.6c-.2-1.4-.6-2.7-1.2-3.9-1.4.6-3 .9-4.6 1.2zm-3.7 2.7c0-.7-.1-1.5-.2-2.2-2.7.2-5.4.2-8.1 0-.1.7-.1 1.4-.2 2.2h8.5zM23.8 27c0 .8.1 1.5.2 2.3 2.7-.2 5.4-.2 8.1 0 .1-.7.1-1.5.2-2.3h-8.5zm.9 6.3c.2.8.5 1.6.7 2.3 1.8 4.5 3.4 4.5 5.2 0 .3-.7.5-1.5.7-2.3-2.2-.2-4.4-.2-6.6 0zm11.6-6.4c0 1-.1 1.9-.2 2.8 1.6.3 3.2.7 4.7 1.1.6-1.2 1-2.6 1.2-4-2 .1-3.8.1-5.7.1zm-1 6.9c-.3 1.2-.6 2.3-1 3.2-.1.2-.2.4-.2.6 1.4-.7 2.7-1.6 3.8-2.7.2-.1.3-.3.4-.5-.9-.3-1.9-.5-3-.6zM22 37.6c-.1-.2-.2-.4-.2-.6-.4-1-.7-2.1-1-3.2l-3 .6c.1.2.3.3.4.5 1.1 1.1 2.4 2 3.8 2.7zm-2-7.8c-.1-.9-.2-1.9-.2-2.8h-5.6c.2 1.4.6 2.8 1.2 4 1.5-.6 3.1-.9 4.6-1.2zm8-22.9c9.9 0 18 8.1 18 18s-8.1 18-18 18-18-8.1-18-18 8.1-18 18-18z"/></symbol><symbol viewBox="0 0 64 64" id="category-7"><path d="M53.1 24.5c.5 1.5 1.1 3.1 1.7 4.6 1.7-.5 3.7-1.2 5.3-1.9-.5-1.5-1.1-3.1-1.7-4.6-1.7.4-3.6 1.1-5.3 1.9zm-35.2 3.4l-1.7 5.4H23l.7-5.4h-5.8zM32 57.6c-7.6-6.8-14.7-14-20.9-21.8 1.3-4.1 2.3-7.8 3.9-11.9 5.7-.3 11.4-.5 17-.5 5.7 0 11.4.2 17 .5 1.5 4.1 2.5 7.8 3.9 11.9-6.2 7.8-13.3 15-20.9 21.8zm0-29.7h-4.4l-.7 5.4h10.2l-.7-5.4H32zm0 9.4h-4.5L32 49.1l4.5-11.8H32zm-14 0l8.6 9-3.4-9H18zM32 6.4h-2.5c-.1 1.8-.1 3.9 0 5.7h5c.1-1.8.1-3.9 0-5.7H32zm-12.4 7.8c-.8-1.6-1.8-3.4-2.8-4.9l-4.2 2.4c.8 1.6 1.8 3.4 2.8 4.9 1.4-.7 2.9-1.5 4.2-2.4zm-8.7 10.3c-1.7-.7-3.6-1.4-5.3-1.9-.6 1.5-1.2 3-1.7 4.6 1.7.7 3.6 1.4 5.3 1.9.7-1.6 1.2-3.1 1.7-4.6zm33.5-10.3c1.4.9 2.8 1.7 4.2 2.4 1-1.5 2-3.3 2.8-4.9-1.4-.9-2.8-1.7-4.2-2.4-1 1.5-2 3.3-2.8 4.9zM46 37.3h-5.2l-3.4 9 8.6-9zm.1-9.4h-5.7l.7 5.4h6.8l-1.8-5.4z"/></symbol><symbol viewBox="0 0 24 24" id="category-8"><path d="M12.26 14.17a2.06 2.06 0 112.06-2.06v.01a2.05 2.05 0 01-2.05 2.05h-.01zm0-2.47a.42.42 0 10.13 0h-.13z"/><path d="M8.19 21.24a2.67 2.67 0 01-1.72-.58c-2.38-1.94-.73-7.32 2-11.39 2.28-3.37 5.08-5.67 7.3-6a2.818 2.818 0 012.25.54c2.38 1.94.72 7.32-2 11.39-2.28 3.37-5.08 5.67-7.3 6a3.097 3.097 0 01-.53.04zm8.15-16.36h-.3c-1.44.21-3.9 1.93-6.18 5.29-2.78 4.1-3.54 8.24-2.36 9.2.29.206.655.275 1 .19 1.43-.21 3.9-1.93 6.18-5.29 2.77-4.1 3.53-8.23 2.35-9.2a1.002 1.002 0 00-.69-.19z"/><path d="M16.4 21.21a2.86 2.86 0 01-.5 0c-2.22-.3-5-2.58-7.34-5.93C5.73 11.19 4.04 5.83 6.4 3.87a2.77 2.77 0 012.24-.56c2.22.31 5 2.58 7.35 5.93 2.79 4 4.49 9.41 2.13 11.37a2.663 2.663 0 01-1.72.6zM8.14 4.91a1 1 0 00-.69.22c-1.17 1-.38 5.11 2.43 9.18 2.3 3.34 4.78 5 6.22 5.24.346.086.713.012 1-.2 1.17-1 .38-5.1-2.43-9.18-2.3-3.34-4.79-5-6.22-5.24l-.31-.02z"/><path d="M12.19 16.76c-5.45 0-9.56-1.93-9.56-4.48 0-2.55 4.11-4.48 9.56-4.48s9.56 1.92 9.56 4.48c0 2.56-4.11 4.48-9.56 4.48zm0-7.36c-4.9 0-7.92 1.67-7.92 2.88s3 2.88 7.92 2.88 7.92-1.68 7.92-2.88S17.1 9.4 12.19 9.4z"/></symbol><symbol viewBox="0 0 64 64" id="category-9"><path d="M38.4 41.3c3.9-3.4 7.6-7.1 11.1-10.9.8 7.1-4 13.6-11.1 14.9v-4zm-8 3v-.8c0-3.7-1.9-6.9-4.7-8.7 1.4-1.4 2.3-3.4 2.3-5.6 0-2.2-.9-4.2-2.4-5.7 2.8-3.5 7.1-6.9 10.5-9.8 2.7 2.3 5.9 4.9 8.5 7.6-2.1 1.9-4.2 3.9-6.1 6 0-2.4 0-4.8-.1-7.2-1.5-.3-3.2-.3-4.7 0-.1 8.4-.1 16.8-.1 25.2-1.2-.2-2.2-.6-3.2-1zm-9.3-23c-.4-.1-.8-.1-1.1-.1-4.4 0-7.9 3.6-7.9 7.9 0 2.2.9 4.1 2.3 5.6-2.9 1.8-4.7 5-4.8 8.7v5.1c0 2.5.1 4.9.2 7.4 6.6.2 13.8.2 20.3 0 .1-2.2.2-4.3.2-6.4 1 .3 2.1.6 3.2.7v5.5c1.6.6 3.3.5 4.7 0 0-1.8 0-3.7.1-5.5C51 48.6 58 35.2 52.5 23.7 49 17.8 41.6 12.2 36 7.9c-4.9 3.7-11 8.4-14.9 13.4zm17.3 10.2c2.9-2.5 5.6-5.1 8.1-8 .6.8 1.2 1.6 1.7 2.4.2.4.4.8.5 1.2-3.6 3.1-7 6.5-10.3 10v-5.6zm-21.2.5c-.7-.7-1.2-1.7-1.2-2.8 0-1.1.4-2.1 1.2-2.8.7-.7 1.7-1.2 2.8-1.2 1.1 0 2.1.4 2.8 1.2.7.7 1.2 1.7 1.2 2.8 0 1.1-.4 2.1-1.2 2.8-1.6 1.5-4.1 1.5-5.6 0zm8.4 11.5v7.7H14.3v-7.7c.1-7.5 11.2-7.5 11.3 0z"/></symbol><symbol viewBox="0 0 64 64" id="personal-development"><path d="M38.1 37.2c0-4-2.1-7.5-5.2-9.5 1.5-1.6 2.5-3.7 2.5-6.1 0-5-4.2-8.7-8.7-8.7-4.8 0-8.7 3.9-8.7 8.7 0 2.4.9 4.5 2.5 6.1-3.1 2-5.2 5.5-5.2 9.5v5.5c0 2.7.1 5.4.2 8.1 7.2.2 14.6.2 22.2 0 .4-6 .4-13.6.4-13.6zM23.4 18.3c.9-.9 2-1.4 3.3-1.4 1.3 0 2.5.5 3.3 1.4.9.9 1.4 2 1.4 3.3 0 1.3-.5 2.5-1.4 3.3-1.8 1.8-4.8 1.8-6.7 0-.9-.9-1.4-2-1.4-3.3.1-1.2.7-2.4 1.5-3.3zm-3.3 28v-9.1c.1-8.8 13.2-8.8 13.2 0v9.1c-4.3-.1-8.8-.1-13.2 0zm35.8-18.9c.6-1.1.6-2.9 0-4h-1.8c-.2-.7-.5-1.4-.8-2l1.2-1.2c-.5-1.2-1.3-2.2-2.8-2.9l-1.2 1.2c-.6-.4-1.3-.6-2-.8v-1.8c-1.3-.3-2.7-.3-4 0v1.8c-.7.2-1.4.5-2 .8l-1.2-1.2c-1.5.7-2.3 1.7-2.8 2.9l1.2 1.2c-.4.6-.6 1.3-.8 2h-1.8c-.6 1.1-.6 2.9 0 4h1.8c.2.7.5 1.4.8 2l-1.2 1.2c.5 1.2 1.3 2.2 2.8 2.8l1.2-1.2c.6.4 1.3.6 2 .8v1.8c1.3.3 2.7.3 4 0V33c.7-.2 1.4-.5 2-.8l1.2 1.2c1.5-.6 2.3-1.6 2.8-2.8l-1.2-1.2c.4-.6.6-1.3.8-2h1.8zm-9.4 1.8c-2.1 0-3.9-1.7-3.9-3.9 0-3.4 4.2-5.2 6.6-2.7 2.5 2.5.8 6.6-2.7 6.6z"/></symbol></svg>
